<svg width="212" height="38" viewBox="0 0 212 38" fill="none" xmlns="http://www.w3.org/2000/svg">
<g filter="url(#filter0_d_581_4246)">
<path fill-rule="evenodd" clip-rule="evenodd" d="M157 7.77373C152.742 8.22185 150.431 10.292 149.599 13.7956C149.59 13.8304 149.583 13.8667 149.577 13.9042C149.449 14.6943 149.43 15.5327 149.599 16.3139C150.613 21.0219 154.465 22.1768 157 22.4453C157.67 22.5162 158.05 22.5548 158.724 22.5548C159.398 22.5548 159.778 22.5162 160.448 22.4453C164.199 22.0479 167.038 20.365 167.849 16.3139C167.982 15.6501 167.932 14.9587 167.883 14.2765L167.883 14.2763C167.874 14.1509 167.865 14.0257 167.857 13.9011C167.855 13.8649 167.852 13.8296 167.849 13.7956C167.545 10.4157 164.3 8.17917 160.448 7.77373C159.778 7.70324 159.398 7.66425 158.724 7.66425C158.05 7.66425 157.67 7.70324 157 7.77373ZM158.723 21.4333C159.29 21.4333 159.608 21.3839 160.171 21.3238C163.323 20.9872 165.708 19.5615 166.39 16.1298C166.501 15.5674 166.459 14.982 166.418 14.4043C166.41 14.2979 166.403 14.1917 166.396 14.0859C166.394 14.0552 166.392 14.0253 166.39 13.9965C166.134 11.1333 163.408 9.23872 160.171 8.89527C159.608 8.83555 159.29 8.78578 158.723 8.78578C158.156 8.78578 157.838 8.83555 157.275 8.89527C153.697 9.27487 151.755 11.0285 151.056 13.9965C151.05 14.026 151.044 14.0567 151.038 14.0885C150.931 14.758 150.915 15.4677 151.056 16.1298C151.908 20.118 155.145 21.0963 157.275 21.3238C157.838 21.3839 158.156 21.4333 158.723 21.4333Z" fill="black"/>
<path d="M171.702 22.2263V7.99271H173.122L181.436 20.6934L189.75 7.99271H191.169V22.2263H189.75V10.292L182.044 22.2263H180.827L173.02 10.1825V22.2263H171.702Z" fill="black"/>
<path d="M195.935 22.2263V7.99271H207.798V9.30658H197.456V14.1241H207.392V15.3285H197.456V20.9124H208V22.2263H195.935Z" fill="black"/>
<path d="M130.334 22.2263V7.99271H131.754V14.1241H144.529V7.99271H145.746V22.2263H144.529V15.219H131.754V22.2263H130.334Z" fill="black"/>
<path d="M100.018 22.2263V7.99271H104.277L113.807 17.7372V7.99271H117.762V22.2263H113.605L103.972 12.5913V22.2263H100.018Z" fill="black"/>
<path d="M77.8134 22.2263V7.99271H82.1732L91.7041 17.7372V7.99271H95.5569V22.2263H91.2985L81.7677 12.5913V22.2263H77.8134Z" fill="black"/>
<path fill-rule="evenodd" clip-rule="evenodd" d="M56.217 22.2263L63.8214 7.99271H68.0798L75.5828 22.2263H71.2229L69.9049 19.3796H61.9963L60.4754 22.2263H56.217ZM65.9506 11.4964L63.3144 16.6423H68.4854L65.9506 11.4964Z" fill="black"/>
<path d="M31.9844 22.2263V7.88322H37.1553L42.9347 18.6132L48.9168 7.99271H53.9864V22.2263H50.1335V12.3723L44.7597 22.2263H41.1096L35.8373 12.3723V22.2263H31.9844Z" fill="black"/>
<path d="M4 29.9356V0L16.1022 9.07725L12.9111 12.7468L9.41892 10.1073V24.721L4 29.9356Z" fill="black"/>
<path fill-rule="evenodd" clip-rule="evenodd" d="M12.1886 15.9013L25.495 0.0643777V30L12.1886 25.1717V15.9013ZM21.9426 10.3648L14.8378 16.9957V23.3691L21.9426 24.5923V10.3648Z" fill="#FA0001"/>
</g>
<defs>
<filter id="filter0_d_581_4246" x="0" y="0" width="212" height="38" filterUnits="userSpaceOnUse" color-interpolation-filters="sRGB">
<feFlood flood-opacity="0" result="BackgroundImageFix"/>
<feColorMatrix in="SourceAlpha" type="matrix" values="0 0 0 0 0 0 0 0 0 0 0 0 0 0 0 0 0 0 127 0" result="hardAlpha"/>
<feOffset dy="4"/>
<feGaussianBlur stdDeviation="2"/>
<feComposite in2="hardAlpha" operator="out"/>
<feColorMatrix type="matrix" values="0 0 0 0 0 0 0 0 0 0 0 0 0 0 0 0 0 0 0.25 0"/>
<feBlend mode="normal" in2="BackgroundImageFix" result="effect1_dropShadow_581_4246"/>
<feBlend mode="normal" in="SourceGraphic" in2="effect1_dropShadow_581_4246" result="shape"/>
</filter>
</defs>
</svg>
