<svg width="0" height="0" class="hidden">
  <symbol fill="none" xmlns="http://www.w3.org/2000/svg" viewBox="0 0 42 42" id="category09">
    <rect width="42" height="42" fill="white"></rect>
    <path d="M11.8361 32.4003H15.3774C15.563 32.4003 15.741 32.3266 15.8723 32.1953C16.0035 32.0641 16.0772 31.8861 16.0772 31.7005C16.0772 31.5149 16.0035 31.3368 15.8723 31.2056C15.741 31.0743 15.563 31.0006 15.3774 31.0006H11.8361C11.6505 31.0006 11.4725 31.0743 11.3412 31.2056C11.21 31.3368 11.1362 31.5149 11.1362 31.7005C11.1362 31.8861 11.21 32.0641 11.3412 32.1953C11.4725 32.3266 11.6505 32.4003 11.8361 32.4003Z" fill="#A19289"></path>
    <path d="M26.4772 32.4003H30.0325C30.2181 32.4003 30.3961 32.3266 30.5274 32.1953C30.6586 32.0641 30.7324 31.8861 30.7324 31.7005C30.7324 31.5149 30.6586 31.3368 30.5274 31.2056C30.3961 31.0743 30.2181 31.0006 30.0325 31.0006H26.4772C26.2916 31.0006 26.1136 31.0743 25.9823 31.2056C25.8511 31.3368 25.7773 31.5149 25.7773 31.7005C25.7773 31.8861 25.8511 32.0641 25.9823 32.1953C26.1136 32.3266 26.2916 32.4003 26.4772 32.4003Z" fill="#A19289"></path>
    <path d="M20.9342 4C18.2359 4.00185 15.6487 5.07456 13.7408 6.98252C11.8328 8.89048 10.7601 11.4777 10.7582 14.176V25.6537H8.44871C8.0657 25.6537 7.69827 25.8053 7.42678 26.0755C7.1553 26.3457 7.00185 26.7124 7 27.0954V37.0894C7 37.5943 7.20056 38.0784 7.55756 38.4354C7.91455 38.7924 8.39875 38.993 8.90362 38.993C9.9954 38.993 10.4223 38.0622 10.7093 37.4463L11.955 34.7938H29.9134L31.1592 37.4533C31.4461 38.0692 31.859 39 32.9648 39C33.4697 39 33.9539 38.7994 34.3109 38.4424C34.6679 38.0854 34.8684 37.6013 34.8684 37.0964V27.0954C34.8684 26.7112 34.7158 26.3427 34.4441 26.071C34.1724 25.7993 33.8039 25.6467 33.4197 25.6467H31.1102V14.176C31.1083 11.4777 30.0356 8.89048 28.1277 6.98252C26.2197 5.07456 23.6325 4.00185 20.9342 4ZM12.158 14.176C12.158 11.8484 13.0826 9.61609 14.7285 7.97022C16.3743 6.32436 18.6066 5.39972 20.9342 5.39972C23.2618 5.39972 25.4941 6.32436 27.14 7.97022C28.7858 9.61609 29.7105 11.8484 29.7105 14.176V25.6537H28.2198V14.176C28.2198 12.2437 27.4522 10.3906 26.0859 9.02431C24.7196 7.658 22.8665 6.89042 20.9342 6.89042C19.002 6.89042 17.1489 7.658 15.7826 9.02431C14.4163 10.3906 13.6487 12.2437 13.6487 14.176V25.6537H12.158V14.176ZM15.0484 25.6537V14.176C15.0484 13.403 15.2006 12.6377 15.4964 11.9236C15.7922 11.2095 16.2258 10.5606 16.7723 10.0141C17.3189 9.46751 17.9677 9.03396 18.6818 8.73817C19.3959 8.44238 20.1613 8.29014 20.9342 8.29014C21.7072 8.29014 22.4725 8.44238 23.1866 8.73817C23.9007 9.03396 24.5496 9.46751 25.0961 10.0141C25.6427 10.5606 26.0762 11.2095 26.372 11.9236C26.6678 12.6377 26.82 13.403 26.82 14.176V25.6537H15.0484ZM33.4687 30.0908V33.3941H21.6341V30.0908H33.4687ZM20.2344 33.3941H8.39972V30.0908H20.2344V33.3941ZM9.44251 36.8934C9.16957 37.4813 9.06459 37.5933 8.90362 37.5933C8.83719 37.5942 8.77124 37.5818 8.70968 37.5568C8.64811 37.5319 8.59219 37.4948 8.54521 37.4478C8.49823 37.4008 8.46115 37.3449 8.43616 37.2833C8.41117 37.2218 8.39878 37.1558 8.39972 37.0894V34.7938H10.4363L9.44251 36.8934ZM32.9648 37.5933C32.8038 37.5933 32.6989 37.4463 32.4259 36.8934L31.4321 34.7938H33.4407V37.0964C33.4408 37.2246 33.3914 37.3479 33.3027 37.4405C33.214 37.5331 33.0929 37.5879 32.9648 37.5933ZM33.4687 27.0954V28.6841H8.39972V27.0954C8.39972 27.0824 8.40488 27.0699 8.41407 27.0607C8.42326 27.0516 8.43572 27.0464 8.44871 27.0464H33.4197C33.4327 27.0464 33.4452 27.0516 33.4544 27.0607C33.4635 27.0699 33.4687 27.0824 33.4687 27.0954Z" fill="#A19289"></path>
  </symbol>
  <symbol fill="none" xmlns="http://www.w3.org/2000/svg" viewBox="0 0 42 42" id="category10">
    <rect width="42" height="42" fill="white"></rect>
    <path d="M35.8575 18.9H24.8784L26.0531 12.9938C26.0717 12.8978 26.0686 12.7989 26.0441 12.7042C26.0195 12.6096 25.9742 12.5216 25.9113 12.4468C25.8484 12.3719 25.7695 12.3121 25.6805 12.2716C25.5915 12.2311 25.4946 12.2111 25.3969 12.2128H25.2591C25.7381 10.9988 26.0531 8.71502 24.7931 7.98659C24.045 7.56002 23.1328 7.90127 22.4109 8.35409C22.2486 8.12779 22.0375 7.94075 21.7934 7.80674C21.5492 7.67274 21.2781 7.59516 21 7.57971C20.7165 7.59554 20.4405 7.67663 20.1935 7.81664C19.9465 7.95665 19.7351 8.1518 19.5759 8.3869C18.8475 7.93409 17.9288 7.59284 17.1938 8.01284C15.9338 8.74127 16.2487 11.025 16.7278 12.2391H16.59C16.4922 12.2373 16.3953 12.2574 16.3063 12.2979C16.2173 12.3383 16.1385 12.3982 16.0756 12.473C16.0127 12.5479 15.9673 12.6358 15.9428 12.7305C15.9182 12.8251 15.9152 12.924 15.9338 13.02L17.1084 18.9263H6.1425C5.73625 18.9262 5.34625 19.0858 5.05655 19.3706C4.76684 19.6554 4.60064 20.0426 4.59375 20.4488V32.3269C4.59375 32.881 4.8134 33.4125 5.20458 33.8049C5.59576 34.1973 6.12655 34.4186 6.68063 34.4203C7.86844 34.4203 8.33438 33.4163 8.64937 32.6813L10.1784 29.4H31.7691L33.2981 32.6813C33.6394 33.4163 34.1053 34.4203 35.2669 34.4203C35.5456 34.4265 35.8228 34.3768 36.0821 34.2744C36.3414 34.1719 36.5777 34.0187 36.7769 33.8237C36.9762 33.6287 37.1346 33.3958 37.2426 33.1388C37.3507 32.8817 37.4063 32.6057 37.4062 32.3269V20.4488C37.4062 20.038 37.2431 19.6441 36.9526 19.3536C36.6622 19.0632 36.2683 18.9 35.8575 18.9ZM21.6562 28.1006V23.8219H36.0938V28.1006H21.6562ZM5.90625 28.1006V23.8219H20.3438V28.1006H5.90625ZM24.15 9.14815C24.5109 9.35815 24.4387 11.1169 23.9269 12.0225C23.8706 12.1007 23.8068 12.1732 23.7366 12.2391H23.4281C23.5057 11.9971 23.5477 11.7451 23.5528 11.491C23.5146 10.8124 23.3568 10.1459 23.0869 9.52221C23.3231 9.36471 23.9334 9.03002 24.15 9.14815ZM21 8.89221C21.4134 8.89221 22.2403 10.4738 22.2403 11.5172C22.2389 11.7878 22.149 12.0506 21.9844 12.2653H20.0156C19.8501 12.051 19.7601 11.788 19.7597 11.5172C19.7597 10.5 20.5866 8.89221 21 8.89221ZM18.0731 12.0225C17.5678 11.1366 17.4891 9.35815 17.85 9.15471C18.06 9.03002 18.7031 9.3844 18.9131 9.52221C18.6425 10.1457 18.4848 10.8123 18.4472 11.491C18.4523 11.7451 18.4943 11.9971 18.5719 12.2391H18.2634C18.1932 12.1732 18.1294 12.1007 18.0731 12.0225ZM17.4169 13.5516H24.6356L23.5463 18.9H18.4538L17.4169 13.5516ZM5.90625 20.4488C5.90534 20.4175 5.91083 20.3864 5.92239 20.3573C5.93394 20.3282 5.95131 20.3018 5.97343 20.2797C5.99555 20.2576 6.02196 20.2402 6.05103 20.2287C6.0801 20.2171 6.11123 20.2116 6.1425 20.2125H35.8575C35.8888 20.2116 35.9199 20.2171 35.949 20.2287C35.978 20.2402 36.0044 20.2576 36.0266 20.2797C36.0487 20.3018 36.0661 20.3282 36.0776 20.3573C36.0892 20.3864 36.0947 20.4175 36.0938 20.4488V22.5094H5.90625V20.4488ZM7.48781 32.1563C7.14 32.8978 6.9825 33.1341 6.68063 33.1341C6.57611 33.1342 6.47266 33.1131 6.3765 33.0722C6.28035 33.0312 6.19348 32.9712 6.12112 32.8958C6.04877 32.8204 5.99243 32.7311 5.9555 32.6333C5.91858 32.5356 5.90182 32.4313 5.90625 32.3269V29.4131H8.75437L7.48781 32.1563ZM35.3194 33.1341C35.0175 33.1341 34.86 32.8978 34.5122 32.1563L33.2456 29.4394H36.0938V32.3531C36.0886 32.5551 36.0048 32.747 35.8601 32.888C35.7154 33.029 35.5214 33.1079 35.3194 33.1078V33.1341Z" fill="#A19289"></path>
    <path d="M14.3982 25.259H10.1917C10.0176 25.259 9.85068 25.3282 9.72761 25.4512C9.60454 25.5743 9.5354 25.7412 9.5354 25.9153C9.5354 26.0893 9.60454 26.2562 9.72761 26.3793C9.85068 26.5024 10.0176 26.5715 10.1917 26.5715H14.3982C14.5723 26.5715 14.7392 26.5024 14.8623 26.3793C14.9853 26.2562 15.0545 26.0893 15.0545 25.9153C15.0545 25.7412 14.9853 25.5743 14.8623 25.4512C14.7392 25.3282 14.5723 25.259 14.3982 25.259Z" fill="#A19289"></path>
    <path d="M31.8084 25.259H27.6018C27.4278 25.259 27.2608 25.3282 27.1378 25.4512C27.0147 25.5743 26.9456 25.7412 26.9456 25.9153C26.9456 26.0893 27.0147 26.2562 27.1378 26.3793C27.2608 26.5024 27.4278 26.5715 27.6018 26.5715H31.8084C31.9824 26.5715 32.1493 26.5024 32.2724 26.3793C32.3955 26.2562 32.4646 26.0893 32.4646 25.9153C32.4646 25.7412 32.3955 25.5743 32.2724 25.4512C32.1493 25.3282 31.9824 25.259 31.8084 25.259Z" fill="#A19289"></path>
  </symbol>
  <symbol fill="none" xmlns="http://www.w3.org/2000/svg" viewBox="0 0 42 42" id="category11">
    <rect width="42" height="42" fill="white"></rect>
    <path d="M9.88306 20.895C10.3361 20.895 10.7034 20.5278 10.7034 20.0747C10.7034 19.6217 10.3361 19.2544 9.88306 19.2544C9.43001 19.2544 9.06274 19.6217 9.06274 20.0747C9.06274 20.5278 9.43001 20.895 9.88306 20.895Z" fill="#A19289"></path>
    <path d="M9.88306 17.8762C10.3361 17.8762 10.7034 17.509 10.7034 17.0559C10.7034 16.6029 10.3361 16.2356 9.88306 16.2356C9.43001 16.2356 9.06274 16.6029 9.06274 17.0559C9.06274 17.509 9.43001 17.8762 9.88306 17.8762Z" fill="#A19289"></path>
    <path d="M9.88306 14.8575C10.3361 14.8575 10.7034 14.4903 10.7034 14.0372C10.7034 13.5842 10.3361 13.2169 9.88306 13.2169C9.43001 13.2169 9.06274 13.5842 9.06274 14.0372C9.06274 14.4903 9.43001 14.8575 9.88306 14.8575Z" fill="#A19289"></path>
    <path d="M35.5753 25.5413H34.9978C35.2045 25.3893 35.3786 25.1974 35.5097 24.9769C35.7519 24.5555 35.8179 24.0555 35.6934 23.5857L31.9987 9.80443L31.5656 8.20974C31.5061 7.97593 31.4007 7.75625 31.2557 7.56342C31.1107 7.3706 30.9288 7.20846 30.7207 7.08639C30.5126 6.96432 30.2823 6.88475 30.0432 6.85229C29.8041 6.81982 29.561 6.8351 29.3278 6.89724L25.7381 7.87506C25.6018 7.91383 25.4698 7.96661 25.3444 8.03256C25.1768 7.79707 24.9554 7.6051 24.6985 7.47267C24.4416 7.34023 24.1568 7.27119 23.8678 7.27131H20.1534C19.7226 7.2703 19.3058 7.424 18.9788 7.70443C18.6505 7.42601 18.2345 7.2726 17.8041 7.27131H14.0897C13.6593 7.2726 13.2432 7.42601 12.915 7.70443C12.588 7.424 12.1711 7.2703 11.7403 7.27131H8.02594C7.54148 7.27304 7.07746 7.46671 6.73551 7.80989C6.39356 8.15307 6.20156 8.61778 6.20156 9.10224V25.0229C6.20326 25.2033 6.23202 25.3825 6.28688 25.5544C5.82838 25.5875 5.39926 25.7924 5.08535 26.1282C4.77144 26.4641 4.59587 26.906 4.59375 27.3657V29.5313C4.59549 30.0158 4.78915 30.4798 5.13233 30.8217C5.47551 31.1637 5.94023 31.3557 6.42469 31.3557H7.2975V33.4163C7.29924 33.8799 7.48461 34.3239 7.81302 34.6511C8.14143 34.9782 8.58611 35.1619 9.04969 35.1619C10.0472 35.1619 10.4409 34.3154 10.7297 33.6919L11.8125 31.3557H30.1875L31.3031 33.751C31.5656 34.3154 31.9594 35.1619 32.9569 35.1619C33.4205 35.1619 33.8651 34.9782 34.1935 34.6511C34.522 34.3239 34.7073 33.8799 34.7091 33.4163V31.3557H35.5819C36.0652 31.354 36.5282 31.1612 36.87 30.8194C37.2118 30.4777 37.4045 30.0146 37.4062 29.5313V27.3657C37.4045 26.8812 37.2108 26.4172 36.8677 26.0753C36.5245 25.7333 36.0598 25.5413 35.5753 25.5413ZM33.8297 21.6891L29.2359 22.9229L26.3091 11.9963L30.9028 10.7691L33.8297 21.6891ZM34.4269 23.9269C34.4487 23.9941 34.4565 24.0651 34.4496 24.1354C34.4427 24.2057 34.4213 24.2738 34.3868 24.3355C34.3522 24.3971 34.3053 24.451 34.249 24.4936C34.1926 24.5362 34.1281 24.5667 34.0594 24.5832L30.4697 25.5479C30.4025 25.5708 30.3313 25.5793 30.2607 25.5729C30.19 25.5664 30.1215 25.5452 30.0596 25.5105C29.9977 25.4759 29.9438 25.4285 29.9013 25.3717C29.8589 25.3148 29.829 25.2496 29.8134 25.1804L29.5509 24.2157L34.1447 22.9885L34.4269 23.9269ZM24.3797 22.7063H19.635V11.3991H24.3797V22.7063ZM18.3225 22.7063H13.5712V11.3991H18.3225V22.7063ZM12.2587 22.7063H7.51406V11.3991H12.2587V22.7063ZM7.51406 25.0229V24.0188H12.2587V25.0229C12.2596 25.0912 12.2468 25.159 12.2211 25.2223C12.1953 25.2856 12.1572 25.3431 12.1089 25.3914C12.0606 25.4397 12.003 25.4779 11.9397 25.5036C11.8765 25.5294 11.8086 25.5422 11.7403 25.5413H8.02594C7.95816 25.5413 7.89106 25.5279 7.82852 25.5017C7.76599 25.4756 7.70927 25.4373 7.66165 25.3891C7.61403 25.3408 7.57646 25.2836 7.55113 25.2208C7.52579 25.1579 7.51319 25.0906 7.51406 25.0229ZM13.5712 25.0229V24.0188H18.3225V25.0229C18.3225 25.1604 18.2679 25.2922 18.1707 25.3895C18.0734 25.4867 17.9416 25.5413 17.8041 25.5413H14.0897C13.9522 25.5413 13.8203 25.4867 13.7231 25.3895C13.6259 25.2922 13.5712 25.1604 13.5712 25.0229ZM19.635 25.0229V24.0188H24.3797V25.0229C24.3806 25.0906 24.368 25.1579 24.3426 25.2208C24.3173 25.2836 24.2797 25.3408 24.2321 25.3891C24.1845 25.4373 24.1278 25.4756 24.0652 25.5017C24.0027 25.5279 23.9356 25.5413 23.8678 25.5413H20.1534C20.0851 25.5422 20.0173 25.5294 19.954 25.5036C19.8907 25.4779 19.8332 25.4397 19.7849 25.3914C19.7366 25.3431 19.6984 25.2856 19.6727 25.2223C19.6469 25.159 19.6341 25.0912 19.635 25.0229ZM25.6922 25.0229V14.7657L28.14 23.8941L28.5731 25.4954C28.571 25.5106 28.571 25.5261 28.5731 25.5413H25.5938C25.6497 25.3737 25.6828 25.1993 25.6922 25.0229ZM26.0794 9.12849L29.6691 8.17037C29.7358 8.14842 29.8063 8.14044 29.8763 8.14693C29.9463 8.15342 30.0141 8.17424 30.0757 8.2081C30.1373 8.24196 30.1912 8.28813 30.2341 8.34373C30.2771 8.39934 30.3081 8.46319 30.3253 8.53131L30.5878 9.49599L25.9941 10.7297L25.7316 9.76506C25.6948 9.63454 25.7106 9.49481 25.7756 9.37582C25.8406 9.25682 25.9497 9.16804 26.0794 9.12849ZM20.1731 8.57068H23.8875C23.9555 8.56978 24.023 8.58261 24.086 8.60843C24.1489 8.63425 24.206 8.67251 24.2538 8.72092C24.3016 8.76934 24.3391 8.8269 24.3642 8.89017C24.3892 8.95344 24.4011 9.02111 24.3994 9.08912V10.0866H19.635V9.08912C19.635 8.95162 19.6896 8.81975 19.7868 8.72253C19.8841 8.6253 20.0159 8.57068 20.1534 8.57068H20.1731ZM14.1094 8.57068H17.8237C17.8921 8.5698 17.9599 8.58261 18.0232 8.60835C18.0865 8.63409 18.144 8.67225 18.1923 8.72056C18.2406 8.76888 18.2788 8.82639 18.3045 8.88968C18.3303 8.95298 18.3431 9.02079 18.3422 9.08912V10.0866H13.5712V9.08912C13.5712 8.95162 13.6259 8.81975 13.7231 8.72253C13.8203 8.6253 13.9522 8.57068 14.0897 8.57068H14.1094ZM8.04563 8.57068H11.76C11.8975 8.57068 12.0294 8.6253 12.1266 8.72253C12.2238 8.81975 12.2784 8.95162 12.2784 9.08912V10.0866H7.51406V9.08912C7.51229 9.02111 7.52427 8.95344 7.54928 8.89017C7.57429 8.8269 7.61182 8.76934 7.65962 8.72092C7.70742 8.67251 7.76451 8.63425 7.82745 8.60843C7.8904 8.58261 7.95791 8.56978 8.02594 8.57068H8.04563ZM9.51562 33.1997C9.27281 33.7182 9.17438 33.856 9.04969 33.856C8.99226 33.8569 8.93523 33.8463 8.88192 33.8249C8.82861 33.8036 8.78009 33.7718 8.73917 33.7315C8.69825 33.6912 8.66576 33.6431 8.64359 33.5902C8.62141 33.5372 8.60999 33.4803 8.61 33.4229V31.3557H10.3753L9.51562 33.1997ZM33.39 33.4163C33.39 33.4737 33.3786 33.5306 33.3564 33.5836C33.3342 33.6366 33.3017 33.6846 33.2608 33.7249C33.2199 33.7652 33.1714 33.797 33.1181 33.8184C33.0648 33.8397 33.0077 33.8503 32.9503 33.8494C32.8256 33.8494 32.7272 33.7182 32.4581 33.1407L31.6247 31.3557H33.39V33.4163ZM36.0938 29.5313C36.0938 29.5991 36.0803 29.6662 36.0542 29.7287C36.028 29.7913 35.9897 29.848 35.9415 29.8956C35.8933 29.9432 35.8361 29.9808 35.7732 30.0061C35.7104 30.0315 35.6431 30.0441 35.5753 30.0432H6.42469C6.35692 30.0441 6.28965 30.0315 6.22679 30.0061C6.16392 29.9808 6.10672 29.9432 6.05849 29.8956C6.01026 29.848 5.97197 29.7913 5.94583 29.7287C5.9197 29.6662 5.90624 29.5991 5.90625 29.5313V27.3657C5.90624 27.2979 5.9197 27.2308 5.94583 27.1683C5.97197 27.1057 6.01026 27.049 6.05849 27.0014C6.10672 26.9538 6.16392 26.9162 6.22679 26.8909C6.28965 26.8655 6.35692 26.8529 6.42469 26.8538H35.5753C35.6431 26.8529 35.7104 26.8655 35.7732 26.8909C35.8361 26.9162 35.8933 26.9538 35.9415 27.0014C35.9897 27.049 36.028 27.1057 36.0542 27.1683C36.0803 27.2308 36.0938 27.2979 36.0938 27.3657V29.5313Z" fill="#A19289"></path>
    <path d="M15.9468 20.895C16.3998 20.895 16.7671 20.5278 16.7671 20.0747C16.7671 19.6217 16.3998 19.2544 15.9468 19.2544C15.4937 19.2544 15.1265 19.6217 15.1265 20.0747C15.1265 20.5278 15.4937 20.895 15.9468 20.895Z" fill="#A19289"></path>
    <path d="M15.9468 17.8762C16.3998 17.8762 16.7671 17.509 16.7671 17.0559C16.7671 16.6029 16.3998 16.2356 15.9468 16.2356C15.4937 16.2356 15.1265 16.6029 15.1265 17.0559C15.1265 17.509 15.4937 17.8762 15.9468 17.8762Z" fill="#A19289"></path>
    <path d="M15.9468 14.8575C16.3998 14.8575 16.7671 14.4903 16.7671 14.0372C16.7671 13.5842 16.3998 13.2169 15.9468 13.2169C15.4937 13.2169 15.1265 13.5842 15.1265 14.0372C15.1265 14.4903 15.4937 14.8575 15.9468 14.8575Z" fill="#A19289"></path>
    <path d="M22.0107 20.895C22.4638 20.895 22.8311 20.5278 22.8311 20.0747C22.8311 19.6217 22.4638 19.2544 22.0107 19.2544C21.5577 19.2544 21.1904 19.6217 21.1904 20.0747C21.1904 20.5278 21.5577 20.895 22.0107 20.895Z" fill="#A19289"></path>
    <path d="M22.0107 17.8762C22.4638 17.8762 22.8311 17.509 22.8311 17.0559C22.8311 16.6029 22.4638 16.2356 22.0107 16.2356C21.5577 16.2356 21.1904 16.6029 21.1904 17.0559C21.1904 17.509 21.5577 17.8762 22.0107 17.8762Z" fill="#A19289"></path>
    <path d="M22.0107 14.8575C22.4638 14.8575 22.8311 14.4903 22.8311 14.0372C22.8311 13.5842 22.4638 13.2169 22.0107 13.2169C21.5577 13.2169 21.1904 13.5842 21.1904 14.0372C21.1904 14.4903 21.5577 14.8575 22.0107 14.8575Z" fill="#A19289"></path>
    <path d="M30.6404 18.9657C30.5361 18.9932 30.4383 19.0411 30.3525 19.1065C30.2667 19.1718 30.1947 19.2535 30.1404 19.3467C30.0862 19.44 30.0509 19.543 30.0364 19.6499C30.022 19.7568 30.0288 19.8654 30.0564 19.9697C30.0839 20.074 30.1318 20.1718 30.1972 20.2576C30.2625 20.3434 30.3442 20.4155 30.4374 20.4697C30.5307 20.5239 30.6337 20.5593 30.7406 20.5737C30.8474 20.5881 30.9561 20.5814 31.0604 20.5538C31.271 20.4981 31.4509 20.361 31.5604 20.1727C31.6699 19.9844 31.7002 19.7603 31.6445 19.5497C31.5888 19.3391 31.4517 19.1593 31.2634 19.0497C31.0751 18.9402 30.851 18.91 30.6404 18.9657Z" fill="#A19289"></path>
    <path d="M29.2753 17.0626C29.317 17.2193 29.4042 17.3601 29.5258 17.4673C29.6475 17.5745 29.7982 17.6432 29.9589 17.6648C30.1196 17.6864 30.2831 17.6599 30.4288 17.5886C30.5744 17.5173 30.6957 17.4044 30.7772 17.2643C30.8587 17.1241 30.8969 16.9629 30.8869 16.8011C30.8768 16.6392 30.8191 16.484 30.7209 16.355C30.6226 16.2259 30.4884 16.1289 30.3351 16.0761C30.1817 16.0234 30.0162 16.0172 29.8594 16.0585C29.755 16.0859 29.6571 16.1337 29.5713 16.1991C29.4854 16.2644 29.4133 16.3461 29.359 16.4393C29.3048 16.5326 29.2695 16.6357 29.2551 16.7426C29.2407 16.8495 29.2476 16.9583 29.2753 17.0626Z" fill="#A19289"></path>
    <path d="M28.4945 14.1422C28.5513 14.3517 28.6889 14.5302 28.8771 14.6384C29.0654 14.7467 29.2888 14.7759 29.4985 14.7197C29.6029 14.6922 29.7008 14.6445 29.7866 14.5791C29.8725 14.5137 29.9446 14.4321 29.9989 14.3388C30.0531 14.2456 30.0884 14.1425 30.1028 14.0356C30.1172 13.9286 30.1103 13.8199 30.0826 13.7156C30.0546 13.6113 30.0063 13.5136 29.9405 13.428C29.8747 13.3424 29.7927 13.2705 29.6992 13.2166C29.6057 13.1627 29.5024 13.1277 29.3953 13.1137C29.2883 13.0996 29.1795 13.1068 29.0752 13.1348C28.971 13.1628 28.8732 13.2111 28.7876 13.2769C28.702 13.3427 28.6301 13.4247 28.5762 13.5182C28.5223 13.6118 28.4873 13.715 28.4733 13.8221C28.4592 13.9291 28.4664 14.0379 28.4945 14.1422Z" fill="#A19289"></path>
  </symbol>
  <symbol fill="none" xmlns="http://www.w3.org/2000/svg" viewBox="0 0 42 42" id="category12">
    <rect width="42" height="42" fill="white"></rect>
    <path d="M7.3882 8C5.52425 8 4 9.52428 4 11.3882V13.6463C4 15.2453 5.12187 16.593 6.6175 16.9441C6.39048 17.2953 6.25806 17.7123 6.25806 18.1591V26.6268C6.25806 27.8673 7.27682 28.886 8.51723 28.886H9.64626V32.8409C9.64739 33.1509 9.89853 33.402 10.2086 33.4032H12.4677C12.7268 33.402 12.9518 33.2249 13.0135 32.9732L14.0356 28.886H28.96L29.9821 32.9732C30.0442 33.2264 30.2716 33.4041 30.5323 33.4032H32.7914C33.1015 33.402 33.3525 33.1509 33.3537 32.8409V28.886H34.4828C35.7232 28.886 36.7419 27.8673 36.7419 26.6268V18.1591C36.7419 17.7123 36.6095 17.2953 36.3825 16.9441C37.8781 16.593 39 15.2453 39 13.6463V11.3882C39 9.52428 37.4757 8 35.6118 8H7.3882ZM7.3882 9.12901H35.6118C36.8656 9.12901 37.871 10.1345 37.871 11.3882V13.6463C37.871 14.9 36.8656 15.9054 35.6118 15.9054H28.5576C28.2458 15.9042 27.992 16.156 27.9908 16.4678C27.9897 16.7812 28.2441 17.0357 28.5576 17.0344H34.4828C35.113 17.0344 35.6118 17.5288 35.6118 18.1591V24.9355H16.9309C16.6174 24.9342 16.363 25.1887 16.3642 25.5022C16.3654 25.8139 16.6192 26.0657 16.9309 26.0645H35.6118V26.6268C35.6118 27.2571 35.113 27.7558 34.4828 27.7558C25.8276 27.7558 17.1724 27.7558 8.51723 27.7558C7.88699 27.7558 7.3882 27.2571 7.3882 26.6268V18.1591C7.3882 17.5288 7.88699 17.0344 8.51723 17.0344C14.0205 17.0344 19.5238 17.0344 25.0271 17.0344C25.3406 17.0357 25.5951 16.7812 25.5938 16.4678C25.5927 16.156 25.3389 15.9042 25.0271 15.9054C19.1475 15.9054 13.2678 15.9054 7.3882 15.9054C6.13442 15.9054 5.12903 14.9 5.12903 13.6463V11.3882C5.12903 10.1345 6.13442 9.12902 7.3882 9.12901ZM7.95051 10.2581C7.02187 10.2581 6.25806 11.0219 6.25806 11.9505V13.0795C6.25806 14.0081 7.02187 14.7753 7.95051 14.7753H9.64626C9.95804 14.774 10.2098 14.5203 10.2086 14.2086C10.2074 13.8985 9.95632 13.6475 9.64626 13.6463H7.95051C7.63206 13.6463 7.3882 13.398 7.3882 13.0795V11.9505C7.3882 11.632 7.63206 11.3882 7.95051 11.3882C8.26445 11.3894 8.51907 11.1343 8.51723 10.8203C8.5161 10.5086 8.26228 10.2568 7.95051 10.2581ZM30.5323 10.2581C30.2205 10.2568 29.9668 10.5086 29.9655 10.8203C29.9638 11.1343 30.2183 11.3894 30.5323 11.3882H31.0946C31.4085 11.3894 31.6631 11.1343 31.6613 10.8203C31.6602 10.5086 31.4063 10.2568 31.0946 10.2581H30.5323ZM33.3537 10.2581C33.0437 10.2592 32.7926 10.5103 32.7914 10.8203C32.7897 11.1326 33.0415 11.387 33.3537 11.3882H35.0495C35.3679 11.3882 35.6118 11.632 35.6118 11.9505V13.0795C35.6118 13.398 35.3679 13.6463 35.0495 13.6463C34.7377 13.645 34.484 13.8968 34.4828 14.2086C34.4816 14.522 34.736 14.7765 35.0495 14.7753C35.9781 14.7753 36.7419 14.0081 36.7419 13.0795V11.9505C36.7419 11.0219 35.9781 10.2581 35.0495 10.2581H33.3537ZM11.901 13.6463C11.591 13.6475 11.3399 13.8985 11.3387 14.2086C11.3376 14.5203 11.5892 14.7741 11.901 14.7753H12.4677C12.7795 14.774 13.0313 14.5203 13.0301 14.2086C13.0289 13.8985 12.7778 13.6475 12.4677 13.6463H11.901ZM10.2086 24.9355C9.8968 24.9367 9.64504 25.1904 9.64626 25.5022C9.64739 25.8122 9.89852 26.0633 10.2086 26.0645H14.1591C14.4709 26.0658 14.7246 25.8139 14.7258 25.5022C14.7269 25.1887 14.4726 24.9342 14.1591 24.9355H10.2086ZM10.7753 28.886H12.8713L12.0256 32.2742H10.7753V28.886ZM30.1243 28.886H32.2247V32.2742H30.9744L30.1243 28.886Z" fill="#A19289"></path>
  </symbol>
  <symbol fill="none" xmlns="http://www.w3.org/2000/svg" viewBox="0 0 42 42" id="category13">
    <rect width="42" height="42" fill="white"></rect>
    <path d="M11.9187 4L11.7437 4.45937L6.1437 19.8594L5.7937 20.8H17.6062C17.0511 21.3715 16.6 22.159 16.6 23.1844C16.6 25.3117 17.4011 26.6406 18.0875 27.975C18.7109 29.1863 19.2769 30.4688 19.3781 32.7H15.9C15.1343 32.7 14.5 33.3344 14.5 34.1V34.8H12.4C11.6343 34.8 11 35.4344 11 36.2V39H32V36.2C32 35.4344 31.3656 34.8 30.6 34.8H28.5V34.1C28.5 33.3344 27.8656 32.7 27.1 32.7H23.6218C23.723 30.4688 24.289 29.1863 24.9125 27.975C25.5988 26.6406 26.4 25.3117 26.4 23.1844C26.4 22.159 25.9488 21.3715 25.3937 20.8H37.2062L36.8562 19.8594L31.2562 4.45937L31.0812 4H11.9187ZM12.8812 5.4H30.1187L35.1937 19.4H20.275C20.2011 19.3891 20.13 19.3891 20.0562 19.4H7.8062L12.8812 5.4ZM20.2312 20.8H22.7687C22.8617 20.8273 23.3648 20.9723 23.9062 21.3469C24.4996 21.757 25 22.3094 25 23.1844C25 24.9781 24.4011 25.9543 23.6875 27.3406C23.0339 28.6121 22.3339 30.1953 22.2218 32.7H20.7781C20.666 30.1953 19.966 28.6121 19.3125 27.3406C18.5988 25.9543 18 24.9781 18 23.1844C18 22.3094 18.5003 21.757 19.0937 21.3469C19.6351 20.9723 20.1382 20.8273 20.2312 20.8ZM15.9 34.1H27.1V34.8H15.9V34.1ZM12.4 36.2H30.6V37.6H12.4V36.2Z" fill="#A19289"></path>
  </symbol>
  <symbol fill="none" xmlns="http://www.w3.org/2000/svg" viewBox="0 0 42 42" id="category14">
    <rect width="42" height="42" fill="white"></rect>
    <path d="M29.8304 25.2751C29.9215 24.8573 30.1059 24.4654 30.37 24.129C31.1107 23.185 31.7834 22.1896 32.3831 21.1503C32.9833 20.1113 33.509 19.031 33.9562 17.9176C34.2319 17.2299 34.7665 16.6778 35.445 16.3801C35.8154 16.2179 36.1355 15.9312 36.3364 15.5388C36.7611 14.7089 36.4805 13.675 35.6947 13.1734C35.3548 12.9551 34.9518 12.8564 34.5495 12.8929C33.8822 12.9531 33.2135 12.8032 32.6568 12.4305C31.0019 11.3233 29.3108 10.2712 27.5863 9.27601C25.8621 8.28012 24.1055 7.34165 22.3192 6.46215C21.7181 6.16635 21.254 5.66213 20.9724 5.05418C20.8028 4.6876 20.5158 4.388 20.1569 4.20273C19.3295 3.77306 18.2939 4.04694 17.7875 4.82967C17.5481 5.19988 17.46 5.62044 17.5046 6.02237C17.586 6.7588 17.3752 7.49776 16.9175 8.08039C16.3641 8.78561 15.8485 9.51974 15.373 10.2797" stroke="#A19289" stroke-width="1.5" stroke-miterlimit="10" stroke-linecap="round" stroke-linejoin="round"></path>
    <path d="M28.5731 25.2739C28.5859 25.2011 28.5942 25.1276 28.5979 25.0538C28.6202 24.6135 28.4862 24.2052 28.2466 23.8795C27.8079 23.2824 27.621 22.537 27.726 21.8036C27.8955 20.6157 27.9804 19.4173 27.9801 18.2174C27.9801 16.9998 27.8933 15.8025 27.726 14.6312C27.621 13.8978 27.8079 13.1524 28.2466 12.5553C28.4863 12.2296 28.6202 11.8213 28.598 11.381C28.5508 10.4499 27.7909 9.69486 26.8595 9.65339C26.456 9.63435 26.0577 9.75035 25.7275 9.98304C25.1797 10.3687 24.5257 10.5733 23.8572 10.529C21.8704 10.3975 19.8798 10.3319 17.8887 10.3323C15.8629 10.3323 13.8704 10.3994 11.9203 10.529C11.2518 10.5733 10.5978 10.3687 10.05 9.98304C9.71981 9.75038 9.32149 9.63439 8.918 9.65339C7.98666 9.69493 7.22669 10.4499 7.17959 11.381C7.15733 11.8214 7.29128 12.2296 7.53094 12.5554C7.96963 13.1525 8.15656 13.8978 8.05153 14.6313C7.88206 15.8191 7.79715 17.0176 7.79743 18.2175C7.79743 19.4351 7.88422 20.6324 8.05153 21.8037C8.15656 22.5372 7.96963 23.2825 7.53094 23.8796C7.29128 24.2054 7.15733 24.6136 7.17959 25.054C7.18457 25.1519 7.19738 25.2479 7.21751 25.3414M21.5 25.3412H8.55285C6.03839 25.3412 4 27.3796 4 29.894C4 32.4085 6.03839 34.4469 8.55285 34.4469H32.1707C33.428 34.4469 34.4472 33.4277 34.4472 32.1705C34.4472 30.9132 33.428 29.894 32.1707 29.894H10.3986" stroke="#A19289" stroke-width="1.5" stroke-miterlimit="10" stroke-linecap="round" stroke-linejoin="round"></path>
    <path d="M14.3054 34.447H6.27642C5.0192 34.447 4 35.4662 4 36.7234C4 37.9806 5.0192 38.9998 6.27642 38.9998H32.1707C35.9424 38.9998 39 35.9422 39 32.1705C39 28.3989 35.9424 25.3413 32.1707 25.3413H21.5" stroke="#A19289" stroke-width="1.5" stroke-miterlimit="10" stroke-linecap="round" stroke-linejoin="round"></path>
  </symbol>
  <symbol fill="none" xmlns="http://www.w3.org/2000/svg" viewBox="0 0 42 42" id="category15">
    <rect width="42" height="42" fill="white"></rect>
    <g clip-path="url(#clip0_164_2265)">
      <path d="M10.4165 38.4166H13.9165C14.5611 38.4166 15.0832 37.8945 15.0832 37.25V33.1666" stroke="#A19289" stroke-width="1.5" stroke-miterlimit="10"></path>
      <path d="M12.7498 33.1666H15.6665C15.9885 33.1666 16.2498 32.9053 16.2498 32.5833V31.4166C16.2498 31.0946 15.9885 30.8333 15.6665 30.8333H7.49984C7.17784 30.8333 6.9165 31.0946 6.9165 31.4166V32.5833C6.9165 32.9053 7.17784 33.1666 7.49984 33.1666H8.08317V37.2499C8.08317 37.8333 8.6035 38.3734 9.24984 38.4166H11.001" stroke="#A19289" stroke-width="1.5" stroke-miterlimit="10"></path>
      <path d="M10.4165 29.0833V27.9166" stroke="#A19289" stroke-width="1.5" stroke-miterlimit="10"></path>
      <path d="M12.75 30.8333C12.75 29.1329 13.3333 26.1666 16.8333 26.1666C16.8333 26.1666 15.0833 29.0833 15.0833 30.8333" stroke="#A19289" stroke-width="1.5" stroke-miterlimit="10"></path>
      <path d="M13.9165 27.293C13.9165 23.177 10.4165 20.9166 10.4165 20.9166V25.5833" stroke="#A19289" stroke-width="1.5" stroke-miterlimit="10"></path>
      <path d="M9.00667 27.0492C8.39767 26.5184 7.53842 26.1666 6.33325 26.1666C6.33325 26.1666 8.08325 29.0833 8.08325 30.8333" stroke="#A19289" stroke-width="1.5" stroke-miterlimit="10"></path>
      <path d="M11.5832 33.1666H10.4165" stroke="#A19289" stroke-width="1.5" stroke-miterlimit="10"></path>
      <path d="M17.4165 34.9166V37.25C17.4165 37.8945 17.9386 38.4166 18.5832 38.4166H24.9987" stroke="#A19289" stroke-width="1.5" stroke-miterlimit="10"></path>
      <path d="M26.7499 31.4166V25.5833C26.7499 24.9387 26.2278 24.4166 25.5833 24.4166H18.5833" stroke="#A19289" stroke-width="1.5" stroke-miterlimit="10"></path>
      <path d="M24.4165 27.3333V31.9999" stroke="#A19289" stroke-width="1.5" stroke-miterlimit="10"></path>
      <path d="M24.4165 33.1666V34.3333" stroke="#A19289" stroke-width="1.5" stroke-miterlimit="10"></path>
      <path d="M22.0832 24.4166C22.0832 20.9166 17.073 17.584 17.073 17.584" stroke="#A19289" stroke-width="1.5" stroke-miterlimit="10"></path>
      <path d="M20.3333 18C20.3333 19.6105 19.0272 20.9166 17.4166 20.9166C14.4999 20.9166 13.3333 16.6939 13.3333 15.0833C13.3333 15.0833 13.3333 13.9166 14.4999 13.9166C18.5833 13.9166 20.3333 16.3894 20.3333 18Z" stroke="#A19289" stroke-width="1.5" stroke-miterlimit="10"></path>
      <path d="M22.0833 24.4166C22.0833 21.4999 25.7775 18.8813 25.7775 18.8813" stroke="#A19289" stroke-width="1.5" stroke-miterlimit="10"></path>
      <path d="M22.6665 19.1666C22.6665 20.7772 23.9726 22.0833 25.5832 22.0833C28.4998 22.0833 29.6665 17.8605 29.6665 16.2499C29.6665 16.2499 29.6665 15.0833 28.4998 15.0833C24.4165 15.0833 22.6665 17.556 22.6665 19.1666Z" stroke="#A19289" stroke-width="1.5" stroke-miterlimit="10"></path>
      <path d="M22.0833 15.6666V10.4166" stroke="#A19289" stroke-width="1.5" stroke-miterlimit="10"></path>
      <path d="M24.9998 11C24.9998 12.6105 23.6938 13.9166 22.0832 13.9166C20.4726 13.9166 19.1665 12.6105 19.1665 11C19.1665 9.38938 20.4726 5.16663 22.0832 5.16663C23.6938 5.16663 24.9998 9.38938 24.9998 11Z" stroke="#A19289" stroke-width="1.5" stroke-miterlimit="10"></path>
      <path d="M28.5471 15.0909C28.8213 13.4319 30.2627 12.1666 31.9999 12.1666C33.933 12.1666 35.4999 13.7335 35.4999 15.6666C35.4999 17.5998 33.933 19.1666 31.9999 19.1666C30.9656 19.1666 30.0358 18.718 29.3953 18.0046" stroke="#A19289" stroke-width="1.5" stroke-miterlimit="10"></path>
      <path d="M32 12.1666V9.83325" stroke="#A19289" stroke-width="1.5" stroke-miterlimit="10"></path>
      <path d="M29.5255 13.1921L27.625 11.2916" stroke="#A19289" stroke-width="1.5" stroke-miterlimit="10"></path>
      <path d="M34.7439 13.506L36.995 11.2555" stroke="#A19289" stroke-width="1.5" stroke-miterlimit="10"></path>
      <path d="M35.5 15.6666H37.8333" stroke="#A19289" stroke-width="1.5" stroke-miterlimit="10"></path>
      <path d="M34.4744 18.1411L36.4297 20.0964" stroke="#A19289" stroke-width="1.5" stroke-miterlimit="10"></path>
      <path d="M32 19.1666V28.5" stroke="#A19289" stroke-width="1.5" stroke-miterlimit="10"></path>
      <path d="M27.3531 37.6828L29.6864 28.9328C29.7529 28.6838 29.9798 28.5 30.2499 28.5H33.7499C34.0194 28.5 34.2458 28.6826 34.3128 28.9305L36.6462 37.6805C36.6596 37.7295 36.6666 37.7803 36.6666 37.8333C36.6666 38.1553 36.4053 38.4167 36.0833 38.4167H27.9166C27.5946 38.4167 27.3333 38.1553 27.3333 37.8333C27.3333 37.7814 27.3403 37.7307 27.3531 37.6828Z" stroke="#A19289" stroke-width="1.5" stroke-miterlimit="10"></path>
      <path d="M32.873 33.9501L33.2639 36.5068" stroke="#A19289" stroke-width="1.5" stroke-miterlimit="10"></path>
      <path d="M32.4468 31.1617L32.6381 32.4147" stroke="#A19289" stroke-width="1.5" stroke-miterlimit="10"></path>
    </g>
    <defs>
      <clipPath id="clip0_164_2265">
        <rect width="35" height="35" fill="white" transform="translate(4 4)"></rect>
      </clipPath>
    </defs>
  </symbol>
  <symbol fill="none" xmlns="http://www.w3.org/2000/svg" viewBox="0 0 24 24" id="close">
    <path d="M17 7L7 17M7 7L17 17" stroke="black" stroke-width="2" stroke-linecap="round" stroke-linejoin="round"></path>
  </symbol>
  <symbol fill="none" xmlns="http://www.w3.org/2000/svg" viewBox="0 0 24 24" id="globe">
    <path d="M12 3C14.2512 5.46452 15.5305 8.66283 15.6 12C15.5305 15.3372 14.2512 18.5355 12 21M12 3C9.74885 5.46452 8.46952 8.66283 8.4 12C8.46952 15.3372 9.74885 18.5355 12 21M12 3C7.02944 3 3 7.02944 3 12C3 16.9706 7.02944 21 12 21M12 3C16.9706 3 21 7.02944 21 12C21 16.9706 16.9706 21 12 21M3.45002 9.3H20.55M3.45 14.7H20.55" stroke="white" stroke-width="2" stroke-linecap="round" stroke-linejoin="round"></path>
  </symbol>
  <symbol fill="none" xmlns="http://www.w3.org/2000/svg" viewBox="0 0 24 24" id="heart">
    <path fill-rule="evenodd" clip-rule="evenodd" d="M11.9938 5.91615C10.1944 3.81913 7.19377 3.25504 4.93923 5.17528C2.68468 7.09552 2.36727 10.3061 4.13778 12.5771C5.60984 14.4654 10.0648 18.4478 11.5249 19.7368C11.6882 19.881 11.7699 19.9531 11.8652 19.9815C11.9483 20.0062 12.0393 20.0062 12.1225 19.9815C12.2178 19.9531 12.2994 19.881 12.4628 19.7368C13.9229 18.4478 18.3778 14.4654 19.8499 12.5771C21.6204 10.3061 21.3417 7.07532 19.0484 5.17528C16.7551 3.27524 13.7933 3.81913 11.9938 5.91615Z" stroke="black" stroke-width="2" stroke-linecap="round" stroke-linejoin="round"></path>
  </symbol>
  <symbol fill="none" xmlns="http://www.w3.org/2000/svg" viewBox="0 0 204 30" id="logo">
    <path fill-rule="evenodd" clip-rule="evenodd" d="M153 7.77373C148.742 8.22185 146.431 10.292 145.599 13.7956C145.59 13.8304 145.583 13.8667 145.577 13.9042C145.449 14.6943 145.43 15.5327 145.599 16.3139C146.613 21.0219 150.465 22.1768 153 22.4453C153.67 22.5162 154.05 22.5548 154.724 22.5548C155.398 22.5548 155.778 22.5162 156.448 22.4453C160.199 22.0479 163.038 20.365 163.849 16.3139C163.982 15.6501 163.932 14.9587 163.883 14.2765L163.883 14.2763C163.874 14.1509 163.865 14.0257 163.857 13.9011C163.855 13.8649 163.852 13.8296 163.849 13.7956C163.545 10.4157 160.3 8.17917 156.448 7.77373C155.778 7.70324 155.398 7.66425 154.724 7.66425C154.05 7.66425 153.67 7.70324 153 7.77373ZM154.723 21.4333C155.29 21.4333 155.608 21.3839 156.171 21.3238C159.323 20.9872 161.708 19.5615 162.39 16.1298C162.501 15.5674 162.459 14.982 162.418 14.4043C162.41 14.2979 162.403 14.1917 162.396 14.0859C162.394 14.0552 162.392 14.0253 162.39 13.9965C162.134 11.1333 159.408 9.23872 156.171 8.89527C155.608 8.83555 155.29 8.78578 154.723 8.78578C154.156 8.78578 153.838 8.83555 153.275 8.89527C149.697 9.27487 147.755 11.0285 147.056 13.9965C147.05 14.026 147.044 14.0567 147.038 14.0885C146.931 14.758 146.915 15.4677 147.056 16.1298C147.908 20.118 151.145 21.0963 153.275 21.3238C153.838 21.3839 154.156 21.4333 154.723 21.4333Z" fill="black"></path>
    <path d="M167.702 22.2263V7.99271H169.122L177.436 20.6934L185.75 7.99271H187.169V22.2263H185.75V10.292L178.044 22.2263H176.827L169.02 10.1825V22.2263H167.702Z" fill="black"></path>
    <path d="M191.935 22.2263V7.99271H203.798V9.30658H193.456V14.1241H203.392V15.3285H193.456V20.9124H204V22.2263H191.935Z" fill="black"></path>
    <path d="M126.334 22.2263V7.99271H127.754V14.1241H140.529V7.99271H141.746V22.2263H140.529V15.219H127.754V22.2263H126.334Z" fill="black"></path>
    <path d="M96.0182 22.2263V7.99271H100.277L109.807 17.7372V7.99271H113.762V22.2263H109.605L99.9725 12.5913V22.2263H96.0182Z" fill="black"></path>
    <path d="M73.8134 22.2263V7.99271H78.1732L87.7041 17.7372V7.99271H91.5569V22.2263H87.2985L77.7677 12.5913V22.2263H73.8134Z" fill="black"></path>
    <path fill-rule="evenodd" clip-rule="evenodd" d="M52.217 22.2263L59.8214 7.99271H64.0798L71.5828 22.2263H67.2229L65.9049 19.3796H57.9963L56.4754 22.2263H52.217ZM61.9506 11.4964L59.3144 16.6423H64.4854L61.9506 11.4964Z" fill="black"></path>
    <path d="M27.9844 22.2263V7.88322H33.1553L38.9347 18.6132L44.9168 7.99271H49.9864V22.2263H46.1335V12.3723L40.7597 22.2263H37.1096L31.8373 12.3723V22.2263H27.9844Z" fill="black"></path>
    <path d="M0 29.9356V0L12.1022 9.07725L8.91111 12.7468L5.41892 10.1073V24.721L0 29.9356Z" fill="black"></path>
    <path fill-rule="evenodd" clip-rule="evenodd" d="M8.18858 15.9013L21.495 0.0643777V30L8.18858 25.1717V15.9013ZM17.9426 10.3648L10.8378 16.9957V23.3691L17.9426 24.5923V10.3648Z" fill="#FA0001"></path>
  </symbol>
  <symbol fill="none" xmlns="http://www.w3.org/2000/svg" viewBox="0 0 21 21" id="medal">
    <path d="M4.42589 11.3799L1 15.5666L4.16665 16.2L5.43331 20L8.76378 14.7154M16.574 11.3799L19.9999 15.5666L16.8333 16.2L15.5666 20L12.2361 14.7154" stroke="black" stroke-width="2" stroke-linecap="round" stroke-linejoin="round"></path>
    <path d="M3.5332 7.96665C3.5332 9.81432 4.26719 11.5863 5.57368 12.8928C6.88018 14.1993 8.65217 14.9333 10.4998 14.9333C12.3475 14.9333 14.1195 14.1993 15.426 12.8928C16.7325 11.5863 17.4665 9.81432 17.4665 7.96665C17.4665 6.11898 16.7325 4.34698 15.426 3.04048C14.1195 1.73398 12.3475 1 10.4998 1C8.65217 1 6.88018 1.73398 5.57368 3.04048C4.26719 4.34698 3.5332 6.11898 3.5332 7.96665Z" stroke="black" stroke-width="2" stroke-linecap="round" stroke-linejoin="round"></path>
    <path d="M10.9482 3.99116L12.0021 6.0668H13.7982C13.8971 6.06438 13.9944 6.09186 14.0774 6.14563C14.1604 6.1994 14.2253 6.27697 14.2635 6.36819C14.3017 6.45941 14.3115 6.56004 14.2917 6.65693C14.2718 6.75382 14.2231 6.84245 14.1521 6.91124L12.5029 8.53088L13.4165 10.6293C13.4574 10.7255 13.4669 10.832 13.4437 10.9339C13.4205 11.0357 13.3658 11.1277 13.2873 11.1966C13.2088 11.2655 13.1106 11.308 13.0066 11.3179C12.9026 11.3278 12.7981 11.3046 12.7081 11.2517L10.4998 10.0095L8.29163 11.2508C8.20155 11.3024 8.0976 11.3246 7.99431 11.3142C7.89102 11.3038 7.79355 11.2615 7.71551 11.193C7.63748 11.1245 7.58277 11.0334 7.55904 10.9324C7.53531 10.8313 7.54374 10.7254 7.58315 10.6293L8.49683 8.53088L6.84764 6.90786C6.77658 6.83907 6.72792 6.75044 6.70803 6.65355C6.68815 6.55667 6.69796 6.45603 6.73618 6.36481C6.7744 6.27359 6.83926 6.19602 6.92227 6.14225C7.00528 6.08848 7.10259 6.061 7.20146 6.06342H8.99759L10.0523 3.99116C10.0953 3.90967 10.1598 3.84147 10.2388 3.7939C10.3177 3.74633 10.4081 3.72119 10.5003 3.72119C10.5924 3.72119 10.6828 3.74633 10.7618 3.7939C10.8407 3.84147 10.9052 3.90967 10.9482 3.99116Z" stroke="black" stroke-width="2" stroke-linecap="round" stroke-linejoin="round"></path>
  </symbol>
  <symbol fill="none" xmlns="http://www.w3.org/2000/svg" viewBox="0 0 24 24" id="search">
    <path d="M21 21L15.0001 15M17 10C17 13.866 13.866 17 10 17C6.13401 17 3 13.866 3 10C3 6.13401 6.13401 3 10 3C13.866 3 17 6.13401 17 10Z" stroke="#8F8F8F" stroke-width="2" stroke-linecap="round" stroke-linejoin="round"></path>
  </symbol>
  <symbol fill="none" xmlns="http://www.w3.org/2000/svg" viewBox="0 0 22 16" id="sofa">
    <g clip-path="url(#clip0_526_7101)">
      <path d="M1 12V15" stroke="black" stroke-width="2" stroke-linecap="round" stroke-linejoin="round"></path>
      <path d="M3 5V3C3 1.89543 3.89543 1 5 1H17C18.1046 1 19 1.89543 19 3V5" stroke="black" stroke-width="2" stroke-linecap="round" stroke-linejoin="round"></path>
      <path d="M19 5C17.8954 5 17 5.89543 17 7V9H5V7C5 5.89543 4.10457 5 3 5C1.89543 5 1 5.89543 1 7V13H21V7C21 5.89543 20.1046 5 19 5Z" stroke="black" stroke-width="2" stroke-linecap="round" stroke-linejoin="round"></path>
      <path d="M21 12V15" stroke="black" stroke-width="2" stroke-linecap="round" stroke-linejoin="round"></path>
    </g>
    <defs>
      <clipPath id="clip0_526_7101">
        <rect width="22" height="16" fill="white"></rect>
      </clipPath>
    </defs>
  </symbol>
  <symbol fill="none" xmlns="http://www.w3.org/2000/svg" viewBox="0 0 22 22" id="tag">
    <path d="M7.06196 10.6079C7.2565 10.4119 7.25533 10.0953 7.05935 9.90078C6.86337 9.70624 6.54679 9.70741 6.35225 9.90339C6.15771 10.0994 6.15887 10.4159 6.35485 10.6105C6.55083 10.805 6.86741 10.8039 7.06196 10.6079Z" fill="black"></path>
    <path d="M14.1331 10.5818C14.3276 10.3858 14.3264 10.0693 14.1305 9.87472C13.9345 9.68018 13.6179 9.68134 13.4234 9.87732C13.2288 10.0733 13.23 10.3899 13.426 10.5844C13.6219 10.779 13.9385 10.7778 14.1331 10.5818Z" fill="black"></path>
    <path d="M3.56274 1.93726L2.85564 1.23015V1.23015L3.56274 1.93726ZM4.28343 1.29472L4.80593 2.14736L4.28343 1.29472ZM5.82548 1L5.82548 2L5.82548 1ZM4.86154 1.05526L4.62809 0.08289L4.86154 1.05526ZM1 5.82548H2H1ZM1.05526 4.86154L2.02763 5.09498L1.05526 4.86154ZM1.93726 3.56274L2.64437 4.26985V4.26985L1.93726 3.56274ZM1.29472 4.28343L2.14736 4.80593L1.29472 4.28343ZM13.927 20.6105L14.2361 21.5616V21.5616L13.927 20.6105ZM9.60588 18.6059L8.89878 19.313V19.313L9.60588 18.6059ZM12.0729 20.6105L11.7639 21.5616L12.0729 20.6105ZM18.6059 9.60588L17.8988 10.313V10.313L18.6059 9.60588ZM20.6105 12.0729L21.5616 11.7639V11.7639L20.6105 12.0729ZM20.6105 13.927L21.5616 14.2361V14.2361L20.6105 13.927ZM10.9373 1.93726L11.6444 1.23015V1.23015L10.9373 1.93726ZM10.2166 1.29472L10.7391 0.44208L10.2166 1.29472ZM8.67452 1L8.67452 7.15256e-07L8.67452 1ZM9.63846 1.05526L9.40502 2.02763L9.63846 1.05526ZM1.93726 10.9373L2.64436 10.2301V10.2301L1.93726 10.9373ZM1.29472 10.2166L0.442079 10.7391L1.29472 10.2166ZM1 8.67452H0H1ZM1.05526 9.63846L0.0828902 9.87191L1.05526 9.63846ZM9.25825 14.4889C9.26029 15.0412 9.70965 15.4872 10.2619 15.4852C10.8142 15.4832 11.2603 15.0338 11.2582 14.4815L10.2582 14.4852L9.25825 14.4889ZM11.227 5.99631C11.2249 5.44403 10.7756 4.99796 10.2233 5C9.67101 5.00204 9.22495 5.4514 9.22698 6.00368L10.227 5.99999L11.227 5.99631ZM7.05935 9.90078L7.76385 9.19107V9.19107L7.05935 9.90078ZM7.06196 10.6079L6.35225 9.90339V9.90339L7.06196 10.6079ZM6.35485 10.6105L7.05935 9.90078V9.90078L6.35485 10.6105ZM6.35225 9.90339L5.64254 9.19889V9.19889L6.35225 9.90339ZM14.1305 9.87472L14.835 9.16501V9.16501L14.1305 9.87472ZM14.1331 10.5818L13.4234 9.87732V9.87732L14.1331 10.5818ZM13.426 10.5844L14.1305 9.87472V9.87472L13.426 10.5844ZM13.4234 9.87732L12.7136 9.17283V9.17283L13.4234 9.87732ZM10.9373 1.93726L10.2301 2.64437L17.8988 10.313L18.6059 9.60588L19.313 8.89878L11.6444 1.23015L10.9373 1.93726ZM18.6059 16.3941L17.8988 15.687L15.687 17.8988L16.3941 18.6059L17.1012 19.313L19.313 17.1012L18.6059 16.3941ZM9.60588 18.6059L10.313 17.8988L2.64436 10.2301L1.93726 10.9373L1.23015 11.6444L8.89878 19.313L9.60588 18.6059ZM1 8.67452H2L2 5.82548H1H2.38419e-07L0 8.67452H1ZM1.93726 3.56274L2.64437 4.26985L4.26985 2.64436L3.56274 1.93726L2.85564 1.23015L1.23015 2.85563L1.93726 3.56274ZM5.82548 1L5.82548 2L8.67452 2L8.67452 1L8.67452 7.15256e-07L5.82548 0L5.82548 1ZM3.56274 1.93726L4.26985 2.64436C4.64941 2.2648 4.72848 2.19482 4.80593 2.14736L4.28343 1.29472L3.76093 0.442079C3.43471 0.641989 3.16788 0.917905 2.85564 1.23015L3.56274 1.93726ZM5.82548 1L5.82548 0C5.3839 -1.19209e-07 5.00012 -0.00642693 4.62809 0.08289L4.86154 1.05526L5.09498 2.02763C5.1833 2.00643 5.2887 2 5.82548 2L5.82548 1ZM4.28343 1.29472L4.80593 2.14736C4.8954 2.09253 4.99295 2.05213 5.09498 2.02763L4.86154 1.05526L4.62809 0.08289C4.32198 0.15638 4.02935 0.277593 3.76093 0.442079L4.28343 1.29472ZM1 5.82548H2C2 5.2887 2.00643 5.1833 2.02763 5.09498L1.05526 4.86154L0.0828906 4.62809C-0.00642633 5.00012 2.98023e-07 5.3839 2.38419e-07 5.82548H1ZM1.93726 3.56274L1.23015 2.85563C0.917905 3.16788 0.641989 3.43471 0.44208 3.76093L1.29472 4.28343L2.14736 4.80593C2.19482 4.72848 2.26481 4.64941 2.64437 4.26985L1.93726 3.56274ZM1.05526 4.86154L2.02763 5.09498C2.05213 4.99295 2.09253 4.8954 2.14736 4.80593L1.29472 4.28343L0.44208 3.76093C0.277594 4.02935 0.156381 4.32198 0.0828906 4.62809L1.05526 4.86154ZM16.3941 18.6059L15.687 17.8988C15.0813 18.5045 14.669 18.9157 14.3248 19.2079C13.9894 19.4926 13.785 19.6052 13.618 19.6595L13.927 20.6105L14.2361 21.5616C14.7541 21.3933 15.1892 21.0976 15.6191 20.7326C16.0401 20.3752 16.5189 19.8953 17.1012 19.313L16.3941 18.6059ZM9.60588 18.6059L8.89878 19.313C9.48113 19.8953 9.95988 20.3752 10.3809 20.7326C10.8108 21.0976 11.2459 21.3933 11.7639 21.5616L12.0729 20.6105L12.382 19.6595C12.215 19.6052 12.0106 19.4926 11.6752 19.2079C11.331 18.9157 10.9187 18.5045 10.313 17.8988L9.60588 18.6059ZM13.927 20.6105L13.618 19.6595C13.2163 19.79 12.7836 19.79 12.382 19.6595L12.0729 20.6105L11.7639 21.5616C12.5673 21.8226 13.4327 21.8226 14.2361 21.5616L13.927 20.6105ZM18.6059 9.60588L17.8988 10.313C18.5045 10.9187 18.9157 11.331 19.2079 11.6752C19.4926 12.0106 19.6052 12.215 19.6595 12.382L20.6105 12.0729L21.5616 11.7639C21.3933 11.2459 21.0976 10.8108 20.7326 10.3809C20.3752 9.95988 19.8953 9.48114 19.313 8.89878L18.6059 9.60588ZM18.6059 16.3941L19.313 17.1012C19.8953 16.5189 20.3752 16.0401 20.7326 15.6191C21.0976 15.1892 21.3933 14.7541 21.5616 14.2361L20.6105 13.927L19.6595 13.618C19.6052 13.785 19.4926 13.9894 19.2079 14.3248C18.9157 14.669 18.5045 15.0813 17.8988 15.687L18.6059 16.3941ZM20.6105 12.0729L19.6595 12.382C19.79 12.7836 19.79 13.2163 19.6595 13.618L20.6105 13.927L21.5616 14.2361C21.8226 13.4327 21.8226 12.5673 21.5616 11.7639L20.6105 12.0729ZM10.9373 1.93726L11.6444 1.23015C11.3321 0.917906 11.0653 0.64199 10.7391 0.44208L10.2166 1.29472L9.69407 2.14736C9.77151 2.19482 9.85059 2.26481 10.2301 2.64437L10.9373 1.93726ZM8.67452 1L8.67452 2C9.21129 2 9.3167 2.00643 9.40502 2.02763L9.63846 1.05526L9.87191 0.0828912C9.49988 -0.00642586 9.1161 8.34465e-07 8.67452 7.15256e-07L8.67452 1ZM10.2166 1.29472L10.7391 0.44208C10.4706 0.277595 10.178 0.156381 9.87191 0.0828912L9.63846 1.05526L9.40502 2.02763C9.50705 2.05213 9.6046 2.09253 9.69407 2.14736L10.2166 1.29472ZM1.93726 10.9373L2.64436 10.2301C2.2648 9.85059 2.19482 9.77151 2.14736 9.69407L1.29472 10.2166L0.442079 10.7391C0.641989 11.0653 0.917905 11.3321 1.23015 11.6444L1.93726 10.9373ZM1 8.67452H0C0 9.1161 -0.00642681 9.49988 0.0828902 9.87191L1.05526 9.63846L2.02763 9.40502C2.00643 9.3167 2 9.2113 2 8.67452H1ZM1.29472 10.2166L2.14736 9.69407C2.09253 9.6046 2.05213 9.50705 2.02763 9.40502L1.05526 9.63846L0.0828902 9.87191C0.15638 10.178 0.277594 10.4707 0.442079 10.7391L1.29472 10.2166ZM10.2582 14.4852L11.2582 14.4815L11.227 5.99631L10.227 5.99999L9.22698 6.00368L9.25825 14.4889L10.2582 14.4852ZM7.05935 9.90078L6.35485 10.6105C6.15887 10.4159 6.15771 10.0994 6.35225 9.90339L7.06196 10.6079L7.77166 11.3124C8.35529 10.7244 8.35179 9.7747 7.76385 9.19107L7.05935 9.90078ZM7.06196 10.6079L6.35225 9.90339C6.54679 9.70741 6.86337 9.70624 7.05935 9.90078L6.35485 10.6105L5.65036 11.3202C6.2383 11.9038 7.18804 11.9003 7.77166 11.3124L7.06196 10.6079ZM6.35485 10.6105L7.05935 9.90078C7.25533 10.0953 7.2565 10.4119 7.06196 10.6079L6.35225 9.90339L5.64254 9.19889C5.05892 9.78683 5.06242 10.7366 5.65036 11.3202L6.35485 10.6105ZM6.35225 9.90339L7.06196 10.6079C6.86742 10.8039 6.55084 10.805 6.35485 10.6105L7.05935 9.90078L7.76385 9.19107C7.1759 8.60745 6.22616 8.61095 5.64254 9.19889L6.35225 9.90339ZM14.1305 9.87472L13.426 10.5844C13.23 10.3899 13.2288 10.0733 13.4234 9.87732L14.1331 10.5818L14.8428 11.2863C15.4264 10.6984 15.4229 9.74863 14.835 9.16501L14.1305 9.87472ZM14.1331 10.5818L13.4234 9.87732C13.6179 9.68134 13.9345 9.68018 14.1305 9.87472L13.426 10.5844L12.7215 11.2941C13.3094 11.8778 14.2591 11.8743 14.8428 11.2863L14.1331 10.5818ZM13.426 10.5844L14.1305 9.87472C14.3264 10.0693 14.3276 10.3858 14.1331 10.5818L13.4234 9.87732L12.7136 9.17283C12.13 9.76077 12.1335 10.7105 12.7215 11.2941L13.426 10.5844ZM13.4234 9.87732L14.1331 10.5818C13.9385 10.7778 13.6219 10.779 13.426 10.5844L14.1305 9.87472L14.835 9.16501C14.247 8.58138 13.2973 8.58489 12.7136 9.17283L13.4234 9.87732Z" fill="black"></path>
  </symbol>
  <symbol fill="none" xmlns="http://www.w3.org/2000/svg" viewBox="0 0 24 24" id="user">
    <path d="M19 20C19 18.7595 19 18.1392 18.8493 17.6345C18.51 16.4982 17.6346 15.6089 16.516 15.2642C16.0192 15.1111 15.4086 15.1111 14.1875 15.1111H9.8125C8.59138 15.1111 7.98082 15.1111 7.484 15.2642C6.3654 15.6089 5.49004 16.4982 5.15071 17.6345C5 18.1392 5 18.7595 5 20M15.9375 8C15.9375 10.2091 14.1746 12 12 12C9.82538 12 8.0625 10.2091 8.0625 8C8.0625 5.79086 9.82538 4 12 4C14.1746 4 15.9375 5.79086 15.9375 8Z" stroke="black" stroke-width="2" stroke-linecap="round" stroke-linejoin="round"></path>
  </symbol>
  <symbol fill="none" xmlns="http://www.w3.org/2000/svg" viewBox="0 0 8 14" id="vector-right">
    <path d="M1 13L7 7L1 1" stroke="white" stroke-width="2" stroke-linecap="round" stroke-linejoin="round"></path>
  </symbol>
  <symbol fill="none" xmlns="http://www.w3.org/2000/svg" viewBox="0 0 24 24" id="arrow-left">
    <path d="M20 12H4M4 12L10 6M4 12L10 18" stroke="black" stroke-width="2" stroke-linecap="round" stroke-linejoin="round"></path>
  </symbol>
  <symbol fill="none" xmlns="http://www.w3.org/2000/svg" viewBox="0 0 24 24" id="arrow-right">
    <path d="M5 12H19M19 12L12 5M19 12L12 19" stroke="black" stroke-width="2" stroke-linecap="round" stroke-linejoin="round"></path>
  </symbol>
  <symbol fill="none" xmlns="http://www.w3.org/2000/svg" viewBox="0 0 24 24" id="bag">
    <path d="M15.5 11.1111V7.55556C15.5 5.59188 13.933 4 12 4C10.067 4 8.5 5.59188 8.5 7.55556V11.1111M5.875 9.33333H18.125L19 20H5L5.875 9.33333Z" stroke="black" stroke-width="2" stroke-linecap="round" stroke-linejoin="round"></path>
  </symbol>
  <symbol fill="none" xmlns="http://www.w3.org/2000/svg" viewBox="0 0 20 14" id="category">
    <path d="M1 7H19M1 1H19M1 13H13" stroke="black" stroke-width="2" stroke-linecap="round" stroke-linejoin="round"></path>
  </symbol>
  <symbol fill="none" xmlns="http://www.w3.org/2000/svg" viewBox="0 0 42 42" id="category01">
    <path d="M7.37619 9.23584C6.02088 9.23584 4.9286 10.3924 5.0082 11.7454C5.01006 11.7509 5.01129 11.7546 5.01317 11.7602L5.46911 17.5254C5.45752 17.5272 5.44558 17.5259 5.43406 17.5272C4.95801 17.6061 4.52329 17.7954 4.10373 17.9868C4.10001 17.9887 4.0956 17.9924 4.09166 17.9942C2.73203 18.7265 1.80469 20.1645 1.80469 21.8119C1.80469 22.2529 1.87794 22.6699 2.00786 23.0612C2.14765 23.5347 2.3717 23.9898 2.68633 24.4036C2.84293 24.6096 3.03623 24.7589 3.24023 24.8922C3.55351 25.1689 3.90264 25.4083 4.28152 25.5985C4.29942 27.0635 4.28152 28.4471 4.28152 29.8979C4.28152 30.4459 4.73973 30.9077 5.28773 30.9077H5.52114V32.1461C5.52238 32.4864 5.79762 32.763 6.13794 32.7641C6.48003 32.7655 6.75838 32.4882 6.75956 32.1461V30.9077H35.2407V32.1461C35.242 32.4882 35.5202 32.7655 35.8623 32.7641C36.2027 32.763 36.478 32.4864 36.4791 32.1461V30.9077H36.7077C37.2558 30.9077 37.7188 30.4459 37.7188 29.8979C37.7031 28.4383 37.7188 27.057 37.7188 25.5936C39.2675 24.8417 40.1109 23.4297 40.1953 21.4353C39.9635 18.9891 38.4808 17.9893 36.6023 17.5379C36.594 17.5365 36.5852 17.5369 36.577 17.5361L36.9869 11.7564C36.987 11.7545 36.987 11.7489 36.9869 11.7471C37.0665 10.3941 35.9791 9.2376 34.6238 9.2376L7.37619 9.23584ZM7.37619 10.4755H34.6238C35.2841 10.4755 35.7909 11.0136 35.7521 11.6727L35.3349 17.5129C34.2297 17.6159 33.1679 18.4263 32.4819 19.0537C28.7293 17.6219 24.8051 17.4147 20.9976 19.7539C16.9469 17.3468 13.0981 17.7523 9.50471 19.0718C8.82447 18.226 7.60417 17.718 6.70981 17.5202L6.24783 11.6727C6.20907 11.0136 6.71588 10.4755 7.37619 10.4755ZM10.4529 13.5691C10.2966 13.5747 10.1479 13.638 10.0368 13.7481C9.79428 13.99 9.79428 14.3829 10.0368 14.6248L10.217 14.8062L10.0368 14.9865C9.79348 15.2286 9.79348 15.6224 10.0368 15.8645C10.2784 16.1047 10.6685 16.1047 10.91 15.8645L11.0926 15.682L11.2753 15.8645C11.5168 16.1047 11.9069 16.1047 12.1484 15.8645C12.3918 15.6224 12.3918 15.2286 12.1484 14.9865L11.9682 14.8062L12.1484 14.6248C12.391 14.3829 12.391 13.99 12.1484 13.7481C12.0272 13.6281 11.8618 13.5631 11.6913 13.5691C11.535 13.5747 11.3864 13.638 11.2753 13.7481L11.0926 13.9305L10.91 13.7481C10.7888 13.6281 10.6234 13.5631 10.4529 13.5691ZM20.3626 13.5691C20.2046 13.5747 20.0541 13.637 19.9418 13.7481C19.6992 13.99 19.6992 14.3829 19.9418 14.6248L20.122 14.8062L19.9418 14.9865C19.6984 15.2286 19.6984 15.6224 19.9418 15.8645C20.1838 16.1079 20.5777 16.1079 20.8198 15.8645L21 15.6842L21.1802 15.8645C21.4223 16.1079 21.8161 16.1079 22.0582 15.8645C22.3016 15.6224 22.3016 15.2286 22.0582 14.9865L21.878 14.8062L22.0582 14.6248C22.3008 14.3829 22.3008 13.99 22.0582 13.7481C21.937 13.6281 21.7716 13.5631 21.601 13.5691C21.4431 13.5747 21.2925 13.637 21.1802 13.7481L21 13.9283L20.8198 13.7481C20.6986 13.6281 20.5332 13.5631 20.3626 13.5691ZM30.2675 13.5691C30.1112 13.5747 29.9626 13.638 29.8515 13.7481C29.6089 13.99 29.6089 14.3829 29.8515 14.6248L30.0317 14.8062L29.8515 14.9865C29.6081 15.2286 29.6081 15.6224 29.8515 15.8645C30.093 16.1047 30.4832 16.1047 30.7247 15.8645L30.9073 15.682L31.0899 15.8645C31.3315 16.1047 31.7216 16.1047 31.9631 15.8645C32.2065 15.6224 32.2065 15.2286 31.9631 14.9865L31.7829 14.8062L31.9631 14.6248C32.2057 14.3829 32.2057 13.99 31.9631 13.7481C31.8419 13.6281 31.6765 13.5631 31.506 13.5691C31.3496 13.5747 31.201 13.638 31.0899 13.7481L30.9073 13.9305L30.7247 13.7481C30.6035 13.6281 30.4381 13.5631 30.2675 13.5691ZM38.2944 23.6845C37.4004 24.8601 35.812 25.2381 34.4824 24.5951C34.1745 24.4461 33.8041 24.5741 33.6552 24.8829C33.5062 25.1908 33.6351 25.5613 33.943 25.7102C34.7535 26.1022 35.6342 26.1132 36.4767 25.9847L36.4793 27.1905H32.7641C32.7603 25.715 32.7523 24.1573 32.752 22.7109C32.7557 21.9465 32.8073 21.3697 32.908 20.9222C33.0466 19.5573 35.0231 18.4613 35.9217 18.6517C38.9107 18.8525 39.9556 21.9914 38.2944 23.6845ZM5.98175 18.7199C7.40061 18.7292 8.46078 19.3898 8.95203 20.5243C9.1409 21.0238 9.23624 21.726 9.23624 22.7931V22.808C9.23438 22.8354 9.23438 22.8627 9.23624 22.8902V27.1909H5.52099L5.52346 25.9476C6.3563 26.0683 7.22547 26.0648 8.02569 25.6779C8.33366 25.5291 8.46255 25.1586 8.31353 24.8507C8.16463 24.5427 7.79422 24.4138 7.4863 24.5629C6.15673 25.2059 4.5683 24.829 3.6743 23.6534C2.7875 22.4872 2.89276 20.854 3.87506 19.7362C4.08098 19.5019 4.31078 19.3153 4.55232 19.1593C4.97458 18.9066 5.45794 18.7457 5.98175 18.7199ZM26.9296 19.0997C28.565 19.0718 30.2081 19.4477 31.8724 20.0696C31.5953 20.7583 31.5264 21.5838 31.5229 22.2271H10.4613C10.4889 21.4892 10.3676 20.6922 10.1166 20.0998C13.5484 18.8641 16.909 18.5236 20.6686 20.9017C20.8751 21.0311 21.1383 21.0274 21.341 20.8923C23.21 19.6672 25.0653 19.1314 26.9296 19.0997ZM6.13656 20.9984C5.79646 20.9997 5.52109 21.2751 5.51977 21.6151C5.51853 21.9571 5.79457 22.2354 6.13656 22.2368C6.48043 22.2381 6.75953 21.959 6.75819 21.6151C6.75695 21.2732 6.47854 20.9971 6.13656 20.9984ZM35.8586 20.9984C35.5185 20.9997 35.2431 21.2751 35.2418 21.6151C35.2405 21.9571 35.5166 22.2354 35.8586 22.2368C36.2024 22.2381 36.4815 21.959 36.4802 21.6151C36.4789 21.2732 36.2005 20.9971 35.8586 20.9984ZM10.471 23.4656H31.512L31.523 27.1905H10.471V23.4656ZM12.3286 24.7136C11.9881 24.7143 11.712 24.9898 11.7106 25.3304C11.7094 25.6729 11.9862 25.9514 12.3286 25.952C12.6725 25.9534 12.9516 25.6743 12.9503 25.3304C12.949 24.9884 12.6706 24.7123 12.3286 24.7136ZM17.9015 24.7136C17.5609 24.7143 17.2848 24.9898 17.2835 25.3304C17.2823 25.6729 17.5591 25.9514 17.9015 25.952C18.2454 25.9534 18.5245 25.6743 18.5231 25.3304C18.5219 24.9884 18.2435 24.7123 17.9015 24.7136ZM24.0936 24.7136C23.7535 24.7149 23.4781 24.9903 23.4768 25.3304C23.4756 25.6724 23.7516 25.9507 24.0936 25.952C24.4375 25.9534 24.7166 25.6743 24.7152 25.3304C24.714 24.9884 24.4356 24.7123 24.0936 24.7136ZM29.6665 24.7136C29.3264 24.7149 29.051 24.9903 29.0497 25.3304C29.0484 25.6724 29.3245 25.9507 29.6665 25.952C30.0103 25.9534 30.2894 25.6743 30.2881 25.3304C30.2869 24.9884 30.0084 24.7123 29.6665 24.7136ZM5.52098 28.4301H9.85423H36.479V29.6685H5.52098V28.4301Z" fill="#A19289"></path>
  </symbol>
  <symbol fill="none" xmlns="http://www.w3.org/2000/svg" viewBox="0 0 42 42" id="category02">
    <rect width="42" height="42" fill="white"></rect>
    <path d="M35.2209 24.6225V22.7784V9.58781C35.2213 9.00445 35.0188 8.43913 34.648 7.98875C34.2773 7.53837 33.7614 7.23097 33.1889 7.11925C32.6163 7.00753 32.0227 7.09845 31.5098 7.37642C30.997 7.65439 30.5968 8.1021 30.3778 8.64281C29.0653 8.09156 26.0925 7.15968 21 7.15968C15.9075 7.15968 12.9347 8.09156 11.6222 8.64281C11.4032 8.1021 11.003 7.65439 10.4902 7.37642C9.97729 7.09845 9.38371 7.00753 8.81115 7.11925C8.23859 7.23097 7.72273 7.53837 7.35198 7.98875C6.98123 8.43913 6.77868 9.00445 6.77906 9.58781V22.7784V24.6225C6.1906 24.6479 5.6347 24.8997 5.22748 25.3252C4.82025 25.7508 4.5932 26.3172 4.59375 26.9062V33.1341C4.59375 33.611 4.7832 34.0683 5.12041 34.4055C5.28738 34.5725 5.4856 34.7049 5.70376 34.7953C5.92192 34.8857 6.15574 34.9322 6.39188 34.9322C7.42219 34.9322 7.83563 34.0528 8.13094 33.4097L9.28594 30.9422H32.7141L33.8953 33.4687C34.1644 34.0528 34.5516 34.9322 35.6081 34.9322C35.8448 34.9322 36.0792 34.8855 36.2978 34.7947C36.5163 34.7039 36.7149 34.5709 36.8819 34.4032C37.049 34.2355 37.1813 34.0365 37.2713 33.8176C37.3612 33.5987 37.4071 33.3642 37.4062 33.1275V26.9062C37.4068 26.3172 37.1797 25.7508 36.7725 25.3252C36.3653 24.8997 35.8094 24.6479 35.2209 24.6225ZM8.09156 24.6225V22.785C8.09156 22.469 8.15391 22.1562 8.27502 21.8643C8.39614 21.5725 8.57364 21.3074 8.79738 21.0843C9.02111 20.8612 9.28666 20.6844 9.57883 20.5641C9.87099 20.4437 10.184 20.3823 10.5 20.3831H31.5C32.1347 20.3849 32.743 20.6378 33.1918 21.0866C33.6407 21.5354 33.8936 22.1437 33.8953 22.7784V24.6159L8.09156 24.6225ZM11.1563 18.0141C11.1554 17.8248 11.1919 17.6372 11.2638 17.4621C11.3356 17.2869 11.4413 17.1277 11.5749 16.9936C11.7084 16.8594 11.8671 16.753 12.0419 16.6803C12.2167 16.6077 12.4042 16.5703 12.5934 16.5703H16.1438C16.5267 16.5703 16.8939 16.7224 17.1646 16.9932C17.4354 17.2639 17.5875 17.6312 17.5875 18.0141V19.0706H11.1563V18.0141ZM19.7466 17.6531H22.2797C22.5042 17.6531 22.7195 17.7423 22.8783 17.9011C23.0371 18.0598 23.1263 18.2752 23.1263 18.4997V19.0706H18.8869V18.4997C18.8869 18.2752 18.9761 18.0598 19.1348 17.9011C19.2936 17.7423 19.5089 17.6531 19.7334 17.6531H19.7466ZM24.4388 18.0141C24.4388 17.6312 24.5909 17.2639 24.8616 16.9932C25.1324 16.7224 25.4996 16.5703 25.8825 16.5703H29.4328C29.8105 16.5772 30.1704 16.7326 30.4344 17.0028C30.6985 17.273 30.8455 17.6363 30.8438 18.0141V19.0706H24.4125L24.4388 18.0141ZM32.7009 8.38687C32.8592 8.38601 33.0161 8.41643 33.1625 8.4764C33.309 8.53636 33.4422 8.62469 33.5544 8.73629C33.6666 8.84789 33.7556 8.98057 33.8164 9.12671C33.8772 9.27284 33.9084 9.42955 33.9084 9.58781V19.9566C33.4078 19.5321 32.8029 19.2489 32.1562 19.1362V18.0141C32.1574 17.3598 31.9246 16.7268 31.5 16.2291V9.58781C31.5 9.2693 31.6265 8.96384 31.8517 8.73862C32.077 8.5134 32.3824 8.38687 32.7009 8.38687ZM30.1875 9.98812V15.3825C29.9397 15.3007 29.6806 15.2586 29.4197 15.2578H25.8694C25.3752 15.2598 24.8908 15.395 24.467 15.6491C24.0431 15.9031 23.6956 16.2667 23.4609 16.7016C23.1063 16.4677 22.6913 16.3423 22.2666 16.3406H19.7334C19.3087 16.3423 18.8937 16.4677 18.5391 16.7016C18.3044 16.2667 17.9569 15.9031 17.533 15.6491C17.1092 15.395 16.6248 15.2598 16.1306 15.2578H12.5803C12.3194 15.2586 12.0603 15.3007 11.8125 15.3825V9.98812C12.7116 9.57468 15.5991 8.47218 21 8.47218C26.4009 8.47218 29.2884 9.57468 30.1875 9.98812ZM9.29906 8.38687C9.61757 8.38687 9.92304 8.5134 10.1483 8.73862C10.3735 8.96384 10.5 9.2693 10.5 9.58781V16.2291C10.0754 16.7268 9.84265 17.3598 9.84375 18.0141V19.1362C9.20173 19.2511 8.60165 19.5342 8.10469 19.9566V9.58781C8.10468 9.27043 8.23031 8.96596 8.45411 8.74093C8.67791 8.5159 8.98169 8.38861 9.29906 8.38687ZM36.0938 33.1275C36.0938 33.2563 36.0426 33.3798 35.9515 33.4709C35.8604 33.562 35.7369 33.6131 35.6081 33.6131C35.4506 33.6131 35.3522 33.4753 35.0569 32.8519L33.7444 30.0037C33.6917 29.8898 33.6074 29.7934 33.5015 29.726C33.3957 29.6585 33.2727 29.6228 33.1472 29.6231H8.86594C8.74042 29.6228 8.61744 29.6585 8.5116 29.726C8.40575 29.7934 8.32147 29.8898 8.26875 30.0037L6.91688 32.9044C6.64781 33.4753 6.54938 33.6131 6.39188 33.6131C6.26308 33.6131 6.13956 33.562 6.04849 33.4709C5.95741 33.3798 5.90625 33.2563 5.90625 33.1275V26.9062C5.90625 26.7787 5.93137 26.6524 5.98018 26.5346C6.02899 26.4167 6.10053 26.3097 6.19072 26.2195C6.28091 26.1293 6.38798 26.0577 6.50582 26.0089C6.62366 25.9601 6.74995 25.935 6.8775 25.935H35.0963C35.226 25.9315 35.3551 25.954 35.476 26.0013C35.5969 26.0485 35.7071 26.1195 35.8001 26.21C35.893 26.3006 35.9669 26.4088 36.0174 26.5284C36.0678 26.648 36.0938 26.7765 36.0938 26.9062V33.1275Z" fill="#A19289"></path>
    <path d="M23.9858 13.4859C24.4389 13.4859 24.8062 13.1187 24.8062 12.6656C24.8062 12.2126 24.4389 11.8453 23.9858 11.8453C23.5328 11.8453 23.1655 12.2126 23.1655 12.6656C23.1655 13.1187 23.5328 13.4859 23.9858 13.4859Z" fill="#A19289"></path>
    <path d="M21 13.4859C21.453 13.4859 21.8203 13.1187 21.8203 12.6656C21.8203 12.2126 21.453 11.8453 21 11.8453C20.547 11.8453 20.1797 12.2126 20.1797 12.6656C20.1797 13.1187 20.547 13.4859 21 13.4859Z" fill="#A19289"></path>
    <path d="M18.0142 13.4859C18.4672 13.4859 18.8345 13.1187 18.8345 12.6656C18.8345 12.2126 18.4672 11.8453 18.0142 11.8453C17.5611 11.8453 17.1938 12.2126 17.1938 12.6656C17.1938 13.1187 17.5611 13.4859 18.0142 13.4859Z" fill="#A19289"></path>
  </symbol>
  <symbol fill="none" xmlns="http://www.w3.org/2000/svg" viewBox="0 0 42 42" id="category03">
    <rect width="42" height="42" fill="white"></rect>
    <path d="M11.417 13.1619C11.2012 12.946 10.8513 12.946 10.6355 13.1619L10.2894 13.508L9.94334 13.1619C9.72753 12.946 9.3776 12.946 9.16186 13.1619C8.94605 13.3777 8.94605 13.7276 9.16186 13.9434L9.50796 14.2895L9.16186 14.6356C8.94605 14.8514 8.94605 15.2014 9.16186 15.4172C9.26973 15.525 9.41123 15.579 9.5526 15.579C9.69397 15.579 9.83547 15.5251 9.94334 15.4172L10.2894 15.0711L10.6355 15.4172C10.7434 15.525 10.8849 15.579 11.0263 15.579C11.1677 15.579 11.3092 15.5251 11.417 15.4172C11.6328 15.2014 11.6328 14.8514 11.417 14.6356L11.0709 14.2895L11.417 13.9434C11.6328 13.7276 11.6328 13.3777 11.417 13.1619Z" fill="#A19289"></path>
    <path d="M21.9959 14.6356L21.6498 14.2895L21.9959 13.9434C22.2117 13.7276 22.2117 13.3777 21.9959 13.1619C21.7801 12.946 21.4301 12.946 21.2144 13.1619L20.8683 13.508L20.5222 13.1619C20.3064 12.946 19.9565 12.946 19.7407 13.1619C19.5249 13.3777 19.5249 13.7276 19.7407 13.9434L20.0868 14.2895L19.7407 14.6356C19.5249 14.8514 19.5249 15.2014 19.7407 15.4172C19.8486 15.525 19.9901 15.579 20.1315 15.579C20.2728 15.579 20.4143 15.5251 20.5222 15.4172L20.8683 15.0711L21.2144 15.4172C21.3223 15.525 21.4638 15.579 21.6051 15.579C21.7465 15.579 21.888 15.5251 21.9959 15.4172C22.2118 15.2014 22.2118 14.8514 21.9959 14.6356Z" fill="#A19289"></path>
    <path d="M32.5747 14.6356L32.2286 14.2895L32.5747 13.9434C32.7906 13.7276 32.7906 13.3777 32.5747 13.1619C32.3589 12.946 32.009 12.946 31.7933 13.1619L31.4472 13.508L31.1011 13.1619C30.8852 12.946 30.5353 12.946 30.3196 13.1619C30.1038 13.3777 30.1038 13.7276 30.3196 13.9434L30.6657 14.2895L30.3196 14.6356C30.1038 14.8514 30.1038 15.2014 30.3196 15.4172C30.4274 15.525 30.5689 15.579 30.7103 15.579C30.8517 15.579 30.9932 15.5251 31.1011 15.4172L31.4472 15.0711L31.7933 15.4172C31.9011 15.525 32.0426 15.579 32.184 15.579C32.3254 15.579 32.4669 15.5251 32.5747 15.4172C32.7906 15.2014 32.7906 14.8514 32.5747 14.6356Z" fill="#A19289"></path>
    <path d="M11.417 21.1619C11.2012 20.946 10.8513 20.946 10.6355 21.1619L10.2894 21.508L9.94334 21.1619C9.72753 20.946 9.3776 20.946 9.16186 21.1619C8.94605 21.3777 8.94605 21.7276 9.16186 21.9434L9.50796 22.2895L9.16186 22.6356C8.94605 22.8514 8.94605 23.2014 9.16186 23.4172C9.26973 23.525 9.41123 23.579 9.5526 23.579C9.69397 23.579 9.83547 23.5251 9.94334 23.4172L10.2894 23.0711L10.6355 23.4172C10.7434 23.525 10.8849 23.579 11.0263 23.579C11.1677 23.579 11.3092 23.5251 11.417 23.4172C11.6328 23.2014 11.6328 22.8514 11.417 22.6356L11.0709 22.2895L11.417 21.9434C11.6328 21.7276 11.6328 21.3777 11.417 21.1619Z" fill="#A19289"></path>
    <path d="M21.9959 22.6356L21.6498 22.2895L21.9959 21.9434C22.2117 21.7276 22.2117 21.3777 21.9959 21.1619C21.7801 20.946 21.4301 20.946 21.2144 21.1619L20.8683 21.508L20.5222 21.1619C20.3064 20.946 19.9565 20.946 19.7407 21.1619C19.5249 21.3777 19.5249 21.7276 19.7407 21.9434L20.0868 22.2895L19.7407 22.6356C19.5249 22.8514 19.5249 23.2014 19.7407 23.4172C19.8486 23.525 19.9901 23.579 20.1315 23.579C20.2728 23.579 20.4143 23.5251 20.5222 23.4172L20.8683 23.0711L21.2144 23.4172C21.3223 23.525 21.4638 23.579 21.6051 23.579C21.7465 23.579 21.888 23.5251 21.9959 23.4172C22.2118 23.2014 22.2118 22.8514 21.9959 22.6356Z" fill="#A19289"></path>
    <path d="M32.5747 22.6356L32.2286 22.2895L32.5747 21.9434C32.7906 21.7276 32.7906 21.3777 32.5747 21.1619C32.3589 20.946 32.009 20.946 31.7933 21.1619L31.4472 21.508L31.1011 21.1619C30.8852 20.946 30.5353 20.946 30.3196 21.1619C30.1038 21.3777 30.1038 21.7276 30.3196 21.9434L30.6657 22.2895L30.3196 22.6356C30.1038 22.8514 30.1038 23.2014 30.3196 23.4172C30.4274 23.525 30.5689 23.579 30.7103 23.579C30.8517 23.579 30.9932 23.5251 31.1011 23.4172L31.4472 23.0711L31.7933 23.4172C31.9011 23.525 32.0426 23.579 32.184 23.579C32.3254 23.579 32.4669 23.5251 32.5747 23.4172C32.7906 23.2014 32.7906 22.8514 32.5747 22.6356Z" fill="#A19289"></path>
    <path d="M16.4861 17.1619C16.2641 16.946 15.9042 16.946 15.6823 17.1619L15.3263 17.508L14.9703 17.1619C14.7483 16.946 14.3884 16.946 14.1665 17.1619C13.9445 17.3777 13.9445 17.7276 14.1665 17.9434L14.5225 18.2895L14.1665 18.6356C13.9445 18.8514 13.9445 19.2014 14.1665 19.4172C14.2774 19.525 14.423 19.579 14.5684 19.579C14.7138 19.579 14.8593 19.5251 14.9703 19.4172L15.3263 19.0711L15.6823 19.4172C15.7932 19.525 15.9388 19.579 16.0842 19.579C16.2296 19.579 16.3751 19.5251 16.4861 19.4172C16.7081 19.2014 16.7081 18.8514 16.4861 18.6356L16.1301 18.2895L16.4861 17.9434C16.7081 17.7276 16.7081 17.3777 16.4861 17.1619Z" fill="#A19289"></path>
    <path d="M27.8003 18.6356L27.4443 18.2895L27.8003 17.9434C28.0223 17.7276 28.0223 17.3777 27.8003 17.1619C27.5783 16.946 27.2184 16.946 26.9965 17.1619L26.6405 17.508L26.2845 17.1619C26.0625 16.946 25.7026 16.946 25.4807 17.1619C25.2587 17.3777 25.2587 17.7276 25.4807 17.9434L25.8367 18.2895L25.4807 18.6356C25.2587 18.8514 25.2587 19.2014 25.4807 19.4172C25.5916 19.525 25.7372 19.579 25.8826 19.579C26.028 19.579 26.1735 19.5251 26.2845 19.4172L26.6405 19.0711L26.9965 19.4172C27.1074 19.525 27.253 19.579 27.3984 19.579C27.5438 19.579 27.6893 19.5251 27.8003 19.4172C28.0223 19.2014 28.0223 18.8514 27.8003 18.6356Z" fill="#A19289"></path>
    <rect x="3.5" y="9.5" width="35" height="22" rx="1.5" stroke="#A19289"></rect>
    <rect x="3.5" y="9.5" width="35" height="18" rx="1.5" stroke="#A19289"></rect>
  </symbol>
  <symbol fill="none" xmlns="http://www.w3.org/2000/svg" viewBox="0 0 42 42" id="category04">
    <rect width="42" height="42" fill="white"></rect>
    <path d="M15.5071 10.1719C15.7246 10.1719 15.9333 10.0854 16.0871 9.93161C16.241 9.77777 16.3274 9.56912 16.3274 9.35156C16.3274 9.134 16.241 8.92535 16.0871 8.77151C15.9333 8.61768 15.7246 8.53125 15.5071 8.53125C15.2895 8.53125 15.0809 8.61768 14.927 8.77151C14.7732 8.92535 14.6868 9.134 14.6868 9.35156C14.6868 9.56912 14.7732 9.77777 14.927 9.93161C15.0809 10.0854 15.2895 10.1719 15.5071 10.1719Z" fill="#A19289"></path>
    <path d="M6.5625 20.626V25.9875C6.56354 26.9557 6.84895 27.9022 7.38329 28.7095C7.91763 29.5169 8.67736 30.1495 9.56813 30.5288L8.41312 34.8206C8.30104 35.3381 8.39241 35.8788 8.66829 36.3307C8.94418 36.7825 9.3834 37.1109 9.89487 37.2476C10.4063 37.3843 10.9508 37.319 11.4154 37.065C11.8799 36.8111 12.2289 36.3881 12.39 35.8838L13.7025 30.916H28.2713L29.5838 35.8838C29.7448 36.3881 30.0938 36.8111 30.5584 37.065C31.0229 37.319 31.5674 37.3843 32.0789 37.2476C32.5904 37.1109 33.0296 36.7825 33.3055 36.3307C33.5813 35.8788 33.6727 35.3381 33.5606 34.8206L32.4188 30.5288C33.312 30.1515 34.0745 29.5197 34.6112 28.7122C35.148 27.9047 35.4354 26.9571 35.4375 25.9875V20.626C35.4319 19.3588 35.0072 18.129 34.2297 17.1284C33.4522 16.1277 32.3656 15.4124 31.1391 15.0938L31.9791 9.06939C32.0844 8.51382 32.0649 7.94178 31.9219 7.3947C31.7789 6.84762 31.5159 6.3392 31.1522 5.90626C30.7676 5.48299 30.2969 5.14689 29.7717 4.92051C29.2465 4.69414 28.679 4.58273 28.1072 4.59376H13.8928C13.321 4.58273 12.7535 4.69414 12.2283 4.92051C11.7031 5.14689 11.2324 5.48299 10.8478 5.90626C10.485 6.33844 10.2226 6.84576 10.0796 7.39162C9.93665 7.93748 9.9166 8.50828 10.0209 9.06283L10.8609 15.0938C9.63444 15.4124 8.54778 16.1277 7.77028 17.1284C6.99279 18.129 6.56814 19.3588 6.5625 20.626ZM11.1562 35.5425C11.1058 35.7331 10.9817 35.8958 10.8112 35.9949C10.6408 36.094 10.4379 36.1213 10.2473 36.0708C10.0568 36.0203 9.89403 35.8962 9.79496 35.7258C9.69589 35.5553 9.66859 35.3525 9.71906 35.1619L10.8478 30.8438C11.0654 30.8726 11.2846 30.8879 11.5041 30.8897H12.3703L11.1562 35.5425ZM32.3334 35.1619C32.3839 35.3525 32.3566 35.5553 32.2575 35.7258C32.1585 35.8962 31.9957 36.0203 31.8052 36.0708C31.6146 36.1213 31.4117 36.094 31.2413 35.9949C31.0708 35.8958 30.9467 35.7331 30.8963 35.5425L29.6559 30.9488H30.5222C30.7417 30.947 30.9608 30.9316 31.1784 30.9028L32.3334 35.1619ZM11.3334 8.87251C11.2534 8.50671 11.2549 8.12779 11.3377 7.7626C11.4204 7.39742 11.5826 7.05492 11.8125 6.75939C12.078 6.4766 12.4011 6.2541 12.76 6.10693C13.1189 5.95975 13.5052 5.89132 13.8928 5.90626H28.1072C28.4948 5.89132 28.8811 5.95975 29.24 6.10693C29.5989 6.2541 29.922 6.4766 30.1875 6.75939C30.4243 7.05167 30.5935 7.39265 30.6831 7.75795C30.7727 8.12326 30.7805 8.50385 30.7059 8.87251L29.8397 14.8969H29.6953C29.2335 14.8969 28.7905 15.0799 28.4633 15.4058C28.1361 15.7318 27.9514 16.1741 27.9497 16.636V20.9475C27.4675 20.6267 26.9013 20.4555 26.3222 20.4553H15.6778C15.0987 20.4555 14.5325 20.6267 14.0503 20.9475V16.6294C14.0486 16.1676 13.8639 15.7252 13.5367 15.3993C13.2095 15.0733 12.7665 14.8903 12.3047 14.8903H12.1538L11.3334 8.87251ZM14.0634 23.3953C14.0626 23.1811 14.104 22.9687 14.1854 22.7705C14.2668 22.5723 14.3866 22.3921 14.5378 22.2403C14.689 22.0884 14.8687 21.968 15.0666 21.8858C15.2645 21.8036 15.4767 21.7613 15.6909 21.7613H26.3222C26.5365 21.7613 26.7486 21.8036 26.9465 21.8858C27.1444 21.968 27.3241 22.0884 27.4753 22.2403C27.6265 22.3921 27.7463 22.5723 27.8277 22.7705C27.9091 22.9687 27.9506 23.1811 27.9497 23.3953V25.0294H14.0503L14.0634 23.3953ZM12.3178 16.1766C12.4316 16.1766 12.5407 16.2213 12.6218 16.3011C12.7028 16.3809 12.7492 16.4894 12.7509 16.6031V25.0031H12.3703C12.1963 25.0031 12.0293 25.0723 11.9063 25.1954C11.7832 25.3184 11.7141 25.4853 11.7141 25.6594C11.7141 25.8334 11.7832 26.0004 11.9063 26.1234C12.0293 26.2465 12.1963 26.3156 12.3703 26.3156H29.6428C29.8169 26.3156 29.9838 26.2465 30.1068 26.1234C30.2299 26.0004 30.2991 25.8334 30.2991 25.6594C30.2991 25.4853 30.2299 25.3184 30.1068 25.1954C29.9838 25.0723 29.8169 25.0031 29.6428 25.0031H29.2622V16.6294C29.2639 16.5157 29.3103 16.4072 29.3913 16.3274C29.4724 16.2475 29.5816 16.2028 29.6953 16.2028C30.869 16.2028 31.9947 16.6686 32.8253 17.4979C33.6558 18.3272 34.1233 19.4523 34.125 20.626V25.9875C34.125 26.9465 33.744 27.8662 33.0659 28.5444C32.3878 29.2225 31.4681 29.6035 30.5091 29.6035H11.5041C11.0281 29.6052 10.5565 29.5129 10.1163 29.332C9.67605 29.151 9.27588 28.885 8.93872 28.549C8.60156 28.2131 8.33403 27.8139 8.1515 27.3743C7.96896 26.9347 7.875 26.4635 7.875 25.9875V20.626C7.87674 19.4523 8.3442 18.3272 9.17474 17.4979C10.0053 16.6686 11.131 16.2028 12.3047 16.2028L12.3178 16.1766Z" fill="#A19289"></path>
    <path d="M21 10.1719C21.2176 10.1719 21.4262 10.0854 21.58 9.93161C21.7339 9.77777 21.8203 9.56912 21.8203 9.35156C21.8203 9.134 21.7339 8.92535 21.58 8.77151C21.4262 8.61768 21.2176 8.53125 21 8.53125C20.7824 8.53125 20.5738 8.61768 20.42 8.77151C20.2661 8.92535 20.1797 9.134 20.1797 9.35156C20.1797 9.56912 20.2661 9.77777 20.42 9.93161C20.5738 10.0854 20.7824 10.1719 21 10.1719Z" fill="#A19289"></path>
    <path d="M26.4929 10.1719C26.7105 10.1719 26.9191 10.0854 27.073 9.93161C27.2268 9.77777 27.3132 9.56912 27.3132 9.35156C27.3132 9.134 27.2268 8.92535 27.073 8.77151C26.9191 8.61768 26.7105 8.53125 26.4929 8.53125C26.2754 8.53125 26.0667 8.61768 25.9129 8.77151C25.759 8.92535 25.6726 9.134 25.6726 9.35156C25.6726 9.56912 25.759 9.77777 25.9129 9.93161C26.0667 10.0854 26.2754 10.1719 26.4929 10.1719Z" fill="#A19289"></path>
    <path d="M15.5071 14.1225C15.7246 14.1225 15.9333 14.0361 16.0871 13.8822C16.241 13.7284 16.3274 13.5197 16.3274 13.3022C16.3291 13.1934 16.3092 13.0853 16.2688 12.9842C16.2283 12.8832 16.1682 12.7912 16.0918 12.7136C16.0155 12.6361 15.9245 12.5745 15.8241 12.5324C15.7237 12.4904 15.6159 12.4687 15.5071 12.4688C15.2895 12.4688 15.0809 12.5552 14.927 12.709C14.7732 12.8629 14.6868 13.0715 14.6868 13.2891C14.6868 13.5066 14.7732 13.7153 14.927 13.8691C15.0809 14.0229 15.2895 14.1094 15.5071 14.1094V14.1225Z" fill="#A19289"></path>
    <path d="M21 14.1225C21.2176 14.1225 21.4262 14.0361 21.58 13.8822C21.7339 13.7284 21.8203 13.5197 21.8203 13.3022C21.8221 13.1934 21.8021 13.0853 21.7617 12.9842C21.7212 12.8832 21.6611 12.7912 21.5847 12.7136C21.5084 12.6361 21.4174 12.5745 21.317 12.5324C21.2166 12.4904 21.1088 12.4687 21 12.4688C20.7824 12.4688 20.5738 12.5552 20.42 12.709C20.2661 12.8629 20.1797 13.0715 20.1797 13.2891C20.1797 13.5066 20.2661 13.7153 20.42 13.8691C20.5738 14.0229 20.7824 14.1094 21 14.1094V14.1225Z" fill="#A19289"></path>
    <path d="M26.4929 14.1225C26.7105 14.1225 26.9191 14.0361 27.073 13.8822C27.2268 13.7284 27.3132 13.5197 27.3132 13.3022C27.315 13.1934 27.295 13.0853 27.2546 12.9842C27.2142 12.8832 27.154 12.7912 27.0777 12.7136C27.0013 12.6361 26.9103 12.5745 26.8099 12.5324C26.7095 12.4904 26.6018 12.4687 26.4929 12.4688C26.2754 12.4688 26.0667 12.5552 25.9129 12.709C25.759 12.8629 25.6726 13.0715 25.6726 13.2891C25.6726 13.5066 25.759 13.7153 25.9129 13.8691C26.0667 14.0229 26.2754 14.1094 26.4929 14.1094V14.1225Z" fill="#A19289"></path>
    <path d="M18.2568 18.0797C18.4744 18.0797 18.683 17.9933 18.8369 17.8394C18.9907 17.6856 19.0771 17.477 19.0771 17.2594C19.0771 17.0972 19.029 16.9386 18.9389 16.8037C18.8488 16.6688 18.7206 16.5636 18.5708 16.5015C18.4209 16.4394 18.2559 16.4232 18.0968 16.4548C17.9377 16.4865 17.7915 16.5646 17.6768 16.6794C17.5621 16.7941 17.4839 16.9402 17.4523 17.0994C17.4206 17.2585 17.4369 17.4234 17.499 17.5733C17.5611 17.7232 17.6662 17.8513 17.8011 17.9415C17.936 18.0316 18.0946 18.0797 18.2568 18.0797Z" fill="#A19289"></path>
    <path d="M23.7432 18.0797C24.1962 18.0797 24.5635 17.7124 24.5635 17.2594C24.5635 16.8064 24.1962 16.4391 23.7432 16.4391C23.2901 16.4391 22.9229 16.8064 22.9229 17.2594C22.9229 17.7124 23.2901 18.0797 23.7432 18.0797Z" fill="#A19289"></path>
  </symbol>
  <symbol fill="none" xmlns="http://www.w3.org/2000/svg" viewBox="0 0 42 42" id="category05">
    <rect width="42" height="42" fill="white"></rect>
    <path d="M7.56238 4.00016C7.41342 4.00075 7.27073 4.06024 7.16539 4.16557C7.06006 4.2709 7.00062 4.41357 7.00002 4.56253V6.2551C6.99887 6.40474 7.05717 6.5487 7.16211 6.65538L7.72888 7.22216C7.83555 7.32711 7.97951 7.38539 8.12915 7.38426V26.5806C8.05464 26.5803 7.98081 26.5948 7.91192 26.6232C7.84302 26.6516 7.78043 26.6933 7.72774 26.746C7.67505 26.7987 7.63331 26.8612 7.60493 26.9301C7.57655 26.999 7.56209 27.0728 7.56238 27.1474C7.56267 27.2215 7.57755 27.2949 7.60619 27.3633C7.63483 27.4317 7.67666 27.4937 7.72929 27.5459C7.78192 27.5982 7.84432 27.6395 7.91293 27.6676C7.98154 27.6957 8.05501 27.71 8.12915 27.7097V35.6159C7.97951 35.6148 7.83555 35.673 7.72888 35.778L7.16211 36.3448C7.05718 36.4515 6.99888 36.5954 7.00002 36.7451V38.4366C7.00033 38.5857 7.05964 38.7287 7.16501 38.8343C7.27037 38.9398 7.41323 38.9994 7.56238 39H33.5346C33.6838 38.9994 33.8266 38.9398 33.932 38.8343C34.0374 38.7287 34.0967 38.5857 34.097 38.4366V36.7451C34.097 36.6707 34.0823 36.597 34.0537 36.5283C34.0251 36.4596 33.9833 36.3973 33.9305 36.3448L33.3682 35.778C33.2615 35.673 33.1175 35.6148 32.9679 35.6159V27.7097C33.042 27.71 33.1155 27.6957 33.1841 27.6676C33.2527 27.6395 33.3151 27.5982 33.3677 27.5459C33.4204 27.4937 33.4622 27.4317 33.4908 27.3633C33.5195 27.2949 33.5344 27.2215 33.5346 27.1474C33.5349 27.0728 33.5205 26.999 33.4921 26.9301C33.4637 26.8612 33.422 26.7987 33.3693 26.746C33.3166 26.6933 33.254 26.6516 33.1851 26.6232C33.1162 26.5948 33.0424 26.5803 32.9679 26.5806V7.38426C33.1175 7.38535 33.2615 7.32702 33.3681 7.222L33.9305 6.65523C33.9835 6.60286 34.0255 6.54056 34.0543 6.47186C34.0831 6.40316 34.098 6.32943 34.0981 6.25495V4.56233C34.0975 4.41318 34.0379 4.27036 33.9323 4.165C33.8268 4.05964 33.6838 4.00031 33.5347 4L7.56238 4.00016ZM8.12915 5.126H32.9679V6.02132L32.7352 6.2551H8.3585L8.12915 6.02132V5.126ZM9.25939 7.38426H19.9817V26.5806H9.25939V7.38426ZM21.1109 7.38426H31.8387V26.5806H21.1109V7.38426ZM10.9509 8.51336C10.8767 8.51365 10.8034 8.52856 10.735 8.5572C10.6666 8.58584 10.6045 8.62764 10.5523 8.68027C10.5001 8.73291 10.4587 8.79535 10.4306 8.86396C10.4025 8.93257 10.3882 9.006 10.3885 9.08014V24.888C10.3891 25.037 10.4485 25.1797 10.5539 25.285C10.6592 25.3904 10.8019 25.4498 10.9509 25.4504C11.0998 25.4498 11.2426 25.3904 11.3479 25.285C11.4532 25.1797 11.5127 25.037 11.5132 24.888V9.08014C11.5135 9.006 11.4992 8.93257 11.4711 8.86396C11.443 8.79535 11.4017 8.73291 11.3495 8.68027C11.2972 8.62764 11.2352 8.58584 11.1668 8.5572C11.0984 8.52856 11.025 8.51365 10.9509 8.51336ZM30.1472 8.51336C30.0726 8.51292 29.9987 8.52728 29.9297 8.5556C29.8606 8.58391 29.7979 8.6256 29.7451 8.67831C29.6923 8.73101 29.6505 8.79369 29.622 8.86266C29.5936 8.93163 29.5791 9.00553 29.5794 9.08014V24.888C29.5797 24.9622 29.5946 25.0357 29.6233 25.1041C29.652 25.1726 29.6939 25.2348 29.7467 25.287C29.7994 25.3392 29.8619 25.3805 29.9307 25.4086C29.9994 25.4366 30.073 25.4508 30.1472 25.4504C30.2962 25.4498 30.4389 25.3904 30.5443 25.285C30.6496 25.1797 30.709 25.037 30.7096 24.888V9.08014C30.7099 9.006 30.6956 8.93257 30.6675 8.86396C30.6394 8.79535 30.598 8.73291 30.5458 8.68027C30.4936 8.62764 30.4315 8.58584 30.3631 8.5572C30.2947 8.52856 30.2214 8.51365 30.1472 8.51336ZM18.2902 15.8527C18.1405 15.8533 17.9972 15.9134 17.8917 16.0197C17.7862 16.1259 17.7273 16.2698 17.7279 16.4195V17.5486C17.7282 17.6978 17.7875 17.8408 17.8929 17.9464C17.9982 18.0519 18.1411 18.1115 18.2902 18.1121C18.3645 18.1124 18.438 18.098 18.5067 18.0699C18.5754 18.0417 18.6378 18.0003 18.6905 17.9479C18.7431 17.8956 18.7849 17.8334 18.8135 17.7649C18.8421 17.6964 18.8569 17.6229 18.857 17.5486V16.4195C18.8573 16.345 18.8428 16.2711 18.8145 16.2023C18.7861 16.1334 18.7443 16.0708 18.6917 16.0181C18.639 15.9654 18.5764 15.9237 18.5075 15.8953C18.4386 15.8669 18.3648 15.8525 18.2902 15.8527ZM22.8079 15.8527C22.7334 15.8525 22.6595 15.8669 22.5906 15.8953C22.5218 15.9237 22.4592 15.9654 22.4065 16.0181C22.3538 16.0708 22.312 16.1334 22.2837 16.2023C22.2553 16.2711 22.2408 16.345 22.2411 16.4195V17.5486C22.2413 17.6229 22.256 17.6964 22.2846 17.7649C22.3132 17.8334 22.355 17.8956 22.4076 17.9479C22.4603 18.0003 22.5227 18.0417 22.5914 18.0699C22.6601 18.098 22.7336 18.1124 22.8079 18.1121C22.957 18.1115 23.0999 18.0519 23.2053 17.9464C23.3106 17.8408 23.3699 17.6978 23.3702 17.5486V16.4195C23.3708 16.2698 23.3119 16.1259 23.2064 16.0197C23.101 15.9134 22.9576 15.8533 22.8079 15.8527ZM9.25939 27.7097H19.9817V31.0982H9.25939V27.7097ZM21.1109 27.7097H31.8387V31.0982H21.1109V27.7097ZM14.3394 28.8389C14.2649 28.8386 14.191 28.8531 14.1221 28.8814C14.0532 28.9098 13.9906 28.9516 13.938 29.0043C13.8853 29.0569 13.8435 29.1195 13.8152 29.1884C13.7868 29.2573 13.7723 29.3312 13.7726 29.4057C13.7729 29.4798 13.7878 29.5532 13.8164 29.6215C13.8451 29.6899 13.8869 29.752 13.9395 29.8042C13.9922 29.8565 14.0546 29.8978 14.1232 29.9259C14.1918 29.954 14.2652 29.9683 14.3394 29.968H14.9017C14.9759 29.9683 15.0494 29.954 15.118 29.9259C15.1866 29.8978 15.249 29.8565 15.3016 29.8042C15.3542 29.752 15.3961 29.6899 15.4247 29.6215C15.4533 29.5532 15.4682 29.4798 15.4685 29.4057C15.4688 29.3312 15.4543 29.2573 15.426 29.1884C15.3976 29.1195 15.3559 29.0569 15.3032 29.0043C15.2505 28.9516 15.1879 28.9098 15.119 28.8814C15.0501 28.8531 14.9763 28.8386 14.9017 28.8389H14.3394ZM26.1964 28.8389C26.1218 28.8385 26.0478 28.8528 25.9788 28.8811C25.9098 28.9094 25.847 28.9511 25.7942 29.0038C25.7414 29.0565 25.6996 29.1192 25.6712 29.1881C25.6427 29.2571 25.6282 29.3311 25.6285 29.4057C25.6288 29.4799 25.6437 29.5533 25.6724 29.6218C25.7011 29.6903 25.7431 29.7524 25.7958 29.8046C25.8486 29.8568 25.9111 29.8982 25.9798 29.9262C26.0486 29.9543 26.1221 29.9685 26.1964 29.968H26.7587C26.8329 29.9683 26.9064 29.954 26.975 29.9259C27.0436 29.8978 27.106 29.8565 27.1586 29.8042C27.2112 29.752 27.2531 29.6899 27.2817 29.6215C27.3103 29.5532 27.3252 29.4798 27.3255 29.4057C27.3258 29.3312 27.3113 29.2573 27.283 29.1884C27.2546 29.1195 27.2128 29.0569 27.1602 29.0043C27.1075 28.9516 27.0449 28.9098 26.976 28.8814C26.9071 28.8531 26.8333 28.8386 26.7587 28.8389H26.1964ZM9.25939 32.2274H31.8387V35.6159H9.25939V32.2274ZM14.3416 33.3565C14.1919 33.3559 14.048 33.4148 13.9417 33.5203C13.8354 33.6258 13.7754 33.7691 13.7748 33.9189C13.7745 33.9934 13.789 34.0672 13.8174 34.1361C13.8457 34.205 13.8875 34.2676 13.9402 34.3203C13.9929 34.373 14.0554 34.4147 14.1243 34.4431C14.1932 34.4714 14.2671 34.4859 14.3416 34.4857H14.9039C14.9781 34.4854 15.0514 34.4705 15.1198 34.4418C15.1882 34.4132 15.2503 34.3713 15.3025 34.3187C15.3547 34.2661 15.3961 34.2037 15.4242 34.1351C15.4523 34.0665 15.4666 33.993 15.4663 33.9189C15.4657 33.7699 15.4063 33.6272 15.3009 33.5219C15.1956 33.4165 15.0529 33.3571 14.9039 33.3565H14.3416ZM26.1964 33.3565C26.1221 33.3561 26.0486 33.3703 25.9798 33.3983C25.9111 33.4264 25.8486 33.4677 25.7958 33.5199C25.7431 33.5721 25.7011 33.6343 25.6724 33.7027C25.6437 33.7712 25.6288 33.8446 25.6285 33.9189C25.6282 33.9935 25.6427 34.0674 25.6712 34.1364C25.6996 34.2053 25.7414 34.268 25.7942 34.3207C25.847 34.3734 25.9098 34.4151 25.9788 34.4434C26.0478 34.4717 26.1218 34.4861 26.1964 34.4857H26.7587C26.8333 34.4859 26.9071 34.4714 26.976 34.4431C27.0449 34.4147 27.1075 34.373 27.1602 34.3203C27.2128 34.2676 27.2546 34.205 27.283 34.1361C27.3113 34.0672 27.3258 33.9934 27.3255 33.9189C27.3249 33.7691 27.2649 33.6258 27.1586 33.5203C27.0523 33.4148 26.9085 33.3559 26.7587 33.3565H26.1964ZM8.3585 36.745H32.7352L32.9679 36.9777V37.8742H8.12915V36.9777L8.3585 36.745Z" fill="#A19289"></path>
  </symbol>
  <symbol fill="none" xmlns="http://www.w3.org/2000/svg" viewBox="0 0 42 42" id="category06">
    <rect width="42" height="42" fill="white"></rect>
    <g clip-path="url(#clip0_143_2056)">
      <path d="M27.006 13.0741C27.3644 13.0741 27.6541 12.7844 27.6541 12.426C27.6541 12.0675 27.3644 11.7778 27.006 11.7778C26.6482 11.7778 26.3578 11.4874 26.3578 11.1297C26.3578 10.7719 26.6482 10.4815 27.006 10.4815H27.6541V7.88892H26.3578V9.30447C25.6053 9.5728 25.0615 10.2858 25.0615 11.1297C25.0615 12.2017 25.9339 13.0741 27.006 13.0741Z" fill="#A19289"></path>
      <path d="M33.4874 13.0741C33.8458 13.0741 34.1356 12.7844 34.1356 12.426C34.1356 12.0675 33.8458 11.7778 33.4874 11.7778C33.1296 11.7778 32.8393 11.4874 32.8393 11.1297C32.8393 10.7719 33.1296 10.4815 33.4874 10.4815H34.1356V7.88892H32.8393V9.30447C32.0868 9.5728 31.543 10.2858 31.543 11.1297C31.543 12.2017 32.4154 13.0741 33.4874 13.0741Z" fill="#A19289"></path>
      <path d="M38.6791 34.463H38.6727V29.9259C38.6727 29.5675 38.3829 29.2778 38.0245 29.2778H21.1727V26.6852V8.53704H21.1863V7.24074H21.1727V4.64815C21.1727 4.28972 20.8829 4 20.5245 4H4.96895C4.61052 4 4.3208 4.28972 4.3208 4.64815V7.24074V8.53704V26.6852V29.9259V34.463V35.7593V38.3518C4.3208 38.7103 4.61052 39 4.96895 39H38.0245C38.3829 39 38.6727 38.7103 38.6727 38.3518V35.7593H38.6791V34.463ZM5.6171 27.3333H19.8764V29.2778H5.6171V27.3333ZM5.6171 5.2963H19.8764V7.24074H18.5801H17.2838H14.043H12.7467H9.50599H8.20969H5.6171V5.2963ZM8.20969 8.53704V9.30444C7.45719 9.57278 6.91339 10.2857 6.91339 11.1296C6.91339 12.2017 7.7858 13.0741 8.85784 13.0741C9.21626 13.0741 9.50599 12.7844 9.50599 12.4259C9.50599 12.0675 9.21626 11.7778 8.85784 11.7778C8.50006 11.7778 8.20969 11.4874 8.20969 11.1296C8.20969 10.7719 8.50006 10.4815 8.85784 10.4815C9.21626 10.4815 9.50599 10.1918 9.50599 9.83333V8.53704H12.7467V9.30444C11.9942 9.57278 11.4504 10.2857 11.4504 11.1296C11.4504 12.2017 12.3228 13.0741 13.3949 13.0741C13.7533 13.0741 14.043 12.7844 14.043 12.4259C14.043 12.0675 13.7533 11.7778 13.3949 11.7778C13.0371 11.7778 12.7467 11.4874 12.7467 11.1296C12.7467 10.7719 13.0371 10.4815 13.3949 10.4815C13.7533 10.4815 14.043 10.1918 14.043 9.83333V8.53704H17.2838V9.30444C16.5306 9.57278 15.9875 10.2857 15.9875 11.1296C15.9875 12.2017 16.8599 13.0741 17.9319 13.0741C18.2903 13.0741 18.5801 12.7844 18.5801 12.4259C18.5801 12.0675 18.2903 11.7778 17.9319 11.7778C17.5741 11.7778 17.2838 11.4874 17.2838 11.1296C17.2838 10.7719 17.5741 10.4815 17.9319 10.4815C18.2903 10.4815 18.5801 10.1918 18.5801 9.83333V8.53704H19.8764V26.037H5.6171V8.53704H8.20969ZM5.6171 30.5741H20.5245H37.3764V34.463H5.6171V30.5741ZM37.3764 37.7037H5.6171V35.7593H37.3764V37.7037Z" fill="#A19289"></path>
    </g>
    <defs>
      <clipPath id="clip0_143_2056">
        <rect width="35" height="35" fill="white" transform="translate(4 4)"></rect>
      </clipPath>
    </defs>
  </symbol>
  <symbol fill="none" xmlns="http://www.w3.org/2000/svg" viewBox="0 0 42 42" id="category07">
    <path d="M34.042 9.34301C33.9803 9.14021 33.7938 9.00119 33.5819 9H8.42102C8.20905 9.00097 8.02254 9.14028 7.96084 9.34301L6.01568 15.6972C5.99091 20.8838 6.0029 26.0705 6.0029 31.2571C6.00289 31.7857 6.44285 32.2245 6.97154 32.2246H8.46076C8.98977 32.2248 9.42611 31.7822 9.4246 31.2532L9.40002 22.7214L11.3249 20.5207V24C11.3249 24.5286 11.7638 24.9675 12.2925 24.9675H13.743C14.2716 24.9675 14.7106 24.5286 14.7106 24V19.1609H27.2924V24C27.2924 24.5286 27.7285 24.9675 28.2572 24.9675H29.7105C30.2392 24.9675 30.6781 24.5286 30.6781 24V20.6038L32.5746 22.6931V31.2571C32.5746 31.7857 33.0135 32.2245 33.5422 32.2246H35.0314C35.5604 32.2248 36.0015 31.7822 36 31.2532C35.9951 26.0938 35.9699 20.9345 35.9863 15.6939L34.042 9.34301ZM8.77827 9.96763H33.2247L34.8604 15.2895H7.14259L8.77827 9.96763ZM6.97155 16.2571H35.0315V18.1924H6.97155V16.2571ZM6.97155 31.2571V19.1609H8.42109C8.42676 23.193 8.44334 29.2391 8.45016 31.2552L6.97155 31.2571ZM9.38965 19.1609H11.2285L9.39532 21.253L9.38965 19.1609ZM12.5136 19.1609H13.743V24H12.2925V19.4141L12.5136 19.1609ZM28.2572 19.1609H29.3684L29.7105 19.538V24H28.2572V19.1609ZM30.6781 19.1609H32.5746V21.253L30.6781 19.1685V19.1609ZM33.5819 19.1609H34.9965L35.0315 31.2571H33.5422C33.5478 27.225 33.5589 23.1929 33.5819 19.1609Z" fill="#A19289"></path>
  </symbol>
  <symbol fill="none" xmlns="http://www.w3.org/2000/svg" viewBox="0 0 42 42" id="category08">
    <rect width="42" height="42" fill="white"></rect>
    <path d="M16.4303 4C14.8746 4 13.5331 5.12006 13.2548 6.65058L11.4301 16.6806L9.50501 18.2893C8.5522 19.0833 8 20.2575 8 21.4978V24.886C8 25.6168 8.47606 26.2414 9.13013 26.477V27.7108C9.13013 28.6274 9.87394 29.3805 10.7862 29.3999L10.2922 37.8412C10.2557 38.4626 10.7613 39 11.3838 39H12.5172C13.1133 39 13.6309 38.566 13.7345 37.979L15.2483 29.4032H15.7301L15.3718 35.5831C15.3357 36.2045 15.842 36.7419 16.4644 36.7419H17.5979C18.1943 36.7419 18.712 36.3086 18.814 35.7209L19.9089 29.4032H22.0545L23.1526 35.7209C23.2546 36.3086 23.7724 36.7419 24.3688 36.7419H25.4989C26.1213 36.7419 26.631 36.2045 26.5948 35.5831L26.2343 29.4032H26.7183L28.2322 37.979C28.3357 38.566 28.8533 39 29.4494 39H30.5784C31.2009 39 31.7109 38.4637 31.6744 37.8423L31.176 29.3999C32.0903 29.3828 32.8365 28.6289 32.8365 27.7108V26.477C33.4906 26.2414 33.9666 25.6168 33.9666 24.886V21.4978C33.9666 20.2575 33.4144 19.0833 32.4616 18.2893L30.5321 16.6806L28.7118 6.65058C28.4335 5.12006 27.092 4 25.5364 4H16.4303ZM31.1452 23.757C31.1452 22.5166 30.1264 21.4978 28.886 21.4978H13.0806C11.8402 21.4978 10.8215 22.5166 10.8215 23.757V25.4527H9.69245C9.37399 25.4527 9.13013 25.2044 9.13013 24.886V21.4978C9.13013 20.5918 9.53013 19.7359 10.2261 19.1559L12.0542 17.6344L14.5636 18.6355C14.8524 18.7512 15.1803 18.6108 15.2968 18.3224C15.4121 18.0324 15.2705 17.7041 14.9804 17.5892L12.5878 16.6321L14.3684 6.85015C14.5504 5.84924 15.4129 5.12901 16.4303 5.12901H25.5364C26.5537 5.12901 27.4173 5.84926 27.5993 6.85015L29.3744 16.6321L26.9819 17.5892C26.6933 17.7057 26.5541 18.0336 26.6698 18.3224C26.7863 18.6109 27.1142 18.7513 27.403 18.6355L29.9125 17.6344L31.7406 19.1559C32.4365 19.7359 32.8365 20.5918 32.8365 21.4978V24.886C32.8365 25.2044 32.5927 25.4527 32.2742 25.4527H31.1452V23.757ZM21.5638 7.38707C21.5516 7.38707 21.5395 7.38744 21.5275 7.38821C21.3851 7.39329 21.2496 7.4503 21.1482 7.55036L20.9839 7.71468L20.8185 7.55036C20.7078 7.44131 20.557 7.38261 20.4017 7.38821C20.2582 7.39329 20.1214 7.44962 20.0191 7.55036C19.7973 7.77105 19.7973 8.13011 20.0191 8.35082L20.1834 8.51514L20.0191 8.67947C19.7973 8.90016 19.7973 9.25923 20.0191 9.47993C20.2397 9.70106 20.5979 9.70106 20.8185 9.47993L20.9839 9.3156L21.1482 9.47993C21.3689 9.70179 21.7279 9.70179 21.9486 9.47993C22.1705 9.25923 22.1705 8.90016 21.9486 8.67947L21.7844 8.51514L21.9486 8.35082C22.1705 8.13011 22.1705 7.77105 21.9486 7.55036C21.846 7.44877 21.7082 7.39012 21.5638 7.38707ZM16.4479 10.7753C16.3054 10.7804 16.1699 10.8381 16.0686 10.9385C15.8467 11.1592 15.8467 11.5182 16.0686 11.7389L16.2329 11.9032L16.0686 12.0676C15.8467 12.2883 15.8467 12.6473 16.0686 12.868C16.2888 13.087 16.6445 13.087 16.8647 12.868L17.0311 12.7017L17.1976 12.868C17.4178 13.087 17.7735 13.087 17.9937 12.868C18.2156 12.6473 18.2156 12.2883 17.9937 12.0676L17.8294 11.9032L17.9937 11.7389C18.2156 11.5182 18.2156 11.1592 17.9937 10.9385C17.8832 10.8291 17.7324 10.7698 17.5769 10.7753C17.4344 10.7804 17.2989 10.8381 17.1976 10.9385L17.0311 11.1048L16.8647 10.9385C16.7542 10.8291 16.6034 10.7698 16.4479 10.7753ZM24.3522 10.7753C24.2086 10.7804 24.0717 10.8374 23.9696 10.9385C23.7478 11.1592 23.7478 11.5182 23.9696 11.7389L24.1339 11.9032L23.9696 12.0676C23.7478 12.2883 23.7478 12.6473 23.9696 12.868C24.1902 13.0892 24.5484 13.0892 24.769 12.868L24.9344 12.7037L25.0987 12.868C25.3194 13.0899 25.6785 13.0899 25.8992 12.868C26.121 12.6473 26.121 12.2883 25.8992 12.0676L25.7349 11.9032L25.8992 11.7389C26.121 11.5182 26.121 11.1592 25.8992 10.9385C25.7886 10.8291 25.6378 10.7698 25.4824 10.7753C25.3383 10.7804 25.2011 10.8372 25.0987 10.9385L24.9344 11.1028L24.769 10.9385C24.6585 10.8291 24.5077 10.7698 24.3522 10.7753ZM13.0806 22.6268H28.886C29.5162 22.6268 30.0161 23.1267 30.0161 23.757V24.886C30.0161 25.2044 29.7679 25.4527 29.4494 25.4527H12.5139C12.1955 25.4527 11.9505 25.2044 11.9505 24.886V23.757C11.9505 23.1267 12.4504 22.6268 13.0806 22.6268ZM10.2548 26.5817C17.7957 26.5817 25.1768 26.5817 31.7075 26.5817V27.7108C31.7075 28.0293 31.4636 28.2742 31.1452 28.2742H10.8215C10.503 28.2742 10.2548 28.0292 10.2548 27.7108V26.5817ZM11.9185 29.4032H14.1016L12.622 37.7839C12.6124 37.8387 12.5729 37.8709 12.5172 37.8709H11.418L11.9185 29.4032ZM16.8625 29.4032H18.7622L17.7015 35.5247C17.6921 35.5788 17.6529 35.6117 17.5979 35.6117H16.4975L16.8625 29.4032ZM23.2011 29.4032H25.1042L25.4647 35.6129H24.3688C24.3137 35.6129 24.2745 35.579 24.2651 35.5247L23.2011 29.4032ZM27.8661 29.4032H30.0481L30.5487 37.8709H29.4494C29.3937 37.8709 29.3543 37.8387 29.3447 37.7839L27.8661 29.4032Z" fill="#A19289"></path>
  </symbol>
</svg>