<svg width="0" height="0" class="hidden">
  <symbol fill="none" xmlns="http://www.w3.org/2000/svg" viewBox="0 0 24 24" id="heart">
    <path fill-rule="evenodd" clip-rule="evenodd" d="M11.9938 5.91615C10.1944 3.81913 7.19377 3.25504 4.93923 5.17528C2.68468 7.09552 2.36727 10.3061 4.13778 12.5771C5.60984 14.4654 10.0648 18.4478 11.5249 19.7368C11.6882 19.881 11.7699 19.9531 11.8652 19.9815C11.9483 20.0062 12.0393 20.0062 12.1225 19.9815C12.2178 19.9531 12.2994 19.881 12.4628 19.7368C13.9229 18.4478 18.3778 14.4654 19.8499 12.5771C21.6204 10.3061 21.3417 7.07532 19.0484 5.17528C16.7551 3.27524 13.7933 3.81913 11.9938 5.91615Z" stroke="black" stroke-width="2" stroke-linecap="round" stroke-linejoin="round"></path>
  </symbol>
  <symbol fill="none" xmlns="http://www.w3.org/2000/svg" viewBox="0 0 204 30" id="logo">
    <path fill-rule="evenodd" clip-rule="evenodd" d="M153 7.77373C148.742 8.22185 146.431 10.292 145.599 13.7956C145.59 13.8304 145.583 13.8667 145.577 13.9042C145.449 14.6943 145.43 15.5327 145.599 16.3139C146.613 21.0219 150.465 22.1768 153 22.4453C153.67 22.5162 154.05 22.5548 154.724 22.5548C155.398 22.5548 155.778 22.5162 156.448 22.4453C160.199 22.0479 163.038 20.365 163.849 16.3139C163.982 15.6501 163.932 14.9587 163.883 14.2765L163.883 14.2763C163.874 14.1509 163.865 14.0257 163.857 13.9011C163.855 13.8649 163.852 13.8296 163.849 13.7956C163.545 10.4157 160.3 8.17917 156.448 7.77373C155.778 7.70324 155.398 7.66425 154.724 7.66425C154.05 7.66425 153.67 7.70324 153 7.77373ZM154.723 21.4333C155.29 21.4333 155.608 21.3839 156.171 21.3238C159.323 20.9872 161.708 19.5615 162.39 16.1298C162.501 15.5674 162.459 14.982 162.418 14.4043C162.41 14.2979 162.403 14.1917 162.396 14.0859C162.394 14.0552 162.392 14.0253 162.39 13.9965C162.134 11.1333 159.408 9.23872 156.171 8.89527C155.608 8.83555 155.29 8.78578 154.723 8.78578C154.156 8.78578 153.838 8.83555 153.275 8.89527C149.697 9.27487 147.755 11.0285 147.056 13.9965C147.05 14.026 147.044 14.0567 147.038 14.0885C146.931 14.758 146.915 15.4677 147.056 16.1298C147.908 20.118 151.145 21.0963 153.275 21.3238C153.838 21.3839 154.156 21.4333 154.723 21.4333Z" fill="black"></path>
    <path d="M167.702 22.2263V7.99271H169.122L177.436 20.6934L185.75 7.99271H187.169V22.2263H185.75V10.292L178.044 22.2263H176.827L169.02 10.1825V22.2263H167.702Z" fill="black"></path>
    <path d="M191.935 22.2263V7.99271H203.798V9.30658H193.456V14.1241H203.392V15.3285H193.456V20.9124H204V22.2263H191.935Z" fill="black"></path>
    <path d="M126.334 22.2263V7.99271H127.754V14.1241H140.529V7.99271H141.746V22.2263H140.529V15.219H127.754V22.2263H126.334Z" fill="black"></path>
    <path d="M96.0182 22.2263V7.99271H100.277L109.807 17.7372V7.99271H113.762V22.2263H109.605L99.9725 12.5913V22.2263H96.0182Z" fill="black"></path>
    <path d="M73.8134 22.2263V7.99271H78.1732L87.7041 17.7372V7.99271H91.5569V22.2263H87.2985L77.7677 12.5913V22.2263H73.8134Z" fill="black"></path>
    <path fill-rule="evenodd" clip-rule="evenodd" d="M52.217 22.2263L59.8214 7.99271H64.0798L71.5828 22.2263H67.2229L65.9049 19.3796H57.9963L56.4754 22.2263H52.217ZM61.9506 11.4964L59.3144 16.6423H64.4854L61.9506 11.4964Z" fill="black"></path>
    <path d="M27.9844 22.2263V7.88322H33.1553L38.9347 18.6132L44.9168 7.99271H49.9864V22.2263H46.1335V12.3723L40.7597 22.2263H37.1096L31.8373 12.3723V22.2263H27.9844Z" fill="black"></path>
    <path d="M0 29.9356V0L12.1022 9.07725L8.91111 12.7468L5.41892 10.1073V24.721L0 29.9356Z" fill="black"></path>
    <path fill-rule="evenodd" clip-rule="evenodd" d="M8.18858 15.9013L21.495 0.0643777V30L8.18858 25.1717V15.9013ZM17.9426 10.3648L10.8378 16.9957V23.3691L17.9426 24.5923V10.3648Z" fill="#FA0001"></path>
  </symbol>
  <symbol fill="none" xmlns="http://www.w3.org/2000/svg" viewBox="0 0 24 24" id="search">
    <path d="M21 21L15.0001 15M17 10C17 13.866 13.866 17 10 17C6.13401 17 3 13.866 3 10C3 6.13401 6.13401 3 10 3C13.866 3 17 6.13401 17 10Z" stroke="#8F8F8F" stroke-width="2" stroke-linecap="round" stroke-linejoin="round"></path>
  </symbol>
  <symbol fill="none" xmlns="http://www.w3.org/2000/svg" viewBox="0 0 24 24" id="user">
    <path d="M19 20C19 18.7595 19 18.1392 18.8493 17.6345C18.51 16.4982 17.6346 15.6089 16.516 15.2642C16.0192 15.1111 15.4086 15.1111 14.1875 15.1111H9.8125C8.59138 15.1111 7.98082 15.1111 7.484 15.2642C6.3654 15.6089 5.49004 16.4982 5.15071 17.6345C5 18.1392 5 18.7595 5 20M15.9375 8C15.9375 10.2091 14.1746 12 12 12C9.82538 12 8.0625 10.2091 8.0625 8C8.0625 5.79086 9.82538 4 12 4C14.1746 4 15.9375 5.79086 15.9375 8Z" stroke="black" stroke-width="2" stroke-linecap="round" stroke-linejoin="round"></path>
  </symbol>
  <symbol fill="none" xmlns="http://www.w3.org/2000/svg" viewBox="0 0 8 14" id="vector-right">
    <path d="M1 13L7 7L1 1" stroke="white" stroke-width="2" stroke-linecap="round" stroke-linejoin="round"></path>
  </symbol>
  <symbol fill="none" xmlns="http://www.w3.org/2000/svg" viewBox="0 0 24 24" id="arrow-right">
    <path d="M5 12H19M19 12L12 5M19 12L12 19" stroke="black" stroke-width="2" stroke-linecap="round" stroke-linejoin="round"></path>
  </symbol>
  <symbol fill="none" xmlns="http://www.w3.org/2000/svg" viewBox="0 0 24 24" id="bag">
    <path d="M15.5 11.1111V7.55556C15.5 5.59188 13.933 4 12 4C10.067 4 8.5 5.59188 8.5 7.55556V11.1111M5.875 9.33333H18.125L19 20H5L5.875 9.33333Z" stroke="black" stroke-width="2" stroke-linecap="round" stroke-linejoin="round"></path>
  </symbol>
  <symbol fill="none" xmlns="http://www.w3.org/2000/svg" viewBox="0 0 24 24" id="globe">
    <path d="M12 3C14.2512 5.46452 15.5305 8.66283 15.6 12C15.5305 15.3372 14.2512 18.5355 12 21M12 3C9.74885 5.46452 8.46952 8.66283 8.4 12C8.46952 15.3372 9.74885 18.5355 12 21M12 3C7.02944 3 3 7.02944 3 12C3 16.9706 7.02944 21 12 21M12 3C16.9706 3 21 7.02944 21 12C21 16.9706 16.9706 21 12 21M3.45002 9.3H20.55M3.45 14.7H20.55" stroke="white" stroke-width="2" stroke-linecap="round" stroke-linejoin="round"></path>
  </symbol>
</svg>