<svg width="225" height="25" viewBox="0 0 225 25" fill="none" xmlns="http://www.w3.org/2000/svg">
<path d="M113.933 0.0289574C114.11 0.0174825 114.288 0.00600269 114.466 0.00600269C116.061 -0.0341595 117.656 0.224029 119.142 0.797774C120.072 1.1535 120.967 1.60101 121.833 2.09444V0.510902H124.306V24.4762C124.306 24.4762 124.168 24.6254 124.157 24.6254H121.885C121.598 24.6254 121.833 23.237 121.684 23.2427L118.947 24.2582L116.107 24.9238C115.051 24.8549 113.887 25.0213 112.848 24.9238C111.431 24.7918 110.043 24.3959 108.792 23.7074C107.639 23.0706 106.629 22.1985 105.814 21.1657C104.994 20.1272 104.374 18.9453 103.938 17.7003C103.49 16.4151 103.238 15.0668 103.163 13.7128C103.089 12.3358 103.198 10.9473 103.49 9.60476C103.777 8.26793 104.248 6.97127 104.913 5.77788C105.567 4.59596 106.411 3.52306 107.432 2.63376C109.257 1.05022 111.54 0.201075 113.927 0.040426M121.816 4.67629C120.066 3.61486 118.241 2.71982 116.153 2.58212C110.645 2.22066 106.52 6.1795 105.929 11.5268C105.108 18.888 109.928 23.65 117.312 22.3132C118.987 22.0091 120.347 21.2288 121.822 20.4485V4.67629H121.816Z" fill="black"/>
<path d="M100.594 0.504883C100.594 0.504883 100.64 1.11305 100.754 1.24501L85.9346 21.5613L85.6764 22.0433H100.645C100.645 22.0433 100.795 22.181 100.795 22.1925V24.367C100.795 24.367 100.657 24.5161 100.645 24.5161H81.7692C81.6315 24.5161 81.2413 23.6899 81.4364 23.4949L96.6464 2.87445H82.2167V0.504883H100.594Z" fill="black"/>
<path d="M184.092 0.608273L193.33 22.6458L202.47 0.608273H204.644V24.4245H203.21C203.21 24.4245 203.06 24.2867 203.06 24.2753V2.78277C203.02 2.88031 202.98 2.97784 202.94 3.07538C200.743 8.36531 198.545 13.661 196.348 18.9509C195.843 20.173 195.332 21.3951 194.827 22.6172C194.678 22.9671 194.535 23.3229 194.391 23.6728C194.34 23.8048 194.282 23.931 194.231 24.063C194.19 24.1605 194.167 24.2753 194.076 24.3384C193.972 24.4072 193.8 24.4187 193.68 24.4302C193.531 24.4417 193.106 24.4072 192.808 24.3958C192.515 24.3843 192.458 24.1605 192.349 23.9138C190.794 20.5459 189.48 17.0461 188.051 13.6266C186.617 10.1898 185.183 6.75882 183.748 3.32209C183.656 3.10406 183.57 2.89178 183.479 2.67949C183.45 2.61638 183.427 2.54754 183.398 2.48442V24.4187H181.918V0.602539H184.092V0.608273Z" fill="black"/>
<path d="M136.562 0.608398V11.3776H151.681V0.608398H153.167V24.4188H151.681V12.6628H136.562V24.4188H135.082V0.608398H136.562Z" fill="black"/>
<path d="M224.999 24.3212L208.797 24.4187V0.602539H224.804C224.776 0.814825 224.908 1.98526 224.655 1.98526H210.277V11.3717H223.915V12.6569H210.277V23.0302L224.999 23.1278V24.3154V24.3212Z" fill="black"/>
<path d="M166.598 0.0172117C167.241 -0.00573815 167.895 0.0344244 168.526 0.080324C169.857 0.177861 171.171 0.447518 172.382 1.00979C173.248 1.41141 174.051 1.93352 174.769 2.5589C175.474 3.17281 176.088 3.88425 176.616 4.65881C177.144 5.44484 177.58 6.28825 177.918 7.17182C178.263 8.06686 178.515 9.00206 178.676 9.94874C178.836 10.9069 178.911 11.8823 178.888 12.8519C178.865 13.8215 178.756 14.7912 178.555 15.7378C178.355 16.673 178.062 17.591 177.672 18.4631C177.287 19.3237 176.811 20.1385 176.232 20.8843C175.658 21.6245 174.992 22.2958 174.241 22.8638C172.101 24.476 169.404 25.0555 166.759 24.935C164.9 24.8489 163.064 24.4014 161.486 23.3801C161.32 23.2711 161.154 23.1564 160.993 23.0359C160.304 22.5252 159.679 21.9285 159.14 21.263C158.589 20.5917 158.124 19.8573 157.734 19.0885C157.338 18.3025 157.023 17.4705 156.782 16.6214C156.541 15.7551 156.374 14.8715 156.288 13.9764C156.202 13.0757 156.191 12.1691 156.26 11.2684C156.328 10.3733 156.472 9.47828 156.701 8.61192C156.925 7.75131 157.229 6.91363 157.614 6.11613C157.998 5.3301 158.457 4.58422 159.008 3.89573C159.553 3.21297 160.184 2.59333 160.884 2.06549C161.607 1.52043 162.404 1.0729 163.248 0.740128C164.097 0.401618 164.98 0.154909 165.893 0.051635C166.128 0.0229477 166.369 0.0114749 166.61 0M166.386 1.42863C155.164 2.47285 154.71 21.9859 166.174 23.5178C180.701 25.4628 181.269 0.0401653 166.386 1.42863Z" fill="black"/>
<path d="M70.2618 0.0055957C70.3134 0.0055957 70.365 0.0113356 70.4166 0.0170731C70.6691 0.0342854 70.9158 0.0457582 71.1682 0.0687081C72.4247 0.183457 73.6985 0.625241 74.7714 1.29652C74.9492 1.41127 75.1214 1.52603 75.2935 1.65225C77.5139 3.31611 78.5983 6.1332 78.7647 8.85275C78.9368 11.6526 78.845 14.464 78.7647 17.2696C78.7016 19.5646 78.6843 21.8481 78.7532 24.1431C78.7532 24.2578 78.7532 24.3955 78.6614 24.4701C78.5925 24.5217 78.5007 24.5275 78.4147 24.5275C77.7663 24.5275 77.118 24.5275 76.4754 24.5275C76.4238 24.5275 76.3664 24.5275 76.3205 24.5045C76.1943 24.4472 76.1771 24.2808 76.1713 24.1431C76.1139 21.3317 76.1828 18.5318 76.2517 15.7147C76.3033 13.6607 76.3262 11.6067 76.1885 9.55846C75.9131 5.40455 73.8132 2.31779 69.3151 2.58745C65.9414 2.78826 64.0997 4.97423 62.3555 7.57903V24.5275H59.9343C59.9343 24.5275 59.7852 24.3898 59.7852 24.3783V0.516229H62.3555V4.66441C62.3555 4.66441 62.4301 4.56687 62.4416 4.54966C62.5162 4.44638 62.5965 4.34311 62.6768 4.23984C62.8719 3.98165 63.0612 3.71773 63.2563 3.45955C63.6407 2.94318 64.071 2.46696 64.5415 2.03092C64.7079 1.87601 64.8743 1.73258 65.0521 1.58914C65.3964 1.31374 65.7578 1.05555 66.148 0.866214C66.4521 0.71704 66.7734 0.608034 67.0947 0.50476C67.8405 0.263787 68.6036 0.0400204 69.3839 0.0055957C69.6765 -0.00587921 69.9691 0.005595 70.256 0.0228074" fill="black"/>
<path d="M44.866 0.0117188C45.021 0.0920431 45.2045 0.0920431 45.3595 0.0117188H46.1512C46.3406 0.0920431 46.5529 0.0920431 46.7422 0.0117188H47.0405C47.5741 0.218267 48.1421 0.229742 48.6987 0.378915C53.4665 1.65837 56.2663 6.95403 56.0369 11.6702H37.7573V14.0914C37.7573 17.3503 41.2343 21.0395 44.2349 21.9403C48.1651 23.1164 51.3207 21.8944 54.4878 19.6568C54.8607 19.3928 55.2221 18.9338 55.641 18.8822V21.6018C55.641 21.814 54.4935 22.5255 54.2468 22.6804C53.1108 23.4091 51.8026 24.0975 50.5002 24.4647C49.8462 24.6483 49.1806 24.7402 48.5265 24.9123C47.5053 24.8434 46.3693 25.0041 45.3652 24.9123C33.5059 23.8164 31.2798 5.39919 41.7793 0.728901L44.3726 0.0117188H44.866ZM52.8698 9.50146C52.3993 5.73196 50.3396 2.78864 46.3062 2.5821C41.7793 2.34686 39.0253 5.35328 38.0499 9.50146H52.8698Z" fill="black"/>
<path d="M8.20455 0.212117C8.30209 0.309654 8.29635 0.309656 8.30782 0.447355C8.39388 1.21044 8.39388 3.2587 8.30782 4.02179C8.29635 4.11932 8.26195 4.3603 8.15294 4.3603H4.44653V20.5629H8.15294C8.15294 20.5629 8.30211 20.7006 8.30211 20.712V24.6651C8.30211 24.6651 8.16441 24.8143 8.15294 24.8143H0.740119C0.493408 24.8143 0.143436 24.4127 0 24.2234V0.803074C0.275398 0.441614 0.510652 0.177696 0.98686 0.108847C3.39659 0.0858971 5.80055 0.114583 8.19881 0.206383" fill="#3393C5"/>
<path d="M23.7203 0.211756C24.1334 0.303555 24.2883 0.280607 24.535 0.733866C24.7129 8.46795 24.558 16.2365 24.6096 23.982C24.6555 24.3148 24.1449 24.8197 23.8638 24.8197H16.451C16.451 24.8197 16.3018 24.682 16.3018 24.6705V20.7174C16.3018 20.7174 16.4395 20.5683 16.451 20.5683H20.1574V4.36568H16.451C16.3419 4.36568 16.3075 4.1247 16.2961 4.02717C16.2502 3.62555 16.2616 0.378142 16.3477 0.211756C16.3764 0.160119 16.4395 0.137167 16.4969 0.119955C18.9066 0.0912673 21.3106 0.1257 23.7088 0.217499" fill="#3393C5"/>
</svg>
