<svg width="225" height="53" viewBox="0 0 225 53" fill="none" xmlns="http://www.w3.org/2000/svg">
<path d="M83.8589 43.8257H8.74219V44.7214H83.8589V43.8257ZM201.823 43.8257H126.418V44.7214H201.823V43.8257ZM90.3349 40.3401L88.4202 42.1156L87.4125 40.9178L90.4934 38.3473H92.0622V48.5683H90.3349V40.3401ZM98.3097 48.5701L100.758 44.7876L100.73 44.7594C100.596 44.8261 100.453 44.8697 100.305 44.8883C100.131 44.9163 99.9562 44.9305 99.7805 44.9307C99.3543 44.9362 98.9321 44.8475 98.5434 44.671C98.1761 44.5023 97.8458 44.2615 97.5717 43.9626C97.2966 43.6605 97.0817 43.3079 96.9387 42.9238C96.7886 42.5222 96.7129 42.0961 96.7154 41.6668C96.7154 41.1386 96.8056 40.6563 96.9886 40.2226C97.1716 39.7897 97.4228 39.4223 97.745 39.1175C98.078 38.8078 98.47 38.5697 98.8971 38.4179C99.3612 38.2508 99.8507 38.1671 100.343 38.1706C100.87 38.1706 101.359 38.2501 101.804 38.4091C102.25 38.5681 102.635 38.7969 102.956 39.0954C103.278 39.394 103.528 39.7588 103.704 40.1925C103.881 40.6263 103.97 41.1121 103.97 41.6509C103.97 42.1898 103.881 42.6782 103.704 43.1155C103.528 43.5536 103.298 43.9988 103.021 44.4511L100.416 48.5657H98.3097V48.5701ZM102.151 41.6854C102.153 41.4401 102.106 41.1969 102.013 40.9702C101.92 40.7435 101.783 40.5379 101.61 40.3657C101.441 40.1967 101.241 40.0618 101.021 39.9682C100.791 39.8707 100.544 39.8214 100.295 39.8233C100.046 39.8215 99.7991 39.8711 99.5695 39.9691C99.2334 40.1095 98.9464 40.3478 98.7449 40.6534C98.5435 40.9591 98.4368 41.3183 98.4384 41.6854C98.4384 41.946 98.4874 42.188 98.5837 42.4132C98.7709 42.8606 99.125 43.2156 99.5695 43.4017C99.7945 43.4989 100.038 43.5474 100.295 43.5474C100.554 43.5474 100.796 43.4989 101.021 43.4017C101.465 43.2142 101.818 42.8596 102.007 42.4132C102.103 42.188 102.151 41.9451 102.151 41.6854ZM111.969 38.3473L109.521 42.1297L109.549 42.158C109.654 42.0997 109.797 42.0573 109.974 42.029C110.151 42.0007 110.326 41.9866 110.499 41.9866C110.914 41.9816 111.326 42.0653 111.707 42.2322C112.087 42.399 112.429 42.6453 112.709 42.9547C112.983 43.2533 113.194 43.5996 113.343 43.9935C113.492 44.3893 113.566 44.8062 113.566 45.2505C113.566 45.7805 113.473 46.261 113.293 46.6948C113.121 47.1123 112.863 47.4883 112.536 47.798C112.203 48.1077 111.811 48.3457 111.383 48.4976C110.92 48.6644 110.43 48.7479 109.938 48.7441C109.439 48.7507 108.942 48.67 108.47 48.5056C108.046 48.3577 107.656 48.1245 107.325 47.8201C106.998 47.5146 106.743 47.14 106.577 46.723C106.394 46.2592 106.304 45.7636 106.312 45.2646C106.312 44.7258 106.4 44.2373 106.577 43.8001C106.754 43.3619 106.983 42.9167 107.261 42.4645L109.865 38.349H111.969V38.3473ZM108.126 45.2337C108.124 45.479 108.171 45.7222 108.264 45.9489C108.356 46.1756 108.494 46.3812 108.667 46.5534C109.017 46.9026 109.49 47.0976 109.982 47.0958C110.346 47.0988 110.703 46.9927 111.008 46.791C111.312 46.5893 111.551 46.301 111.693 45.9625C111.791 45.7322 111.84 45.4841 111.839 45.2337C111.839 44.974 111.79 44.732 111.693 44.5059C111.601 44.2843 111.467 44.0832 111.298 43.914C111.125 43.7402 110.919 43.6027 110.694 43.5096C110.468 43.4165 110.226 43.3696 109.982 43.3717C109.724 43.3717 109.481 43.4202 109.256 43.5174C108.921 43.6589 108.634 43.8974 108.433 44.2029C108.232 44.5083 108.125 44.867 108.126 45.2337ZM118.474 42.4636H118.92C119.17 42.4636 119.412 42.4495 119.646 42.4212C119.882 42.3929 120.093 42.3302 120.28 42.2339C120.467 42.1368 120.618 41.9981 120.733 41.8143C120.847 41.6306 120.905 41.3868 120.905 41.0776C120.905 40.6828 120.771 40.3621 120.503 40.1113C120.234 39.8613 119.883 39.7367 119.454 39.7367C119.108 39.7367 118.798 39.8348 118.524 40.0327C118.244 40.24 118.035 40.5307 117.927 40.8639L116.099 40.3736C116.203 40.0197 116.368 39.6872 116.587 39.3914C116.798 39.1131 117.048 38.8834 117.336 38.7059C117.623 38.5283 117.941 38.395 118.285 38.3084C118.638 38.2211 119.001 38.1778 119.365 38.1794C119.806 38.1794 120.224 38.2377 120.618 38.3526C121.012 38.4674 121.356 38.6388 121.654 38.8649C121.951 39.091 122.189 39.3755 122.365 39.7164C122.542 40.0574 122.632 40.4549 122.632 40.9063C122.632 41.4548 122.478 41.9433 122.17 42.3708C121.863 42.7984 121.437 43.081 120.889 43.2162V43.2445C121.541 43.3416 122.036 43.6199 122.372 44.0819C122.708 44.543 122.875 45.0924 122.875 45.7275C122.875 46.2178 122.782 46.6515 122.593 47.026C122.412 47.3935 122.154 47.7167 121.837 47.9729C121.509 48.2335 121.136 48.4293 120.736 48.5498C120.314 48.68 119.875 48.7458 119.433 48.745C119.011 48.745 118.613 48.699 118.238 48.6081C117.879 48.5226 117.536 48.3788 117.223 48.1823C116.917 47.9869 116.651 47.7345 116.438 47.4385C116.205 47.1098 116.035 46.7402 115.936 46.3485L117.778 45.8591C117.883 46.2822 118.069 46.6091 118.339 46.8414C118.607 47.0711 118.973 47.1877 119.433 47.1877C119.663 47.1877 119.882 47.1497 120.089 47.0728C120.29 46.9993 120.475 46.8894 120.636 46.7486C120.801 46.6043 120.931 46.4255 121.019 46.2246C121.108 46.0238 121.151 45.8058 121.147 45.5862C121.147 45.2593 121.077 44.9917 120.938 44.7859C120.804 44.5825 120.62 44.418 120.404 44.3089C120.176 44.1941 119.931 44.1186 119.679 44.0854C119.416 44.0473 119.151 44.0278 118.886 44.0271H118.468V42.4636H118.474ZM17.6739 7.18415C23.4101 7.18415 27.0083 10.305 27.0083 15.2772C27.0083 20.4447 23.249 23.6627 17.2213 23.6627H14.2726V29.2869H8.79647V7.18415H17.6739ZM17.5452 18.853C19.9747 18.853 21.5313 17.4555 21.5313 15.2772C21.5313 13.2942 19.9747 12.0266 17.5452 12.0266H14.2709V18.8539L17.5452 18.853ZM37.1815 22.8836V29.2869H31.7044V7.18415H41.3628C46.8066 7.18415 50.4696 10.1733 50.4696 14.9522C50.4696 18.0403 48.8806 20.4774 46.2559 21.8104L51.9273 29.2869H45.3165L40.5836 22.8836H37.1815ZM41.2315 17.944C43.3379 17.944 45.0223 16.7736 45.0223 14.9522C45.0223 13.1652 43.337 12.0275 41.2315 12.0275H37.1815V17.944H41.2315ZM78.6296 18.6931C78.6296 25.1273 73.6052 30.1985 66.9305 30.1985C60.2873 30.1985 55.2629 25.1282 55.2629 18.6931C55.2629 12.2562 60.2873 7.1868 66.9305 7.1868C73.6052 7.18415 78.6296 12.2562 78.6296 18.6931ZM73.0545 18.6931C73.0545 15.2154 70.4946 12.2898 66.9305 12.2898C63.3664 12.2898 60.8056 15.2154 60.8056 18.6931C60.8056 22.1708 63.3664 25.0955 66.9305 25.0955C70.4937 25.0955 73.0545 22.1708 73.0545 18.6931ZM106.885 29.7427H102.802L102.575 27.0786C100.986 29.029 98.6853 30.1985 95.6079 30.1985C88.7047 30.1985 83.8764 25.2589 83.8764 18.921C83.8764 12.0301 88.9324 7.1868 95.6719 7.1868C101.053 7.1868 105.718 10.2431 106.657 15.5078H100.921C99.9504 12.9399 97.7459 12.2253 95.769 12.2253C92.0097 12.2253 89.4174 14.8903 89.4174 18.7911C89.4174 22.2688 91.9134 25.0981 95.8347 25.0981C98.3955 25.0981 100.34 23.8306 101.411 21.7167L95.0905 21.6523V17.3275H106.887V29.7418H106.885V29.7427ZM119.13 22.8836V29.2869H113.653V7.18415H123.312C128.756 7.18415 132.419 10.1733 132.419 14.9522C132.419 18.0403 130.83 20.4774 128.205 21.8104L133.876 29.2869H127.266L122.533 22.8836H119.13ZM123.181 17.944C125.286 17.944 126.972 16.7736 126.972 14.9522C126.972 13.1652 125.286 12.0275 123.181 12.0275H119.13V17.944H123.181ZM178.496 14.5308H172.988C172.695 12.8728 171.658 11.7351 169.421 11.7351C167.541 11.7351 166.278 12.5151 166.278 13.9452C166.278 15.1483 167.153 15.6677 168.806 16.0254L171.886 16.7409C175.904 17.619 178.531 19.2452 178.531 23.0479C178.531 27.469 174.9 30.2303 169.391 30.2303C164.433 30.2303 159.961 27.8904 159.441 22.4305H164.918C165.274 24.3809 166.959 25.5504 169.552 25.5504C171.593 25.5504 172.664 24.8022 172.664 23.6C172.664 22.8518 172.211 22.0727 170.331 21.7141L166.702 20.9014C162.36 19.9589 160.319 17.9096 160.319 14.4001C160.319 9.9799 163.884 7.18326 169.069 7.18326C172.63 7.18326 177.945 8.58158 178.496 14.5308ZM201.859 14.5308H196.35C196.059 12.8728 195.021 11.7351 192.784 11.7351C190.904 11.7351 189.64 12.5151 189.64 13.9452C189.64 15.1483 190.516 15.6677 192.169 16.0254L195.248 16.7409C199.266 17.619 201.893 19.2452 201.893 23.0479C201.893 27.469 198.263 30.2303 192.754 30.2303C187.797 30.2303 183.323 27.8904 182.805 22.4305H188.281C188.637 24.3809 190.322 25.5504 192.915 25.5504C194.956 25.5504 196.026 24.8022 196.026 23.6C196.026 22.8518 195.574 22.0727 193.693 21.7141L190.065 20.9014C185.723 19.9589 183.681 17.9096 183.681 14.4001C183.681 9.9799 187.247 7.18326 192.432 7.18326C195.992 7.18326 201.308 8.58158 201.859 14.5308ZM211.395 11.6732V13.8118H209.567V6.43066H212.794C214.612 6.43066 215.834 7.42883 215.834 9.02501C215.834 10.0559 215.304 10.8712 214.426 11.3146L216.321 13.8118H214.113L212.532 11.6741L211.395 11.6732ZM212.749 10.0232C213.453 10.0232 214.017 9.63186 214.017 9.02501C214.017 8.42788 213.453 8.04893 212.749 8.04893H211.395V10.0232H212.749Z" fill="#BE2931"/>
<path d="M212.544 17.2552C208.344 17.2552 205.295 14.2537 205.295 10.1179C205.295 6.04926 208.411 2.98145 212.544 2.98145C216.743 2.98145 219.792 5.98301 219.792 10.1188C219.792 14.1874 216.677 17.2552 212.544 17.2552ZM212.544 3.91955C208.932 3.91955 206.206 6.58456 206.206 10.1205C206.206 13.7131 208.871 16.3215 212.544 16.3215C216.156 16.3215 218.882 13.6565 218.882 10.1205C218.882 6.52538 216.217 3.91955 212.544 3.91955ZM144.008 15.9929H153.763V20.6737H144.008V24.5074H155.189V29.2862H138.531V7.18523H155.189V11.9641H144.008V15.9938V15.9929Z" fill="#BE2931"/>
</svg>
