<svg width="225" height="80" viewBox="0 0 225 80" fill="none" xmlns="http://www.w3.org/2000/svg">
<g clip-path="url(#clip0_3001_2813)">
<path d="M16.5527 74.2004C16.5626 74.2999 16.5681 74.4178 16.5681 74.5546C16.5681 74.6709 16.5649 74.772 16.5574 74.8572C16.551 74.943 16.5392 75.0149 16.5218 75.0729C16.5042 75.1312 16.4845 75.1825 16.4602 75.2265C16.4359 75.2712 16.3815 75.3364 16.2962 75.4216C16.2115 75.5074 16.0657 75.6135 15.861 75.7396C15.6562 75.8665 15.4266 75.9796 15.1701 76.0787C14.9147 76.1778 14.6362 76.2581 14.336 76.3196C14.0358 76.3813 13.7255 76.4117 13.4036 76.4117C12.7425 76.4117 12.1554 76.3025 11.6429 76.0833C11.1316 75.8645 10.7025 75.5451 10.3583 75.1236C10.0139 74.7033 9.75069 74.1871 9.57023 73.5743C9.3889 72.9622 9.29867 72.2555 9.29867 71.4552C9.29867 70.5451 9.40943 69.7639 9.63154 69.1103C9.85307 68.4572 10.1564 67.9216 10.5425 67.5045C10.9283 67.0874 11.3821 66.7778 11.9044 66.5761C12.4261 66.3743 12.9915 66.2732 13.5985 66.2732C13.8924 66.2732 14.1775 66.3004 14.4534 66.3552C14.7302 66.4097 14.9844 66.4819 15.2163 66.5706C15.4486 66.6596 15.6548 66.7622 15.8361 66.8784C16.0169 66.9946 16.1479 67.0941 16.2297 67.1761C16.3116 67.2581 16.3685 67.323 16.3989 67.3712C16.4298 67.419 16.4556 67.4755 16.4752 67.5404C16.4969 67.6056 16.5105 67.679 16.5163 67.761C16.5238 67.843 16.527 67.9456 16.527 68.0688C16.527 68.3355 16.4969 68.5219 16.4345 68.6283C16.3737 68.7343 16.298 68.7871 16.2098 68.7871C16.1068 68.7871 15.9894 68.7312 15.8566 68.6175C15.723 68.5051 15.5547 68.3801 15.35 68.2433C15.1452 68.1065 14.8971 67.9816 14.6073 67.8688C14.3172 67.7555 13.9742 67.6996 13.5783 67.6996C12.7659 67.6996 12.1433 68.0126 11.7095 68.6381C11.2757 69.2645 11.0596 70.1723 11.0596 71.3627C11.0596 71.9578 11.1157 72.4799 11.2288 72.9271C11.341 73.3758 11.5064 73.75 11.7248 74.0512C11.9431 74.352 12.2115 74.5764 12.5288 74.7233C12.8466 74.8703 13.2096 74.9436 13.6191 74.9436C14.0083 74.9436 14.3496 74.8822 14.6431 74.759C14.9367 74.6355 15.1906 74.5007 15.4061 74.354C15.6206 74.2068 15.802 74.0735 15.9483 73.9532C16.0947 73.8341 16.2098 73.7741 16.2919 73.7741C16.339 73.7741 16.3798 73.7877 16.4148 73.8149C16.4483 73.8425 16.477 73.8888 16.5013 73.9535C16.5256 74.0193 16.542 74.1013 16.5527 74.2004ZM26.2165 66.648C26.1893 66.5833 26.1537 66.5355 26.1089 66.5045C26.0652 66.4741 26.0158 66.4584 25.9611 66.4584H18.7435C18.6888 66.4584 18.6402 66.4741 18.5991 66.5045C18.5584 66.5355 18.5234 66.5833 18.4916 66.648C18.4612 66.7135 18.4369 66.7935 18.4204 66.8894C18.4034 66.9851 18.3944 67.0946 18.3944 67.2178C18.3944 67.3543 18.4034 67.4729 18.4204 67.5714C18.4369 67.6714 18.4598 67.7514 18.4872 67.8129C18.5141 67.8746 18.5497 67.9204 18.5948 67.9517C18.6385 67.9822 18.6888 67.9978 18.7435 67.9978H21.5068V75.9607C21.5068 76.0155 21.5192 76.0622 21.5435 76.0996C21.5667 76.1372 21.6115 76.1694 21.6768 76.1969C21.7408 76.2245 21.8284 76.2448 21.9377 76.2587C22.0467 76.2723 22.1835 76.279 22.3472 76.279C22.5173 76.279 22.6572 76.2723 22.7666 76.2587C22.8759 76.2448 22.9615 76.2245 23.0222 76.1969C23.0844 76.1694 23.1284 76.1372 23.1555 76.0996C23.183 76.0622 23.1969 76.0158 23.1969 75.9607V67.9975H25.9611C26.0224 67.9975 26.0742 67.9819 26.115 67.9514C26.156 67.9204 26.1907 67.8743 26.2228 67.8126C26.2532 67.7512 26.2749 67.6726 26.2888 67.577C26.3024 67.481 26.309 67.3648 26.309 67.228C26.309 67.1048 26.3 66.9938 26.2836 66.8943C26.2665 66.7952 26.2437 66.7132 26.2165 66.648ZM37.0792 69.157C37.2666 69.7726 37.3603 70.4674 37.3603 71.2404C37.3603 71.9929 37.262 72.6856 37.0633 73.3181C36.8661 73.9514 36.5702 74.4964 36.1781 74.9549C35.7853 75.4132 35.294 75.7706 34.704 76.0268C34.1132 76.2839 33.4292 76.4117 32.6509 76.4117C31.8932 76.4117 31.2327 76.299 30.6699 76.0732C30.1065 75.8477 29.6372 75.5193 29.2621 75.0883C28.8864 74.6572 28.607 74.1341 28.4222 73.5181C28.2386 72.9025 28.146 72.2048 28.146 71.4248C28.146 70.6723 28.2432 69.9799 28.4381 69.3468C28.6322 68.7141 28.9254 68.1685 29.3188 67.7103C29.7106 67.252 30.2002 66.8961 30.7876 66.643C31.3747 66.3897 32.061 66.263 32.845 66.263C33.6036 66.263 34.2633 66.3758 34.8269 66.6019C35.3897 66.8274 35.8591 67.1558 36.2345 67.5868C36.6098 68.0178 36.8909 68.5413 37.0792 69.157ZM35.6101 71.3529C35.6101 70.8535 35.5626 70.3813 35.4704 69.937C35.377 69.4923 35.2234 69.1022 35.0108 68.7668C34.7968 68.432 34.5071 68.1665 34.1424 67.972C33.7777 67.7767 33.3225 67.6793 32.7788 67.6793C32.2758 67.6793 31.8438 67.7683 31.4829 67.9459C31.1202 68.1239 30.8229 68.3755 30.5886 68.7001C30.3544 69.0257 30.1803 69.4103 30.0669 69.8549C29.9538 70.2993 29.8963 70.7851 29.8963 71.3117C29.8963 71.8181 29.9431 72.2935 30.0357 72.7381C30.1288 73.1827 30.2844 73.5712 30.5013 73.9033C30.7182 74.2352 31.0086 74.4984 31.3732 74.6932C31.7391 74.8885 32.1934 74.9856 32.7371 74.9856C33.2331 74.9856 33.6637 74.8967 34.0287 74.719C34.3934 74.5413 34.6939 74.2912 34.9273 73.97C35.1618 73.6485 35.3339 73.2651 35.4446 72.8204C35.554 72.3755 35.6101 71.8865 35.6101 71.3529ZM47.5518 66.4683H42.8211C42.6649 66.4683 42.5434 66.5181 42.4575 66.6172C42.3719 66.7167 42.3236 66.8685 42.31 67.0738C42.2068 68.0726 42.0975 68.957 41.9824 69.7262C41.8655 70.4961 41.7426 71.1683 41.6136 71.7428C41.4832 72.3172 41.3406 72.8016 41.1827 73.1946C41.0268 73.5883 40.8591 73.9065 40.6818 74.1494C40.5043 74.3923 40.3128 74.5665 40.1083 74.6723C39.9033 74.7787 39.6887 74.8317 39.4628 74.8317C39.4082 74.8317 39.3628 74.8416 39.3249 74.8622C39.287 74.8828 39.2566 74.9239 39.2329 74.9854C39.2089 75.0471 39.1921 75.1291 39.1814 75.2317C39.1716 75.3343 39.1661 75.4677 39.1661 75.632C39.1661 75.7894 39.1731 75.9178 39.1869 76.0169C39.2005 76.1164 39.2211 76.1929 39.2482 76.2477C39.2754 76.3025 39.3113 76.3401 39.3561 76.3607C39.4001 76.3813 39.4533 76.3914 39.5146 76.3914C39.8897 76.3914 40.2425 76.3335 40.574 76.2169C40.9054 76.1004 41.2116 75.9109 41.4954 75.6474C41.7794 75.3842 42.0399 75.0369 42.2788 74.6056C42.5177 74.1749 42.7331 73.6448 42.9243 73.0152C43.1155 72.3859 43.2873 71.6468 43.4408 70.799C43.5947 69.9503 43.7257 68.9825 43.835 67.8946H46.3742V75.9601C46.3742 76.0149 46.3878 76.0616 46.415 76.099C46.4427 76.1367 46.4887 76.1688 46.5532 76.1964C46.6177 76.2239 46.7056 76.2442 46.815 76.2581C46.924 76.2717 47.0634 76.2784 47.2343 76.2784C47.398 76.2784 47.5345 76.2717 47.6438 76.2581C47.7531 76.2442 47.8387 76.2239 47.8995 76.1964C47.9616 76.1688 48.0056 76.1367 48.0328 76.099C48.06 76.0616 48.0739 76.0152 48.0739 75.9601V67.0738C48.0739 66.8685 48.0276 66.7167 47.9359 66.6172C47.8428 66.5181 47.7155 66.4683 47.5518 66.4683ZM59.4419 71.7483C59.5998 72.1277 59.6778 72.5535 59.6778 73.0254C59.6778 73.4975 59.5937 73.9387 59.4268 74.3491C59.2599 74.7596 58.9968 75.1155 58.6387 75.4164C58.2798 75.7172 57.8212 75.9552 57.2615 76.1294C56.7017 76.3042 56.029 76.3912 55.2449 76.3912C55.0596 76.3912 54.8765 76.3891 54.6914 76.3859C54.5078 76.3822 54.3264 76.3752 54.1491 76.3656C53.9719 76.3549 53.7955 76.3433 53.6222 76.3294C53.4475 76.3158 53.2714 76.299 53.0941 76.2781C52.8075 76.2439 52.5967 76.1514 52.4602 76.0007C52.3237 75.8506 52.2552 75.6213 52.2552 75.3138V66.7251C52.2552 66.6703 52.2664 66.6242 52.2907 66.5862C52.3144 66.5488 52.3587 66.5146 52.4235 66.4836C52.4891 66.4535 52.5739 66.4326 52.68 66.4222C52.7855 66.412 52.9166 66.4068 53.0742 66.4068C53.4018 66.4068 53.628 66.4326 53.755 66.4836C53.8816 66.5355 53.9441 66.6155 53.9441 66.7251V69.9781C54.1969 69.9575 54.4508 69.9422 54.7073 69.9317C54.963 69.9219 55.2409 69.9164 55.5414 69.9164C56.2719 69.9164 56.8966 69.99 57.4157 70.1369C57.9342 70.2845 58.3617 70.4941 58.7 70.7683C59.0378 71.0419 59.286 71.3683 59.4419 71.7483ZM57.9166 73.1384C57.9166 72.8578 57.8738 72.6033 57.7885 72.3738C57.7037 72.1448 57.5635 71.95 57.3694 71.7891C57.1745 71.6283 56.9162 71.5054 56.5964 71.4199C56.2748 71.3341 55.8826 71.2912 55.4187 71.2912C55.1388 71.2912 54.8794 71.2981 54.6405 71.3117C54.4016 71.3256 54.1694 71.3425 53.9441 71.3633V74.9138C54.183 74.941 54.4184 74.9651 54.65 74.9854C54.8823 75.0059 55.166 75.0161 55.5006 75.0161C56.3335 75.0161 56.9437 74.8506 57.3339 74.5187C57.722 74.1871 57.9166 73.7268 57.9166 73.1384ZM62.9137 66.4836C62.8521 66.4535 62.7671 66.4326 62.6578 66.4222C62.5488 66.412 62.4085 66.4068 62.2376 66.4068C62.0736 66.4068 61.9377 66.412 61.8281 66.4222C61.719 66.4326 61.6317 66.4532 61.5672 66.4836C61.5021 66.5146 61.4582 66.5491 61.4339 66.5862C61.4096 66.6242 61.398 66.67 61.398 66.7251V75.9601C61.398 76.0149 61.4096 76.0616 61.4339 76.099C61.4582 76.1367 61.5021 76.1688 61.5672 76.1964C61.6317 76.2239 61.719 76.2442 61.8281 76.2581C61.9377 76.2717 62.0736 76.2784 62.2376 76.2784C62.4085 76.2784 62.5488 76.2717 62.6578 76.2581C62.7671 76.2442 62.8521 76.2239 62.9137 76.1964C62.975 76.1688 63.0187 76.1367 63.0462 76.099C63.0734 76.0616 63.087 76.0152 63.087 75.9601V66.7251C63.087 66.6703 63.0734 66.6242 63.0462 66.5862C63.0184 66.5491 62.975 66.5149 62.9137 66.4836ZM81.1003 66.479C81.041 66.4514 80.9632 66.4329 80.8637 66.4225C80.7651 66.4123 80.6439 66.4071 80.501 66.4071C80.357 66.4071 80.2419 66.4123 80.1525 66.4225C80.0643 66.4329 79.9871 66.4503 79.9218 66.4741C79.8576 66.4981 79.8029 66.5303 79.7581 66.5714C79.7141 66.6126 79.6716 66.6604 79.6305 66.7149L75.6687 72.1436C75.4837 72.383 75.3116 72.6277 75.1514 72.8772C74.9906 73.1268 74.8324 73.3816 74.6753 73.6416C74.6956 73.3819 74.7132 73.1201 74.7265 72.8569C74.7404 72.5935 74.7465 72.3283 74.7465 72.0616V66.7152C74.7465 66.6126 74.686 66.5361 74.5628 66.4842C74.4402 66.4332 74.2143 66.4074 73.8864 66.4074C73.7302 66.4074 73.5969 66.4126 73.4876 66.4227C73.3783 66.4332 73.2912 66.452 73.2267 66.4793C73.1614 66.5065 73.1174 66.5407 73.0931 66.5816C73.0688 66.623 73.0575 66.6674 73.0575 66.7152V75.9714C73.0575 76.0193 73.0688 76.0636 73.0931 76.1048C73.1174 76.1459 73.1588 76.1784 73.2163 76.2025C73.2739 76.2259 73.3514 76.2448 73.4468 76.2587C73.5422 76.2723 73.6649 76.279 73.8152 76.279C73.9448 76.279 74.0538 76.2735 74.1429 76.2636C74.2314 76.2532 74.3052 76.2358 74.363 76.212C74.4205 76.1885 74.4691 76.1558 74.507 76.1146C74.5432 76.0735 74.5865 76.0257 74.6343 75.9712L78.5452 70.6146C78.7366 70.3549 78.9252 70.0932 79.1132 69.8294C79.3014 69.5665 79.4735 69.2978 79.6305 69.0242C79.6103 69.2912 79.5929 69.5628 79.5793 69.8401C79.5655 70.1167 79.5594 70.3891 79.5594 70.6555V75.9712C79.5594 76.019 79.573 76.0633 79.6002 76.1045C79.6276 76.1456 79.6748 76.1781 79.743 76.2022C79.811 76.2256 79.9007 76.2445 80.0097 76.2584C80.119 76.272 80.2555 76.2787 80.4192 76.2787C80.5829 76.2787 80.7197 76.272 80.8287 76.2584C80.9383 76.2445 81.023 76.2256 81.0846 76.2022C81.146 76.1781 81.1899 76.1456 81.2174 76.1045C81.2443 76.0633 81.2579 76.019 81.2579 75.9712V66.7251C81.2579 66.6703 81.246 66.6225 81.2232 66.581C81.1989 66.5401 81.1584 66.5059 81.1003 66.479ZM97.7861 73.9541C97.7624 73.8894 97.7335 73.843 97.6988 73.8155C97.6655 73.7883 97.6245 73.7746 97.5759 73.7746C97.494 73.7746 97.3801 73.8346 97.2332 73.9538C97.0863 74.0741 96.9055 74.2074 96.6909 74.3546C96.4757 74.5016 96.2215 74.6364 95.928 74.7596C95.6345 74.8828 95.2932 74.9442 94.9042 74.9442C94.4947 74.9442 94.1315 74.8709 93.8133 74.7239C93.4967 74.5767 93.2289 74.3526 93.0102 74.0517C92.7919 73.7506 92.6259 73.3764 92.5137 72.9277C92.4009 72.4801 92.3442 71.9581 92.3442 71.3633C92.3442 70.1729 92.5611 69.2651 92.9943 68.6387C93.4275 68.0132 94.0508 67.7001 94.8629 67.7001C95.2588 67.7001 95.6018 67.7561 95.8921 67.8694C96.1819 67.9822 96.4292 68.1071 96.6339 68.2439C96.8387 68.3807 97.0079 68.5056 97.1415 68.6181C97.2742 68.7317 97.3922 68.7877 97.494 68.7877C97.5837 68.7877 97.6577 68.7349 97.7199 68.6288C97.7806 68.5228 97.8119 68.3361 97.8119 68.0694C97.8119 67.9459 97.8081 67.8436 97.8017 67.7616C97.7945 67.6796 97.7806 67.6062 97.7613 67.541C97.7399 67.4761 97.715 67.4196 97.6837 67.3717C97.6534 67.3236 97.597 67.2587 97.5151 67.1767C97.4333 67.0946 97.3014 66.9952 97.121 66.879C96.9396 66.763 96.7331 66.6601 96.5012 66.5712C96.2693 66.4822 96.0153 66.4103 95.7386 66.3558C95.4624 66.301 95.1769 66.2738 94.8837 66.2738C94.2761 66.2738 93.7113 66.3749 93.1892 66.5767C92.6669 66.7784 92.2126 67.088 91.8274 67.5051C91.4419 67.9222 91.1376 68.4578 90.9164 69.1109C90.6943 69.7645 90.5835 70.5456 90.5835 71.4558C90.5835 72.2561 90.6738 72.9625 90.8548 73.5749C91.0355 74.1874 91.2979 74.7039 91.6432 75.1242C91.9879 75.5454 92.4156 75.8651 92.9284 76.0839C93.4394 76.303 94.0265 76.4123 94.6896 76.4123C95.0095 76.4123 95.3204 76.3819 95.6209 76.3201C95.9211 76.2587 96.1993 76.1784 96.4549 76.0793C96.7114 75.9801 96.9419 75.8674 97.1467 75.7401C97.3515 75.6141 97.4958 75.508 97.5814 75.4222C97.667 75.3369 97.7216 75.2717 97.7451 75.2271C97.7685 75.183 97.7899 75.1317 97.8064 75.0735C97.8234 75.0155 97.8353 74.9436 97.8431 74.8578C97.8492 74.7726 97.8526 74.6714 97.8526 74.5552C97.8526 74.4184 97.8477 74.3004 97.8373 74.201C97.8269 74.1013 97.8096 74.0193 97.7861 73.9541ZM107.502 66.648C107.475 66.5833 107.438 66.5355 107.394 66.5045C107.349 66.4741 107.3 66.4584 107.246 66.4584H100.027C99.9725 66.4584 99.9254 66.4741 99.8846 66.5045C99.8435 66.5355 99.8071 66.5833 99.777 66.648C99.7466 66.7135 99.7223 66.7935 99.7053 66.8894C99.6873 66.9851 99.6798 67.0946 99.6798 67.2178C99.6798 67.3543 99.6873 67.4729 99.7053 67.5714C99.7223 67.6714 99.7443 67.7514 99.7715 67.8129C99.799 67.8746 99.8346 67.9204 99.8782 67.9517C99.923 67.9822 99.9725 67.9978 100.027 67.9978H102.792V75.9607C102.792 76.0155 102.804 76.0622 102.827 76.0996C102.851 76.1372 102.895 76.1694 102.961 76.1969C103.026 76.2245 103.112 76.2448 103.222 76.2587C103.331 76.2723 103.467 76.279 103.631 76.279C103.802 76.279 103.942 76.2723 104.051 76.2587C104.16 76.2448 104.245 76.2245 104.308 76.1969C104.368 76.1694 104.413 76.1372 104.44 76.0996C104.468 76.0622 104.481 76.0158 104.481 75.9607V67.9975H107.246C107.307 67.9975 107.358 67.9819 107.399 67.9514C107.44 67.9204 107.476 67.8743 107.507 67.8126C107.537 67.7512 107.56 67.6726 107.573 67.577C107.587 67.481 107.594 67.3648 107.594 67.228C107.594 67.1048 107.585 66.9938 107.569 66.8943C107.55 66.7952 107.529 66.7132 107.502 66.648ZM117.519 66.4326C117.396 66.4155 117.239 66.4068 117.048 66.4068C116.83 66.4068 116.662 66.4155 116.547 66.4326C116.43 66.45 116.344 66.477 116.286 66.5146C116.227 66.5523 116.179 66.6358 116.138 66.7659L113.598 74.2158H113.567L110.936 66.8068C110.901 66.7178 110.87 66.6474 110.84 66.5964C110.807 66.5448 110.759 66.5056 110.691 66.4784C110.623 66.4509 110.53 66.4323 110.414 66.4219C110.298 66.4117 110.137 66.4065 109.933 66.4065C109.728 66.4065 109.564 66.4152 109.441 66.4323C109.318 66.4497 109.23 66.4819 109.176 66.5297C109.121 66.5775 109.094 66.6427 109.094 66.7248C109.094 66.8068 109.121 66.9196 109.176 67.0633L112.462 75.8883C112.482 75.9564 112.52 76.0216 112.575 76.083C112.629 76.1448 112.687 76.1891 112.748 76.2167L111.479 79.4286C111.438 79.5242 111.42 79.6062 111.428 79.6749C111.434 79.743 111.467 79.7981 111.525 79.839C111.583 79.8801 111.666 79.9088 111.775 79.9259C111.885 79.943 112.029 79.9517 112.206 79.9517C112.547 79.9517 112.801 79.9225 112.969 79.8645C113.136 79.8062 113.24 79.7227 113.281 79.6132L114.509 76.2167L117.817 67.0323C117.858 66.9091 117.877 66.8068 117.877 66.7245C117.877 66.6422 117.849 66.5772 117.791 66.5294C117.732 66.4822 117.642 66.45 117.519 66.4326ZM127.219 66.4683H122.489C122.332 66.4683 122.211 66.5181 122.126 66.6172C122.04 66.7167 121.991 66.8685 121.977 67.0738C121.875 68.0726 121.765 68.957 121.649 69.7262C121.533 70.4961 121.411 71.1683 121.281 71.7428C121.151 72.3172 121.008 72.8016 120.851 73.1946C120.694 73.5883 120.527 73.9065 120.35 74.1494C120.172 74.3923 119.981 74.5665 119.777 74.6723C119.572 74.7787 119.356 74.8317 119.131 74.8317C119.077 74.8317 119.03 74.8416 118.993 74.8622C118.955 74.8828 118.925 74.9239 118.902 74.9854C118.877 75.0471 118.861 75.1291 118.85 75.2317C118.84 75.3343 118.835 75.4677 118.835 75.632C118.835 75.7894 118.841 75.9178 118.855 76.0169C118.868 76.1164 118.89 76.1929 118.917 76.2477C118.944 76.3025 118.979 76.3401 119.024 76.3607C119.068 76.3813 119.122 76.3914 119.182 76.3914C119.558 76.3914 119.911 76.3335 120.242 76.2169C120.573 76.1007 120.88 75.9109 121.163 75.6474C121.447 75.3842 121.708 75.0369 121.947 74.6056C122.185 74.1749 122.401 73.6448 122.592 73.0152C122.783 72.3859 122.956 71.6468 123.109 70.799C123.262 69.9503 123.394 68.9825 123.504 67.8946H126.042V75.9601C126.042 76.0149 126.056 76.0616 126.083 76.099C126.111 76.1367 126.156 76.1688 126.222 76.1964C126.286 76.2239 126.373 76.2442 126.482 76.2581C126.592 76.2717 126.731 76.2784 126.903 76.2784C127.066 76.2784 127.203 76.2717 127.312 76.2581C127.421 76.2442 127.506 76.2239 127.568 76.1964C127.629 76.1688 127.673 76.1367 127.7 76.099C127.728 76.0616 127.741 76.0152 127.741 75.9601V67.0738C127.741 66.8685 127.696 66.7167 127.603 66.6172C127.51 66.5181 127.383 66.4683 127.219 66.4683ZM139.325 71.7483C139.488 72.1277 139.57 72.5535 139.57 73.0254C139.57 73.4975 139.484 73.9387 139.31 74.3491C139.135 74.7596 138.865 75.1155 138.496 75.4164C138.128 75.7172 137.657 75.9552 137.083 76.1294C136.51 76.3042 135.824 76.3912 135.025 76.3912C134.841 76.3912 134.65 76.3891 134.452 76.3859C134.254 76.3822 134.06 76.3752 133.868 76.3656C133.677 76.3549 133.49 76.3433 133.305 76.3294C133.121 76.3158 132.94 76.299 132.763 76.2781C132.476 76.2439 132.264 76.1514 132.128 76.0007C131.991 75.8506 131.923 75.6213 131.923 75.3138V66.7251C131.923 66.6703 131.935 66.6242 131.96 66.5862C131.982 66.5488 132.027 66.5146 132.091 66.4836C132.157 66.4535 132.244 66.4326 132.353 66.4222C132.462 66.412 132.599 66.4068 132.763 66.4068C132.926 66.4068 133.063 66.412 133.172 66.4222C133.281 66.4326 133.369 66.4532 133.434 66.4836C133.497 66.5146 133.544 66.5491 133.572 66.5862C133.599 66.6242 133.613 66.67 133.613 66.7251V69.9781C133.864 69.9575 134.137 69.9422 134.432 69.9317C134.725 69.9219 135.025 69.9164 135.333 69.9164C136.076 69.9164 136.716 69.99 137.252 70.1369C137.788 70.2845 138.227 70.4941 138.568 70.7683C138.909 71.0419 139.161 71.3683 139.325 71.7483ZM137.79 73.1384C137.79 72.8578 137.745 72.6033 137.656 72.3738C137.567 72.1448 137.421 71.95 137.216 71.7891C137.011 71.6283 136.744 71.5054 136.416 71.4199C136.089 71.3341 135.687 71.2912 135.209 71.2912C134.922 71.2912 134.64 71.2981 134.364 71.3117C134.088 71.3256 133.836 71.3425 133.612 71.3633V74.9138C133.85 74.941 134.106 74.9651 134.379 74.9854C134.652 75.0059 134.955 75.0161 135.291 75.0161C136.137 75.0161 136.765 74.8506 137.175 74.5187C137.584 74.1868 137.79 73.7268 137.79 73.1384ZM149.475 66.7045C149.577 66.8343 149.628 66.9952 149.628 67.1868V75.9604C149.628 76.0152 149.616 76.063 149.593 76.1042C149.569 76.1454 149.527 76.1778 149.465 76.2019C149.404 76.2254 149.318 76.2442 149.209 76.2581C149.1 76.2717 148.956 76.2784 148.779 76.2784C148.615 76.2784 148.479 76.2717 148.369 76.2581C148.26 76.2442 148.173 76.2254 148.109 76.2019C148.043 76.1778 148 76.1454 147.975 76.1042C147.951 76.063 147.939 76.0152 147.939 75.9604V72.0714H146.966C146.543 72.0714 146.214 72.1056 145.979 72.174C145.744 72.2425 145.532 72.3575 145.344 72.5178C145.156 72.679 144.987 72.8845 144.837 73.1335C144.687 73.3836 144.544 73.6897 144.408 74.0523L143.66 75.8581C143.626 75.9471 143.589 76.019 143.548 76.0735C143.507 76.128 143.446 76.1706 143.369 76.2019C143.29 76.232 143.191 76.2529 143.072 76.2633C142.952 76.2732 142.803 76.2787 142.626 76.2787C142.497 76.2787 142.382 76.2752 142.283 76.2685C142.184 76.2619 142.101 76.2497 142.032 76.2323C141.964 76.2155 141.913 76.1885 141.879 76.1503C141.844 76.1132 141.828 76.0668 141.828 76.012C141.828 75.9639 141.846 75.8871 141.884 75.7807C141.921 75.6752 141.998 75.4885 142.114 75.2216L142.852 73.4877C143.043 73.0497 143.278 72.672 143.558 72.3535C143.838 72.0358 144.158 71.8013 144.52 71.6509C143.858 71.5277 143.331 71.2627 142.938 70.8552C142.545 70.4488 142.349 69.9097 142.349 69.2393C142.349 68.7946 142.442 68.3926 142.625 68.0338C142.811 67.6743 143.082 67.3703 143.44 67.1204C143.798 66.8712 144.238 66.6796 144.761 66.5459C145.283 66.4126 145.881 66.3459 146.557 66.3459C146.72 66.3459 146.91 66.3494 147.126 66.3564C147.341 66.363 147.563 66.3735 147.792 66.3868C148.019 66.4004 148.242 66.4164 148.456 66.4332C148.671 66.4506 148.858 66.4654 149.014 66.4793C149.219 66.4993 149.373 66.5746 149.475 66.7045ZM147.939 67.7103C147.693 67.6761 147.441 67.6538 147.182 67.6439C146.922 67.6332 146.683 67.6283 146.465 67.6283C146.001 67.6283 145.613 67.6677 145.302 67.7462C144.992 67.8248 144.742 67.9378 144.555 68.0845C144.368 68.232 144.234 68.4045 144.155 68.603C144.077 68.8016 144.039 69.0201 144.039 69.2598C144.039 69.5062 144.084 69.7265 144.177 69.9219C144.269 70.1164 144.409 70.2804 144.597 70.4143C144.784 70.5474 145.025 70.6497 145.318 70.7222C145.612 70.7938 146.021 70.8297 146.547 70.8297H147.939V67.7103H147.939ZM66.333 55.0651C66.333 56.8535 64.1333 58.3007 60.1518 58.3007C56.1718 58.3007 53.9707 56.8535 53.9707 55.0651C53.9707 55.0651 53.6977 50.5874 52.9698 44.4743H27.2327C26.5045 50.5874 26.2309 55.0651 26.2309 55.0651C26.2309 56.8535 24.0307 58.3007 20.0492 58.3007C16.068 58.3007 13.8681 56.8535 13.8681 55.0651C13.8681 51.7112 14.0144 48.1332 14.3262 44.4743H2.95905C1.40054 44.4743 0.136719 42.7343 0.136719 39.5862C0.136719 36.4375 1.40054 34.6978 2.95905 34.6978H15.555C18.5644 16.8778 25.9163 0.0488281 40.1017 0.0488281C59.8195 0.0488281 66.333 32.5677 66.333 55.0651ZM51.5593 34.6978C49.5326 22.9752 45.9956 10.5483 40.1014 10.5483C34.2054 10.5483 30.6685 22.9752 28.6435 34.6978H51.5593ZM106.67 47.8262H83.8792V37.7526H100.552C102.111 37.7526 103.374 36.0129 103.374 32.8645C103.374 29.7175 102.111 27.9778 100.552 27.9778H83.8792V16.4074H106.67C108.229 16.4074 109.492 14.6674 109.492 11.5198C109.492 8.37115 108.229 6.63144 106.67 6.63144H74.0975C72.5378 6.63144 71.2746 7.89753 71.2746 9.45984V54.7714C71.2746 56.3352 72.5378 57.6022 74.0975 57.6022H78.3178H106.67C108.229 57.6022 109.492 55.8625 109.492 52.7141C109.492 49.5662 108.23 47.8262 106.67 47.8262ZM224.701 47.1245C219.884 60.439 207.872 74.8155 186.164 74.8155C153.203 74.8155 145.833 43.2549 126.05 43.2549V54.7175C126.05 56.7584 123.785 58.41 119.685 58.41C115.585 58.41 113.32 56.7584 113.32 54.7175V9.56912C113.32 8.00593 114.584 6.74072 116.143 6.74072H138.046C150.643 6.74072 158.588 13.1874 158.588 23.341C158.588 33.5616 150.045 38.8207 143.931 38.8207C155.911 43.5714 165.744 64.5109 186.165 64.5109C196.97 64.5109 207.344 58.4216 213.413 46.4196C214.173 44.9167 215.978 43.29 220 43.29C224.511 43.29 225.274 45.5398 224.701 47.1245ZM145.129 23.7978C145.129 18.2033 140.604 15.8013 134.246 15.8013H126.025V32.5665H134.246C141.401 32.5665 145.129 29.7059 145.129 23.7978ZM161.437 32.4326C161.437 17.6932 172.496 5.74506 186.136 5.74506C199.777 5.74506 210.836 17.6932 210.836 32.4326C210.836 47.1729 199.777 59.1225 186.136 59.1225C172.496 59.1225 161.437 47.1726 161.437 32.4326ZM175.314 32.4326C175.314 41.9955 180.158 49.7471 186.136 49.7471C192.114 49.7471 196.96 41.9955 196.96 32.4326C196.96 22.8714 192.114 15.1198 186.136 15.1198C180.158 15.1198 175.314 22.8714 175.314 32.4326Z" fill="#FF5000"/>
</g>
<defs>
<clipPath id="clip0_3001_2813">
<rect width="225" height="80" fill="white"/>
</clipPath>
</defs>
</svg>
