<svg width="225" height="37" viewBox="0 0 225 37" fill="none" xmlns="http://www.w3.org/2000/svg">
<path d="M36.4731 6.81367C35.869 6.77743 35.3254 6.87408 34.7576 6.88616C33.2233 6.93448 31.7131 6.9224 30.1667 6.88616L28.8742 6.84992H26.6754C25.9867 6.83783 25.3224 6.9224 24.6458 6.84992C24.1142 6.78951 23.6911 6.95864 23.1596 6.83783H0V0H65.7098V6.91031C65.4682 6.88615 65.299 6.82575 65.0332 6.82575H48.228L47.4308 6.84992H39.6747C38.9861 6.83783 38.3338 6.9224 37.6452 6.88616L36.4731 6.82575V6.81367Z" fill="black"/>
<path d="M66.2656 36.9926L59.2343 36.9563L57.241 31.3387L54.9817 24.6941L53.4474 20.1759C53.0608 18.8349 52.6137 17.5905 52.1667 16.2737L49.7266 8.9043H57.3012L58.6665 13.3139L60.0678 17.6389L63.6199 28.8258L66.2656 37.0047V36.9926Z" fill="black"/>
<path d="M9.15714 31.4474L7.12758 36.9684H0.277344L1.53384 32.9817L9.13295 8.9043H16.6837L14.5332 15.5126L10.1718 28.6325L9.15714 31.4474Z" fill="black"/>
<path d="M171.142 14.7869C172.301 15.3668 172.917 16.5749 172.99 17.7347C173.086 19.2206 173.05 20.6945 173.002 22.1925C172.978 22.9295 172.7 23.606 172.446 24.2584C171.782 25.3819 170.743 26.3363 169.377 26.3484L163.458 26.433L163.434 4.14355L169.136 4.19187C170.586 4.20395 171.83 5.13419 172.434 6.36645C173.062 7.90074 173.062 9.79745 172.966 11.4042C172.881 12.7935 172.422 14.1345 171.142 14.7627V14.7869ZM170.211 12.2257C170.501 10.7277 170.501 9.22964 170.127 7.74368C169.039 6.18524 167.879 6.82553 166.103 6.68056V13.615C167.807 13.5305 169.341 14.0741 170.211 12.2137V12.2257ZM170.392 21.6731C170.562 20.5495 170.562 19.4985 170.392 18.3629C170.465 17.4085 169.825 16.3574 168.834 16.2125C167.916 16.0796 167.034 16.2245 166.103 16.1641V23.8718C167.179 23.7872 168.496 24.0772 169.51 23.5335C170.151 23.1832 170.441 22.3858 170.392 21.6731Z" fill="black"/>
<path d="M192.708 20.3206L191.427 16.2856C190.92 16.2735 190.497 16.2252 189.99 16.3218L190.014 24.1382L189.978 26.3973H187.344L187.332 15.5245V13.3861L187.344 4.15625L193.022 4.20458C194.617 4.21666 195.91 5.21938 196.514 6.6691C196.997 7.84095 197.082 9.06113 197.021 10.3296C197.154 12.7096 196.562 15.4278 194.086 16.0802L197.504 26.3853H194.629L192.72 20.3206H192.708ZM194.255 8.73494C194.255 8.20338 194.001 7.64765 193.687 7.2973C192.95 6.45163 191.041 6.76574 189.978 6.70534V13.809C190.884 13.9539 191.657 13.809 192.539 13.7606C193.421 13.7123 194.17 12.9029 194.242 11.9485C194.315 10.8974 194.279 9.87056 194.255 8.73494Z" fill="black"/>
<path d="M98.2921 25.3464C97.4465 24.4161 97.0114 23.208 96.9147 21.9637C96.8422 21.1664 96.782 20.3932 96.782 19.5837L96.7578 12.9996C96.7578 11.8761 96.77 10.8129 96.8304 9.67733C96.9029 8.36051 96.9753 7.04369 97.7244 5.90807C98.0506 5.42483 98.4853 4.88118 99.0168 4.57916C101.167 3.33482 104.454 3.62477 105.867 5.72686C106.459 6.60877 106.93 7.63565 106.93 8.75919V21.9637C106.93 23.2684 106.29 24.549 105.468 25.4068C104.49 26.4216 103.233 26.6632 101.917 26.6632C100.6 26.6632 99.2586 26.4337 98.2801 25.3585L98.2921 25.3464ZM100.503 23.5584C101.264 24.2108 102.653 24.1866 103.402 23.4859C104.019 22.9181 104.296 22.0241 104.309 21.1664L104.345 10.0035C104.345 9.56861 104.224 9.14577 104.176 8.72293C104.043 7.3457 102.895 6.39131 101.445 6.60876C100.551 6.74165 99.6934 7.63565 99.6814 8.63837L99.6088 15.0655C99.6088 15.4762 99.5003 15.8507 99.5365 16.2494C99.6936 17.7837 99.4517 19.2576 99.5725 19.9341C99.6933 20.6106 99.2947 22.5194 100.503 23.5584Z" fill="black"/>
<path d="M183.405 25.5152C182.305 26.5421 180.88 26.7354 179.49 26.6508C177.304 26.53 175.576 24.9474 175.201 22.7849C175.141 22.4346 175.141 22.1084 174.996 21.7339L175.069 8.42062C175.069 6.92258 175.866 5.48495 177.05 4.6876C179.285 3.20164 182.921 3.63656 184.274 6.12524C184.83 7.01924 184.927 8.00987 185.12 9.073L185.072 21.5889C185.072 23.1111 184.444 24.5246 183.392 25.5152H183.405ZM177.726 20.9607C177.763 21.9392 177.871 22.8091 178.62 23.4977C179.237 24.0655 180.251 24.1863 181.097 23.7635C181.641 23.4856 182.353 22.7003 182.353 21.8184V8.77097C182.341 7.4179 181.157 6.54808 180.046 6.56016C175.914 6.60848 177.884 15.2101 177.726 17.6022C177.678 18.327 177.654 18.9794 177.678 19.6922L177.726 20.9728V20.9607Z" fill="black"/>
<path d="M148.646 11.7791C148.719 9.23002 148.731 6.66885 148.441 4.19225L151.244 4.16809C151.232 10.0153 151.619 16.0195 151.196 21.8426C151.087 23.244 150.664 24.6937 149.601 25.6239C148.646 26.4575 147.318 26.7474 146.061 26.687C144.539 26.6266 142.92 26.0105 142.123 24.7058C141.494 23.6668 141.47 22.3862 141.47 21.166C141.47 15.5 141.446 9.82199 141.422 4.15601H144.068L144.092 21.7218C144.092 22.652 144.708 23.4856 145.517 23.8238C149.335 25.4185 148.513 18.2545 148.525 16.5269C148.525 14.9685 148.598 13.3738 148.634 11.767L148.646 11.7791Z" fill="black"/>
<path d="M84.483 22.3504C84.3501 24.223 83.2629 25.8056 81.5232 26.3613C80.5929 26.6512 79.6989 26.8083 78.7565 26.6996C77.633 26.5788 76.5336 26.3855 75.712 25.5398C74.5523 24.3317 74.2262 22.4712 74.2986 20.804H77.0653C76.9807 21.7947 77.0652 22.8457 77.8384 23.5343C78.7444 24.3438 80.2548 24.2713 81.1247 23.4619C81.7167 22.9182 81.7165 22.1088 81.8252 21.4081C81.8856 21.0577 81.7889 20.7799 81.801 20.4658C81.9581 15.0535 74.3471 17.3006 74.48 9.47208C74.5042 8.33647 74.5404 7.28542 75.0357 6.27062C75.4948 5.31622 76.1593 4.59137 77.1862 4.21686C78.8655 3.58865 81.3177 3.70946 82.6708 4.9538C83.4682 5.69074 83.9275 6.7297 84.0724 7.81699C84.157 8.43312 83.9638 9.02508 84.1571 9.67746L81.5474 9.70162C81.6319 8.61434 81.4992 6.89883 80.2065 6.65721C79.6266 6.54848 78.9622 6.59681 78.3943 6.68138C77.3795 7.21294 77.2464 8.26399 77.2585 9.36336C77.2585 10.1607 77.2586 11.0064 77.6814 11.7071C78.7567 13.4709 81.2938 13.6883 83.2026 16.1891C84.6282 18.0496 84.6521 20.0309 84.483 22.3625V22.3504Z" fill="black"/>
<path d="M127.252 25.322C125.657 27.11 121.32 27.2308 119.677 25.3824C118.868 24.4763 118.566 23.3286 118.53 22.1084C118.517 21.6614 118.348 21.2507 118.469 20.7795H121.187V22.1084C121.187 22.9903 121.936 23.8481 122.818 23.9689C123.7 24.0897 124.51 24.0655 125.102 23.4977C125.524 23.0991 125.79 22.4709 125.79 21.891C125.827 19.8734 126.044 18.4358 124.196 17.119C122.408 15.8505 121.368 15.7055 119.882 14.0383C119.049 13.096 118.699 11.8758 118.59 10.6194C118.409 8.63813 118.505 5.90783 120.366 4.67557C122.226 3.44331 124.582 3.58828 126.358 4.69973C127.965 5.70246 128.267 7.94951 128.207 9.67709H125.585C125.561 9.14553 125.633 8.67437 125.548 8.17905C125.379 7.16425 124.546 6.41523 123.483 6.62061C122.661 6.37899 121.852 6.80182 121.514 7.58709C121.236 8.2153 121.308 8.87975 121.284 9.56837C121.151 13.5189 124.449 12.8786 126.962 15.8867C128.581 17.8197 128.702 19.8493 128.521 22.3017C128.436 23.4615 128.013 24.4642 127.24 25.322H127.252Z" fill="black"/>
<path d="M213.015 25.261C211.36 27.2544 207.252 27.0731 205.827 25.4301C205.09 24.5845 204.57 23.5576 204.558 22.4099L204.498 17.8674L204.462 13.772C204.462 13.2525 204.474 12.7451 204.486 12.2015V10.933C204.51 10.4014 204.486 9.85775 204.449 9.30202C204.329 7.61068 204.437 5.94351 204.401 4.20385L207.144 4.17969L207.168 11.537V12.9022L207.192 21.1776C207.192 22.0595 207.458 23.0139 208.11 23.5455C208.763 24.0771 209.608 24.1133 210.357 23.7509C210.889 23.4851 211.505 22.7602 211.505 21.9387L211.553 4.22801L214.308 4.19176L214.247 22.0475C214.247 23.2676 213.74 24.367 212.991 25.2731L213.015 25.261Z" fill="black"/>
<path d="M224.77 26.4215L215.733 26.3973C215.89 25.6242 215.516 24.7543 215.794 24.0053L219.285 14.3043L222.1 6.71742L216.192 6.68118V4.15625H224.999V5.92007L218.584 23.7395H224.782V26.4094L224.77 26.4215Z" fill="black"/>
<path d="M91.8893 26.397H89.159V6.84995C88.9053 6.80162 88.7119 6.70497 88.4945 6.70497H85.4258V4.16797H95.4411L95.429 6.7533L91.9256 6.70497V25.5996C91.9256 25.8775 91.684 26.0708 91.9014 26.4091L91.8893 26.397Z" fill="black"/>
<path d="M135.926 21.8304L135.865 24.1016C135.865 24.4157 135.89 24.6815 135.89 24.9835C135.89 25.4426 135.769 25.8896 135.841 26.397H133.183V6.72914L129.547 6.69289V4.16797H139.671V6.70497H135.926C135.986 7.63521 135.877 8.48088 135.877 9.41111L135.853 18.9913C135.853 19.4383 135.877 19.7887 135.89 20.2357L135.914 21.8304H135.926Z" fill="black"/>
<path d="M153.817 22.2537C153.817 19.8858 153.817 17.5179 153.817 15.15C153.817 11.5378 154.095 7.79273 153.793 4.1926C154.663 4.07179 155.629 4.16844 156.511 4.16844V23.7517H161.682V26.3974C159.06 26.3974 156.427 26.3975 153.805 26.4095C153.805 25.0202 153.805 23.6309 153.805 22.2416L153.817 22.2537Z" fill="black"/>
<path d="M117.428 23.7633L117.452 26.4332L109.406 26.397V4.16797H112.052V23.7633H117.428Z" fill="black"/>
<path d="M201.757 23.5219C202.53 24.1622 202.494 25.4186 201.769 26.0952C201.165 26.6751 200.041 26.5301 199.51 25.926C198.93 25.2737 199.002 24.3555 199.51 23.7515C200.017 23.1474 201.032 22.93 201.757 23.5219Z" fill="black"/>
</svg>
