<svg width="225" height="53" viewBox="0 0 225 53" fill="none" xmlns="http://www.w3.org/2000/svg">
<path d="M118.557 6.6246C118.557 6.6246 118.542 18.4541 118.542 19.5029C118.542 20.9449 118.542 22.4024 118.866 23.8059C119.39 26.0345 120.778 28.0472 122.637 29.389C124.495 30.7308 126.809 31.4172 129.099 31.3632C131.15 31.3169 133.186 30.6923 134.875 29.5278C137.227 27.9007 138.623 25.3405 139.047 22.5412C139.109 17.228 139.163 11.9224 139.201 6.61688C141.306 6.58604 143.412 6.58604 145.509 6.61688C145.679 6.61688 145.602 31.2012 145.602 33.4376C145.602 36.1983 145.602 39.0053 144.777 41.6427C143.18 46.7631 138.476 50.6189 133.248 51.8142C125.667 53.5493 116.267 50.4724 113.19 42.8842L119.236 41.1337C120.138 43.0616 121.457 44.681 123.346 45.7066C124.873 46.5318 126.608 46.9328 128.336 47.0022C131.081 47.1178 133.95 46.339 135.962 44.4651C137.443 43.0924 138.353 41.2108 138.8 39.2675C139.031 38.2573 139.109 37.2471 139.139 36.2215C139.178 35.0185 139.201 33.8154 139.047 32.6202C138.53 32.8284 138.098 33.1908 137.659 33.5224C133.672 36.5222 128.228 37.4939 123.454 36.0518C118.673 34.6097 114.678 30.7925 113.013 26.0885C112.18 23.7211 111.918 21.2071 111.879 18.7086C111.871 18.215 111.979 12.4545 111.918 12.4545H100.25C100.25 12.4545 100.135 29.8286 100.119 31.4095C100.111 32.8669 100.096 34.3321 100.088 35.7896H93.4641C93.4641 35.7896 93.3484 18.7086 93.3407 17.1586C93.3407 15.5931 93.3098 14.02 93.3098 12.4545H81.1719V6.6246H118.542H118.557Z" fill="black"/>
<path d="M168.683 5.78385C170.125 5.93037 171.559 6.20799 172.947 6.6167C175.716 7.42641 178.438 8.72966 180.628 10.6344C182.332 12.1227 183.751 13.9581 184.615 16.0556C186.558 20.7674 185.371 26.204 182.201 30.0829C180.312 32.3963 177.775 34.1237 175.014 35.2265C168.536 37.8253 160.648 37.0849 155.034 32.7434C154.879 32.6277 154.509 32.4041 154.509 32.1727V51.5672H148.047V20.0348L148.201 19.2482C148.494 16.9039 149.435 14.683 150.869 12.8013C152.281 10.9429 154.131 9.44683 156.167 8.32094C158.697 6.91745 161.65 5.99206 164.534 5.753C165.914 5.63733 167.31 5.65276 168.691 5.79156M178.947 19.8651C177.212 9.70131 161.588 7.85826 156.198 15.9631C152.427 21.6233 155.65 28.6562 161.866 30.6921C168.59 32.8899 177.135 30.2063 178.839 22.6567C178.885 22.4639 178.916 22.2711 178.955 22.0783C179.124 21.0527 179.132 20.8907 178.955 19.8728" fill="black"/>
<path d="M207.949 5.73737C209.545 5.86847 211.133 6.16922 212.66 6.64733C217.21 8.05854 221.482 11.0583 223.626 15.4076C224.366 16.9037 224.821 18.5308 224.983 20.1888C225.03 25.3941 224.976 30.5993 224.829 35.7969H218.521C218.467 34.6556 218.421 33.5066 218.374 32.3653C218.32 32.3576 218.251 32.3499 218.205 32.3267C218.035 32.2882 217.187 33.0902 217.017 33.2058C216.601 33.4989 216.177 33.7765 215.737 34.0387C214.866 34.5631 213.956 35.0335 213.015 35.419C208.519 37.2544 202.959 37.1696 198.425 35.5039C194.569 34.0927 191.16 31.3551 189.217 27.7461C187.266 24.1371 186.873 19.6567 188.438 15.8626C190.374 11.1586 194.947 8.08168 199.659 6.60106C202.311 5.76822 205.188 5.51374 207.956 5.73737M207.478 10.9504C206.082 10.827 204.663 10.9118 203.291 11.1894C200.946 11.6598 198.679 12.67 196.929 14.2895C195.178 15.9089 193.967 18.1761 193.852 20.5666C193.721 23.1886 194.908 25.7719 196.728 27.6612C199.89 30.9541 204.895 32.1956 209.337 31.1623C212.791 30.368 216.007 28.1856 217.565 25.0008C218.128 23.8518 218.467 22.5871 218.459 21.3147C218.452 15.8935 213.524 11.8758 208.527 11.0738C208.18 11.0198 207.825 10.9735 207.478 10.9427" fill="black"/>
<path d="M64.1596 5.70685C64.2753 5.71457 64.391 5.72999 64.5067 5.7377C69.9201 6.29293 75.3799 8.89171 78.5956 13.3798C80.8937 16.5955 81.2792 20.6672 81.2638 24.5076C81.2638 25.3867 81.071 35.7895 81.0248 35.7895H74.7167C74.655 34.5017 74.6088 33.3604 74.5779 32.3579L74.4083 32.3193C74.2926 32.2962 73.7142 32.8437 73.5986 32.9363C73.2824 33.1676 72.9585 33.3913 72.6346 33.6072C67.892 36.7226 61.7768 37.4629 56.3247 35.99C51.3662 34.6559 46.9012 31.286 44.8422 26.4971C42.7524 21.6312 43.593 15.8398 47.1557 11.8838C51.05 7.56533 57.2347 5.4678 62.9489 5.63745C63.3499 5.65288 63.7586 5.67601 64.1596 5.70685ZM63.6815 10.943C63.5813 10.9353 63.4733 10.9276 63.3731 10.9198C60.4272 10.7193 57.3658 11.4365 54.8441 12.9942C54.0652 13.4724 53.3404 14.043 52.708 14.7062C51.7903 15.6701 51.0655 16.8115 50.6028 18.0607C48.5978 23.4588 52.5384 28.7952 57.5123 30.6845C58.4994 31.0624 59.5404 31.3169 60.5892 31.4479C65.5477 32.0726 71.3545 29.8748 73.7065 25.2402C74.2463 24.1683 74.5702 22.9884 74.6396 21.7931C74.8016 18.8936 73.3981 16.1406 71.3082 14.1895C69.2338 12.2539 66.4962 11.1975 63.6892 10.9507" fill="black"/>
<path d="M33.6994 0H0V29.1959H6.77072V28.3399H6.63192C6.6165 21.0448 6.63192 13.7574 6.63192 6.46997H13.4104V29.0185H20.0346V6.46997H26.813V29.0185H33.4372C33.522 21.6077 33.3292 14.1892 33.4372 6.77844H33.7148V0.863693V0.00771318L33.6994 0Z" fill="#E2C122"/>
<path d="M40.0918 21.1604V6.03809H32.4959V28.201H27.2907V6.03809H19.6948V28.201H13.7106V6.03809H6.23047V35.7969H40.0918V21.1604Z" fill="black"/>
</svg>
