<svg width="225" height="28" viewBox="0 0 225 28" fill="none" xmlns="http://www.w3.org/2000/svg">
<path d="M80.4354 13.7624C80.3073 13.6494 80.1643 13.5589 80.006 13.4835C79.3578 13.1896 78.5738 13.3479 77.9784 13.7323C76.5539 14.6442 76.1017 16.1592 76.1093 17.7645C76.1243 20.4477 76.1243 23.1233 76.1243 25.8064V26.9144H69.1301C69.1301 25.3542 69.1301 23.7941 69.1301 22.2415C69.1301 21.028 69.1301 19.8146 69.1301 18.6087C69.1301 17.4028 69.2959 16.0235 68.9416 14.8628C68.5196 13.4835 67.178 12.9484 65.9193 13.6795C63.2889 15.2246 64.0426 18.4428 64.0426 20.9753V26.6204C64.0426 26.7184 64.0426 26.8239 64.0426 26.9219L56.875 26.9068V7.55198H63.2439L63.2814 10.3105C65.1279 8.0042 68.1579 6.87366 71.1048 7.22036C72.0846 7.33341 73.0568 7.61981 73.8784 8.16247C74.6999 8.70513 75.3631 9.53419 75.5893 10.4914C76.863 8.66744 79.0034 7.56706 81.2042 7.25051C82.8925 7.00179 84.7315 7.21282 86.0655 8.27552C87.1433 9.13473 87.7765 10.4612 88.0554 11.8103C88.4021 13.476 88.2815 15.202 88.2815 16.8902C88.2815 18.2846 88.2815 19.6864 88.2815 21.0808C88.2815 23.0102 88.2815 24.9397 88.2815 26.8767V26.9294H81.2042C81.2042 25.4522 81.2042 23.975 81.2042 22.4977C81.2042 21.2918 81.2042 20.0859 81.2042 18.88C81.2042 17.8097 81.355 16.7094 81.257 15.6466C81.1967 14.9532 80.9253 14.2297 80.4204 13.785L80.4354 13.7624Z" fill="black"/>
<path d="M21.7894 13.4613C21.4578 13.5518 21.141 13.71 20.8697 13.8985C18.6162 15.4963 19.3323 18.7372 19.3323 21.1113C19.3323 23.0408 19.3323 24.9777 19.3323 26.9072H12.1723C12.1723 23.2744 12.3004 19.6265 12.1798 15.9937C12.1496 15.1722 12.0666 14.2452 11.441 13.7176C10.823 13.19 9.85839 13.2503 9.13485 13.6347C8.00431 14.2301 7.32601 15.4661 7.08483 16.7173C6.79088 18.2397 7.08483 19.7848 7.08483 21.3148C7.08483 23.1764 7.08483 25.0456 7.08483 26.9072H0.0905315L0 26.4625V7.54483H6.30095C6.30849 8.17039 6.3159 8.72812 6.36112 9.33861C6.34605 9.63255 6.33114 9.93403 6.33868 10.228C8.52439 8.26083 10.9588 6.88911 14.0414 7.17551C16.0613 7.36394 18.2018 8.4794 18.7444 10.439C20.3498 8.36635 22.9574 7.11522 25.5728 7.14536C27.1178 7.16044 28.7157 7.65034 29.786 8.75827C30.8713 9.88881 31.2859 11.5092 31.3839 13.0694C31.6778 17.6443 31.4139 22.3172 31.4139 26.9072H24.4122C24.4122 26.9072 24.3971 17.1695 24.3896 16.3555C24.3896 15.3908 24.3141 14.2904 23.5605 13.7025C23.063 13.3181 22.4074 13.2804 21.7894 13.4538V13.4613Z" fill="black"/>
<path d="M184.932 14.2219C184.812 14.0108 184.661 13.8299 184.465 13.6792C183.9 13.2571 183.101 13.2571 182.453 13.5435C181.804 13.8299 181.292 14.3424 180.862 14.9002C180.154 15.8121 180.312 16.8447 180.312 17.93C180.312 19.1887 180.312 20.4474 180.312 21.706C180.312 23.4471 180.312 25.1806 180.312 26.9216H173.19C173.19 23.5827 172.994 20.176 173.19 16.8522C173.235 16.1739 173.25 15.4805 173.039 14.8323C172.828 14.1842 172.361 13.5887 171.705 13.3928C170.929 13.1667 170.092 13.5511 169.474 14.0787C167.401 15.8348 167.982 18.8495 167.974 21.284C167.974 23.1607 167.974 25.0449 167.974 26.9216H160.965V7.55167H167.432C167.432 8.37319 167.333 9.30024 167.492 10.0841C169.203 8.61438 170.657 7.56675 172.986 7.2502C174.305 7.06931 175.684 7.11453 176.928 7.59689C178.172 8.07926 179.257 9.05906 179.679 10.3177C181.345 8.65206 183.478 7.32556 185.822 7.12206C188.166 6.91857 190.713 8.04911 191.708 10.1821C193.019 12.9858 192.386 17.1914 192.386 20.2213C192.386 20.6358 192.386 26.914 192.386 26.914H185.392C185.392 23.2511 185.656 19.4902 185.347 15.8423C185.301 15.2846 185.196 14.6891 184.925 14.2143L184.932 14.2219Z" fill="black"/>
<path d="M119.137 26.9068C117.546 26.4019 116.107 25.4447 115.044 24.1634C113.763 22.6108 113.069 20.621 112.828 18.6238C112.534 16.129 112.949 13.5062 114.245 11.3506C115.542 9.19505 117.765 7.55954 120.26 7.22038C121.564 7.04703 122.913 7.25052 124.104 7.79318C124.707 8.06451 125.279 8.42628 125.777 8.87096C126.274 9.31564 126.568 9.94121 127.096 10.2804C127.216 9.80554 127.126 9.18752 127.126 8.68254C127.126 7.74042 127.126 6.79078 127.126 5.84866C127.126 4.07748 127.126 2.3063 127.126 0.535121V0H134.113C134.113 2.74344 134.113 5.49442 134.113 8.23786C134.113 11.8104 134.052 15.3904 134.113 18.9705C134.113 19.3247 134.165 19.6337 134.241 19.9879C134.278 20.1613 134.316 20.3422 134.399 20.5004C134.633 20.9376 135.228 20.8396 135.401 21.126C135.733 21.6837 135.575 22.6409 135.552 23.2439C135.522 24.2086 135.484 25.1658 135.454 26.1305C135.416 27.2988 134.693 27.1706 133.758 27.2385C132.681 27.3138 131.58 27.3892 130.555 27.0576C129.108 26.5978 128.633 25.3542 128.143 24.0503C128.294 24.4423 126.983 25.5577 126.719 25.7688C126.078 26.2737 125.362 26.628 124.593 26.8767C122.965 27.4118 121.172 27.4721 119.514 27.035C119.385 26.9973 119.25 26.9596 119.122 26.9219L119.137 26.9068ZM124.601 21.4049C124.887 21.3144 125.189 21.1712 125.49 20.9828C127.269 19.8447 127.729 17.3726 126.855 15.5412C126.041 13.8529 124.179 12.5791 122.317 13.3705C118.097 15.1718 120.689 22.6485 124.601 21.4049Z" fill="black"/>
<path d="M33.8991 19.8677C33.9971 19.2949 34.178 18.7372 34.4342 18.2171C35.5723 15.941 37.6827 14.931 40.1397 14.7954C41.3306 14.7275 42.5214 14.8255 43.7047 14.9009C44.2926 14.9386 44.8805 14.9763 45.4684 14.9913C45.7548 14.9913 46.0336 15.0818 46.1542 14.818C46.4331 14.1924 45.7473 13.2578 45.3403 12.8358C44.6997 12.165 43.7575 11.8861 42.8531 11.8635C41.8733 11.8409 40.8406 12.0595 39.9061 12.3685C39.6121 12.4665 36.5523 13.8231 36.6729 14.0191C36.0548 12.979 34.57 10.7631 35.2634 9.57982C35.6854 8.84873 36.5069 8.45681 37.2681 8.17041C39.2353 7.43933 41.4512 7.25091 43.5389 7.19815C44.0137 7.19061 44.496 7.18307 44.9708 7.21322C47.6615 7.40164 50.4126 8.58494 51.8597 10.8611C52.7038 12.1876 53.0203 13.7553 53.0881 15.3079C53.1409 16.4083 52.8319 17.471 52.8846 18.5638C52.9148 19.2874 53.1184 20.0185 53.5781 20.5762C53.8344 20.8928 54.1811 21.149 54.3243 21.5334C54.5655 22.1891 54.3922 23.0785 54.3846 23.7568L54.3469 26.4776C54.3469 26.6057 54.3469 26.7339 54.2715 26.8394C54.1735 26.9977 53.9625 27.0353 53.7817 27.0655C52.7491 27.2238 51.7089 27.382 50.6688 27.2916C49.8096 27.2238 48.8375 26.975 48.1667 26.4022C47.4959 25.8294 47.2471 24.8572 47.1416 24.0281C46.7044 24.4577 46.2823 24.9627 45.8 25.3395C42.7852 27.6685 37.9541 28.2865 35.2634 25.0984C34.0575 23.6739 33.5751 21.6917 33.8991 19.8602V19.8677ZM45.8151 20.8023C46.2371 20.2898 46.1165 18.8879 45.996 18.7975C45.7698 18.6241 44.6619 18.4282 44.2624 18.3603C43.7047 18.2624 43.1168 18.089 42.5591 18.4206C41.8355 18.3679 41.2855 18.7447 40.8106 19.2723C40.2529 19.8903 40.1623 21.0661 40.8406 21.5937L41.5568 22.1514C42.3708 22.3172 43.275 22.3775 44.0363 22.061C44.9407 21.6841 45.2121 21.5409 45.8075 20.8098L45.8151 20.8023Z" fill="black"/>
<path d="M195.064 23.1608C194.702 22.2337 194.566 21.2238 194.717 20.2365C195.086 17.7568 197.159 15.7595 199.533 14.9606C201.907 14.1617 204.522 14.3953 206.942 15.0435C207.304 13.9356 206.527 12.692 205.465 12.2021C204.402 11.7122 203.166 11.8177 202.028 12.0815C200.445 12.4508 198.938 13.1065 197.589 14.0109C196.918 12.5639 196.315 11.0715 195.568 9.66968C198.794 7.49904 202.97 6.78303 206.784 7.3483C209.075 7.68747 211.441 8.61451 212.745 10.5289C213.559 11.7273 213.883 13.197 213.974 14.6365C214.064 16.0836 213.951 17.5307 213.966 18.9778C213.966 19.4451 213.996 19.935 214.215 20.3495C214.433 20.764 214.908 21.0806 215.36 20.9675C215.36 22.9271 215.36 24.8867 215.368 26.8463C213.913 27.2609 212.361 27.5699 210.899 27.193C209.437 26.8162 208.103 25.5349 208.133 24.0275C206.791 25.6254 204.922 26.8162 202.872 27.193C200.822 27.5699 198.591 27.0951 196.97 25.7836C196.126 25.0978 195.463 24.1783 195.071 23.1608H195.064ZM203.49 22.294C203.535 22.294 203.573 22.294 203.611 22.294C204.327 22.3016 205.027 22.0755 205.653 21.7363C206.181 21.4499 206.686 21.0655 206.957 20.5229C207.221 19.9802 207.198 19.2642 206.768 18.8421C206.128 18.209 204.492 18.1789 203.641 18.2995C202.344 18.4803 200.807 19.6787 201.462 21.1484C201.802 21.8946 202.698 22.2488 203.482 22.294H203.49Z" fill="black"/>
<path d="M92.2583 25.2265C90.9393 23.8397 90.2835 21.8198 90.6528 19.9431C91.708 14.6447 98.0843 13.891 102.395 14.9462C102.501 14.9688 102.621 14.9989 102.704 14.9311C102.757 14.8934 102.787 14.8256 102.81 14.7653C103.104 13.9136 102.606 12.9413 101.845 12.4514C101.084 11.9615 100.134 11.8862 99.2373 11.9314C97.1722 12.0444 95.1524 12.7906 93.5169 14.0493C93.2681 13.5368 91.1804 9.76075 91.6251 9.51957C95.5594 7.37908 100.594 6.3013 104.928 7.88406C106.819 8.57746 108.538 9.93411 109.314 11.7957C109.902 13.2202 109.902 14.7879 109.872 16.3028C109.849 17.4484 109.488 19.6567 110.256 20.629C110.324 20.7119 111.168 21.1566 111.168 20.9983C111.168 22.1816 111.168 23.3574 111.168 24.5407C111.168 25.1135 111.5 26.6058 110.912 26.9676C110.739 27.0731 110.535 27.1032 110.339 27.1258C109.194 27.2841 108.025 27.4349 106.887 27.2012C106.119 27.0429 105.357 26.6661 104.822 26.0782C104.619 25.8521 103.661 24.3447 103.948 24.0734C102.094 25.8446 100.202 27.2766 97.5039 27.3369C95.5745 27.3821 93.6223 26.651 92.2807 25.2642C92.2732 25.2567 92.2582 25.2416 92.2507 25.2341L92.2583 25.2265ZM101.988 21.4958C103.036 20.7421 102.109 21.1792 102.847 20.6441L102.878 18.8352C102.26 18.4433 101.589 18.481 100.941 18.3227C100.443 18.2021 99.9835 18.2021 99.5238 18.3604C99.3881 18.4056 98.3781 18.3453 97.549 19.3628C97.1571 19.8452 97.0817 20.6365 97.3681 21.2169C97.5942 21.4882 97.9637 21.8198 98.2501 22.0761C99.5087 22.4605 100.873 22.2796 101.981 21.4807L101.988 21.4958Z" fill="black"/>
<path d="M150.587 26.982C148.243 27.5398 145.74 27.3287 143.396 26.4921C139.779 25.1958 137.284 21.254 137.216 17.478C137.156 13.8753 139.198 10.3556 142.258 8.49395C148.499 4.6878 157.483 8.56179 158.531 15.8651C159.066 19.5657 157.377 23.191 154.31 25.3315C153.149 26.1379 151.898 26.6881 150.594 26.9971L150.587 26.982ZM147.851 21.4273C148.303 21.4273 148.793 21.3293 149.313 21.0806C152.298 19.6486 152.004 14.516 149.042 13.2422C146.615 12.1946 144.617 14.7044 144.489 16.8449C144.361 18.9778 145.748 21.4047 147.851 21.4349V21.4273Z" fill="black"/>
<path d="M220.946 9.8363C223.185 9.8363 225 8.02087 225 5.78143C225 3.54199 223.185 1.72656 220.946 1.72656C218.706 1.72656 216.891 3.54199 216.891 5.78143C216.891 8.02087 218.706 9.8363 220.946 9.8363Z" fill="#ED6620"/>
</svg>
