<svg width="225" height="59" viewBox="0 0 225 59" fill="none" xmlns="http://www.w3.org/2000/svg">
<path d="M2.5713 55.7838H222.504V2.55959L2.59674 2.54673L2.54555 13.2739L0.0117188 13.2868L0.0371544 0L224.999 0.012865V58.2662L0.0500293 58.279L0.0117188 44.6193L2.54555 44.5936L2.5713 55.7838Z" fill="black"/>
<path d="M177.074 39.0762H174.373L174.347 35.7834C170.54 40.3624 163.98 40.9669 159.542 37.1854C156.841 34.8831 155.62 31.7447 155.761 28.1561C155.954 22.9211 160.121 18.4579 165.356 18.0335C169.035 17.7376 172.109 19.1139 174.373 22.0722L174.347 18.5994H177.061V39.089L177.074 39.0762ZM173.588 32.9794C173.833 32.5293 174.038 32.0534 174.193 31.5389C175.556 27.14 173.254 22.1365 168.713 20.876C166.424 20.2458 163.864 20.6316 161.948 22.0594C159.414 23.9501 158.115 26.947 158.629 30.1755C159.054 32.8765 160.906 35.5776 163.761 36.6195C167.543 37.9957 171.723 36.4008 173.588 32.9794Z" fill="black"/>
<path d="M149.822 29.262C150.13 29.5836 150.413 29.9437 150.645 30.3296C151.712 32.0789 151.841 34.4841 150.825 36.2848C148.896 39.7062 144.239 39.076 140.946 39.076C139.995 39.076 139.03 39.076 138.078 39.076V18.5992C138.078 18.5606 143.905 18.5992 144.445 18.5992C146.271 18.6635 147.931 18.985 149.166 20.4771C150.079 21.5832 150.477 23.101 150.207 24.5158C149.937 25.9307 149.011 27.2041 147.738 27.86C148.522 28.1687 149.23 28.6446 149.822 29.2492V29.262ZM147.429 23.8599C147.39 23.2039 147.185 22.5479 146.786 22.0205C146.078 21.0816 144.972 20.8629 143.853 20.8372C143.583 20.8372 140.702 20.8372 140.702 20.8501L140.715 27.0883C142.117 27.0626 143.583 27.1912 144.985 26.9725C145.693 26.8696 146.374 26.4966 146.812 25.9435C147.185 25.4805 147.365 24.9017 147.403 24.31C147.403 24.1557 147.416 23.9885 147.403 23.8341L147.429 23.8599ZM148.445 33.4423C148.445 32.4647 148.149 31.4486 147.455 30.7669C146.722 30.0595 145.667 29.7894 144.651 29.7379C143.352 29.6607 142.04 29.7122 140.741 29.7251L140.715 36.8379C140.715 36.9022 145.165 36.8122 145.538 36.7479C146.49 36.5935 147.442 36.1562 147.956 35.3459C148.316 34.7928 148.445 34.1111 148.432 33.4423H148.445Z" fill="black"/>
<path d="M106.603 39.0883H89.8825L89.7537 41.8022H87.1172V36.8888L89.5738 36.8245L92.6348 29.6731L97.3426 18.5986H98.9376L103.542 29.4544L106.719 36.8631H109.073V41.6479H106.616L106.591 39.0883H106.603ZM103.761 36.8245L100.906 29.6731L98.0888 22.8303L95.1819 29.6731L92.1849 36.8631L103.748 36.8245H103.761Z" fill="black"/>
<path d="M131.594 39.0374L128.996 39.076L128.932 24.0914C126.849 26.0079 125.33 27.77 123.517 29.5836L113.755 39.3203L113.703 18.6249H116.391L116.404 33.6352C117.909 32.1946 119.221 30.947 120.507 29.4421L131.543 18.4062L131.594 39.0374Z" fill="black"/>
<path d="M82.8859 39.0372L80.249 39.0629L80.2104 24.1169C78.191 26.0463 76.5447 27.7055 74.8083 29.622L65.1101 39.3073L65.0586 18.6376H67.6697L67.6826 33.6479C69.2003 32.233 70.3836 30.9082 71.7855 29.5062L82.8215 18.4189L82.873 39.0501L82.8859 39.0372Z" fill="black"/>
<path d="M201.05 39.0754H198.4L198.375 29.1329L186.49 29.12L186.477 39.0754H183.879V18.6244L186.477 18.6115L186.503 26.6504L198.388 26.6376L198.4 18.5986H201.05V39.0754Z" fill="black"/>
<path d="M55.8208 21.0426L43.9231 21.0169L43.9103 39.0756H41.2863L41.2734 18.6117L58.4447 18.5859V39.0756H55.8208V21.0426Z" fill="black"/>
<path d="M6.90689 29.4287L16.515 39.0754H12.8108L3.44701 29.7245C3.44701 29.7245 2.86804 30.3548 2.63652 30.612V39.0754H0V18.5986C0.553079 18.5986 1.67182 18.5986 2.61077 18.5986L2.67514 27.0106L12.0132 18.5986C13.3123 18.5986 14.5472 18.5986 15.7434 18.5986L5.49191 27.8209C5.99354 28.3997 6.37955 28.8885 6.91976 29.4287H6.90689Z" fill="black"/>
<path d="M37.1074 18.5986L32.387 29.5059L24.9783 46.4841L22.1358 46.4584L26.0843 37.4033L22.4702 29.2615L17.7109 18.6115H20.4894L25.4158 29.5959L27.4607 34.162L29.4544 29.6345L34.2391 18.5986H37.1074Z" fill="black"/>
<path d="M210.531 39.6288C211.817 39.6288 212.859 38.5865 212.859 37.3007C212.859 36.015 211.817 34.9727 210.531 34.9727C209.246 34.9727 208.203 36.015 208.203 37.3007C208.203 38.5865 209.246 39.6288 210.531 39.6288Z" fill="black"/>
</svg>
