<svg width="225" height="33" viewBox="0 0 225 33" fill="none" xmlns="http://www.w3.org/2000/svg">
<path d="M30.1735 7.64506H23.4355L20.6788 18.3058H20.6121L17.8887 7.64506H10.9258L13.8159 15.5407C14.1824 16.5318 16.6893 23.403 16.8392 24.2192C17.0225 25.2186 16.8808 26.2181 16.0563 26.5845C15.5982 26.7927 14.832 26.7178 14.0824 26.7344H13.4661V32.0731H17.7387C20.3956 32.0398 21.8864 32.0648 23.3522 27.509C23.777 26.2597 30.1735 7.63672 30.1735 7.63672" fill="black"/>
<path d="M41.5192 17.4158C41.0445 17.5324 39.7452 17.7073 38.9456 17.8239C37.2299 18.082 36.472 18.5818 36.5886 19.7311C36.6552 20.3641 37.4548 21.0387 38.9123 20.8805C40.2366 20.7306 41.5109 20.2142 41.5109 19.0149V17.4241M47.7658 24.7867H41.7191V23.2042H41.6524C40.1199 24.7783 38.5042 25.2197 35.8724 25.2197C33.0156 25.2197 30.1172 23.7539 30.1172 20.031C30.1172 14.1009 36.4221 14.7922 39.7452 14.1842C41.1278 13.926 41.5192 13.7511 41.5192 12.6601C41.5192 11.7106 40.9861 11.061 39.3787 11.0776C37.2466 11.0943 36.9884 11.7939 36.9468 12.8266H30.9001C31.0917 8.00431 34.0233 7.22975 39.6702 7.21309C47.8157 7.18811 47.7574 9.48683 47.7574 13.9177V24.7867H47.7658Z" fill="black"/>
<path d="M75.4567 17.4158C74.982 17.5324 73.6826 17.7073 72.8831 17.8239C71.1674 18.082 70.4095 18.5818 70.5261 19.7311C70.5927 20.3641 71.4007 21.0387 72.8582 20.8805C74.1908 20.7306 75.4567 20.2142 75.4567 19.0149V17.4241M81.7033 24.7867H75.6566V23.2042H75.5899C74.0574 24.7783 72.4417 25.2197 69.8099 25.2197C66.9531 25.2197 64.0547 23.7539 64.0547 20.031C64.0547 14.1009 70.3596 14.7922 73.6827 14.1842C75.0653 13.926 75.4567 13.7511 75.4567 12.6601C75.4567 11.7106 74.9237 11.061 73.3245 11.0776C71.1924 11.0943 70.9342 11.7939 70.8925 12.8266H64.846C65.0459 8.00431 67.9775 7.22975 73.616 7.21309C81.7615 7.18811 81.7033 9.48683 81.7033 13.9177V24.7867Z" fill="black"/>
<path d="M94.6461 12.626C94.6127 12.068 94.646 11.4933 94.2213 11.2018C93.8215 10.8687 92.972 10.8437 92.4473 10.8437C91.2313 10.8437 90.49 11.0436 90.4734 12.168C90.465 12.8842 90.8648 12.8926 91.2313 13.0591C92.314 13.5172 94.7793 13.6505 96.9448 14.3834C99.1103 15.0747 101.026 15.8243 101.026 19.1724C101.026 24.2279 97.5944 25.219 92.3473 25.219C86.6838 25.219 83.8438 24.6027 83.8438 19.1724H90.0486C90.0819 19.7637 89.957 20.3051 90.465 20.7715C90.9564 21.2129 91.7977 21.1796 92.5806 21.1879C93.6633 21.1963 94.7877 21.0297 94.7793 19.872C94.7793 18.8809 94.2213 18.5894 91.198 18.0564C86.2424 17.1985 84.2352 16.2823 84.2352 12.6677C84.2352 7.87868 88.1497 7.2207 92.2891 7.2207C96.4284 7.2207 100.568 7.64547 100.568 12.6344H94.6544" fill="black"/>
<path fill-rule="evenodd" clip-rule="evenodd" d="M116.661 2.07426C116.661 2.35743 116.461 2.48236 116.203 2.48236H115.437V1.65782H116.203C116.461 1.65782 116.661 1.79107 116.661 2.06592M117.161 2.0576C117.161 1.4496 116.728 1.17476 116.22 1.17476H114.945V4.08147H115.437V2.9571H115.995L116.561 4.08147H117.136L116.545 2.90713C116.919 2.79886 117.161 2.50735 117.161 2.04927V2.0576ZM118.177 2.69057C118.177 3.95654 117.219 4.92267 115.953 4.92267C114.687 4.92267 113.729 3.95654 113.729 2.69057C113.729 1.42461 114.696 0.450163 115.953 0.450163C117.211 0.450163 118.177 1.41628 118.177 2.69057ZM118.61 2.69057C118.61 1.17475 117.461 0.0253906 115.953 0.0253906C114.446 0.0253906 113.305 1.17475 113.305 2.69057C113.305 4.2064 114.454 5.35577 115.953 5.35577C117.452 5.35577 118.61 4.2064 118.61 2.69057Z" fill="black"/>
<path d="M58.6344 7.64501H62.4073V11.6761H58.6344V17.8893C58.6344 19.4801 58.9925 19.9965 60.6416 19.9965C61.133 19.9965 61.6244 19.9632 62.4073 19.8965V24.7855C60.7999 25.0104 59.2258 25.002 57.8515 25.002C55.8027 25.002 52.1297 24.7855 52.1297 20.0881V11.6594H49.2812V7.62835H52.1297V2.40625H58.6344V7.62835" fill="black"/>
<path d="M96.9813 26.7354H87.7031V32.0824H96.9813V26.7354Z" fill="black"/>
<path d="M1.14103 0.0078125H10.6274V5.35485H5.69691V26.7346H10.6274V32.0817H1.24107C0.549788 32.0817 0 31.6069 0 30.8324V1.25712C0 0.465891 0.441417 0.0161493 1.14103 0.0161493" fill="black"/>
<path d="M110.463 1.24931V30.8245C110.463 31.5991 109.905 32.0738 109.222 32.0738H99.8359V26.7268H104.767V5.34703H99.8359V0H109.322C110.022 0 110.463 0.449755 110.463 1.24098" fill="black"/>
<path d="M129.754 10.7018C125.739 10.7018 124.29 14.1332 124.29 17.3814C124.29 20.6296 125.739 24.061 129.754 24.061C133.377 24.061 134.859 20.6296 134.859 17.3814C134.859 14.1332 133.377 10.7018 129.754 10.7018ZM122.383 3.53906H124.282V12.5257H124.34C125.123 10.277 127.447 9.09431 129.745 9.09431C134.484 9.09431 136.75 12.9255 136.75 17.3897C136.75 21.8539 134.484 25.6768 129.745 25.6768C127.205 25.6768 125.065 24.4025 124.19 22.2453H124.132V25.2187H122.383V3.53906Z" fill="black"/>
<path d="M150.916 16.2907C150.824 13.409 149.017 10.7022 145.96 10.7022C142.903 10.7022 141.163 13.434 140.83 16.2907H150.916ZM140.83 17.8982C140.83 20.6883 142.337 24.0614 145.96 24.0614C148.734 24.0614 150.249 22.454 150.849 20.0553H152.748C151.932 23.6117 149.908 25.6772 145.952 25.6772C140.996 25.6772 138.914 21.8543 138.914 17.3901C138.914 13.2591 140.996 9.09473 145.952 9.09473C150.907 9.09473 152.956 13.5006 152.806 17.8982H140.821H140.83Z" fill="black"/>
<path d="M161.719 24.061C165.733 24.061 167.182 20.6296 167.182 17.3814C167.182 14.1332 165.733 10.7018 161.719 10.7018C158.096 10.7018 156.613 14.1332 156.613 17.3814C156.613 20.6296 158.096 24.061 161.719 24.061ZM169.09 25.2187H167.341V22.2453H167.282C166.466 24.3109 163.993 25.6768 161.727 25.6768C156.988 25.6768 154.723 21.8539 154.723 17.3897C154.723 12.9255 156.988 9.09431 161.727 9.09431C164.026 9.09431 166.35 10.277 167.132 12.5257H167.191V3.53906H169.09V25.2187Z" fill="black"/>
<path d="M179.051 24.061C183.065 24.061 184.514 20.6296 184.514 17.3814C184.514 14.1332 183.065 10.7018 179.051 10.7018C175.428 10.7018 173.945 14.1332 173.945 17.3814C173.945 20.6296 175.428 24.061 179.051 24.061ZM186.422 25.2187H184.673V22.2453H184.614C183.798 24.3109 181.325 25.6768 179.059 25.6768C174.32 25.6768 172.055 21.8539 172.055 17.3897C172.055 12.9255 174.32 9.09431 179.059 9.09431C181.35 9.09431 183.682 10.277 184.464 12.5257H184.523V3.53906H186.422V25.2187Z" fill="black"/>
<path d="M190.07 9.55239H191.969V25.2187H190.07V9.55239ZM190.07 3.53906H191.969V6.60403H190.07V3.53906Z" fill="black"/>
<path d="M195.59 9.55326H197.489V12.2601H197.548C198.272 10.3778 200.321 9.10352 202.528 9.10352C206.909 9.10352 208.233 11.4106 208.233 15.1502V25.2279H206.326V15.45C206.326 12.7765 205.452 10.7109 202.37 10.7109C199.288 10.7109 197.573 13.018 197.481 16.0913V25.2279H195.582V9.56158" fill="black"/>
<path d="M223.103 17.199C223.103 14.134 221.712 10.7026 218.089 10.7026C214.466 10.7026 212.959 13.9508 212.959 17.199C212.959 20.4472 214.558 23.4289 218.089 23.4289C221.379 23.4289 223.103 20.3639 223.103 17.199ZM225.002 23.9453C225.002 28.651 223.128 31.4744 218.089 31.4744C214.983 31.4744 211.868 30.0502 211.626 26.7354H213.525C213.916 29.0424 215.999 29.867 218.081 29.867C221.612 29.867 223.095 27.8015 223.095 23.9453V21.8214H223.036C222.162 23.762 220.346 25.0447 218.081 25.0447C213.1 25.0447 211.043 21.4883 211.043 16.9991C211.043 12.51 213.583 9.10352 218.081 9.10352C220.38 9.10352 222.278 10.5277 223.036 12.2601H223.095V9.55326H224.994V23.9453H225.002Z" fill="black"/>
</svg>
