<svg width="225" height="37" viewBox="0 0 225 37" fill="none" xmlns="http://www.w3.org/2000/svg">
<path d="M9.17322 29.2471V29.3447H23.6066V35.8441H0V29.3447L14.4723 14.7259V14.6283H0V8.17773H23.6066V14.6283L9.17322 29.2471Z" fill="#FA7300"/>
<path d="M48.8822 31.7748H48.7847C48.3065 32.4091 47.7599 33.0239 47.1354 33.6192C46.5108 34.2145 45.8179 34.722 45.0567 35.1709C44.2955 35.6198 43.4466 35.9711 42.5292 36.2443C41.6021 36.5176 40.6068 36.6542 39.5235 36.6542C37.6108 36.6542 35.8152 36.2834 34.1269 35.5515C32.4386 34.8195 30.965 33.7949 29.7061 32.4677C28.4472 31.1502 27.4517 29.5888 26.7198 27.8127C25.9879 26.0268 25.6172 24.0848 25.6172 21.9867C25.6172 19.8885 25.9782 17.9465 26.7198 16.1606C27.4517 14.3748 28.4472 12.8329 29.7061 11.5252C30.965 10.2175 32.4386 9.20258 34.1269 8.47067C35.8152 7.73875 37.6108 7.36792 39.5235 7.36792C40.6068 7.36792 41.6119 7.49478 42.5292 7.74851C43.4563 8.00224 44.2955 8.35356 45.0567 8.80247C45.8179 9.25138 46.5108 9.76859 47.1354 10.3541C47.7599 10.9397 48.3065 11.5545 48.7847 12.1888H48.8822V8.1779H55.5182V35.8442H48.8822V31.7845V31.7748ZM48.8822 21.9867C48.8822 20.8742 48.6773 19.8202 48.2577 18.8346C47.8478 17.8489 47.272 16.9901 46.5401 16.2582C45.8082 15.5263 44.9494 14.9408 43.9637 14.5114C42.9781 14.082 41.9046 13.8673 40.7628 13.8673C39.621 13.8673 38.5964 14.082 37.6107 14.5114C36.6251 14.9408 35.7663 15.5263 35.0344 16.2582C34.3025 16.9901 33.717 17.8489 33.2876 18.8346C32.8582 19.8202 32.6435 20.8742 32.6435 21.9867C32.6435 23.0992 32.8582 24.1629 33.2876 25.1681C33.717 26.1732 34.3025 27.0417 35.0344 27.7737C35.7663 28.5056 36.6251 29.0911 37.6107 29.5205C38.5964 29.9499 39.6503 30.1646 40.7628 30.1646C41.8753 30.1646 42.9781 29.9499 43.9637 29.5205C44.9494 29.0911 45.8082 28.5056 46.5401 27.7737C47.272 27.0417 47.8478 26.1732 48.2577 25.1681C48.6675 24.1629 48.8822 23.1089 48.8822 21.9867Z" fill="#FA7300"/>
<path d="M77.2109 16.7269C77.2109 16.3463 77.1035 15.9267 76.879 15.4875C76.6545 15.0386 76.3423 14.6385 75.952 14.2677C75.5518 13.9066 75.0639 13.5943 74.4686 13.3601C73.8831 13.1259 73.2194 12.999 72.4875 12.999C71.8825 12.999 71.297 13.0771 70.7408 13.243C70.1845 13.3991 69.6966 13.6138 69.2867 13.8871C68.8768 14.1603 68.5353 14.4824 68.2815 14.863C68.0278 15.2435 67.9009 15.6632 67.9009 16.1023C67.9009 16.7366 68.1156 17.1758 68.545 17.4198C68.9744 17.6637 69.5404 17.8882 70.2431 18.1126L76.1666 19.6448C77.3084 19.9278 78.4014 20.2791 79.4358 20.6987C80.4703 21.1086 81.3681 21.6356 82.139 22.2797C82.9002 22.914 83.5053 23.6849 83.9542 24.5925C84.4031 25.5001 84.6276 26.6028 84.6276 27.9105C84.6276 29.3451 84.3055 30.604 83.6517 31.6872C82.9979 32.7704 82.1098 33.6878 80.9973 34.4392C79.8848 35.1906 78.5771 35.7469 77.084 36.108C75.5909 36.469 73.9806 36.6544 72.2533 36.6544C70.526 36.6544 68.9841 36.4202 67.5203 35.9616C66.0565 35.5029 64.778 34.8588 63.6948 34.0293C62.6116 33.1998 61.7625 32.2142 61.138 31.0626C60.5134 29.9208 60.2109 28.662 60.2109 27.286H66.7591C66.7591 27.7349 66.9054 28.174 67.2177 28.6034C67.5202 29.0328 67.9204 29.4231 68.4084 29.7745C68.9061 30.1258 69.4818 30.4088 70.1551 30.6332C70.8285 30.8577 71.5214 30.965 72.2533 30.965C73.7464 30.965 75.0249 30.7016 76.0788 30.1746C77.1328 29.6476 77.6598 28.8962 77.6598 27.9008C77.6598 27.2664 77.4158 26.798 76.9181 26.515C76.4204 26.232 75.6982 25.9783 74.7419 25.7538L68.867 24.2705C67.7838 23.9875 66.7591 23.6166 65.7832 23.1677C64.8073 22.7188 63.9583 22.1626 63.2264 21.499C62.4945 20.8256 61.909 20.0547 61.4796 19.1568C61.0502 18.2688 60.8355 17.2441 60.8355 16.1023C60.8355 14.6678 61.1478 13.4089 61.7626 12.3256C62.3871 11.2424 63.2167 10.3348 64.2707 9.60294C65.3246 8.87102 66.5541 8.31476 67.9692 7.93417C69.3842 7.55357 70.8871 7.3584 72.4875 7.3584C74.088 7.3584 75.5616 7.60237 76.9278 8.10007C78.2941 8.59777 79.4847 9.26137 80.4898 10.1104C81.495 10.9594 82.2854 11.9451 82.8514 13.0771C83.4272 14.2091 83.7102 15.429 83.7102 16.7366H77.2109V16.7269Z" fill="black"/>
<path d="M101.764 35.8339H98.514C97.3723 35.8339 96.289 35.6192 95.2936 35.1898C94.2982 34.7604 93.4102 34.1749 92.6685 33.443C91.9171 32.711 91.3217 31.8523 90.8728 30.8666C90.4239 29.881 90.1995 28.8075 90.1995 27.6657V14.1009H87.7109V8.17729H90.1995V1.92188H96.8844V8.17729H100.944V14.1009H96.8844V27.6657C96.8844 28.1439 97.0405 28.544 97.3626 28.8563C97.6846 29.1783 98.0651 29.3345 98.5043 29.3345H101.754V35.8339H101.764Z" fill="black"/>
<path d="M134.165 21.9867C134.165 24.0848 133.764 26.0366 132.974 27.8127C132.174 29.5986 131.1 31.1502 129.744 32.4677C128.387 33.7949 126.787 34.8195 124.942 35.5515C123.098 36.2834 121.117 36.6542 119.019 36.6542C116.921 36.6542 114.949 36.2834 113.115 35.5515C111.28 34.8195 109.689 33.7949 108.333 32.4677C106.976 31.1502 105.903 29.5888 105.112 27.8127C104.312 26.0268 103.922 24.0848 103.922 21.9867C103.922 19.8885 104.322 17.9465 105.112 16.1606C105.913 14.3748 106.986 12.8329 108.333 11.5252C109.689 10.2175 111.28 9.20258 113.115 8.47067C114.949 7.73875 116.911 7.36792 119.019 7.36792C121.127 7.36792 123.098 7.73875 124.942 8.47067C126.787 9.20258 128.387 10.2175 129.744 11.5252C131.1 12.8329 132.174 14.3748 132.974 16.1606C133.774 17.9465 134.165 19.8885 134.165 21.9867ZM127.187 21.9867C127.187 20.8742 126.972 19.8202 126.543 18.8346C126.113 17.8489 125.528 16.9901 124.796 16.2582C124.064 15.5263 123.205 14.9408 122.22 14.5114C121.234 14.082 120.161 13.8673 119.019 13.8673C117.877 13.8673 116.862 14.082 115.886 14.5114C114.91 14.9408 114.061 15.5263 113.329 16.2582C112.597 16.9901 112.012 17.8489 111.582 18.8346C111.153 19.8202 110.938 20.8742 110.938 21.9867C110.938 23.0992 111.153 24.1629 111.582 25.1681C112.012 26.1732 112.597 27.0417 113.329 27.7737C114.061 28.5056 114.91 29.0911 115.886 29.5205C116.862 29.9499 117.897 30.1646 119.019 30.1646C120.141 30.1646 121.234 29.9499 122.22 29.5205C123.205 29.0911 124.064 28.5056 124.796 27.7737C125.528 27.0417 126.113 26.1732 126.543 25.1681C126.972 24.1629 127.187 23.1089 127.187 21.9867Z" fill="black"/>
<path d="M138.938 0H145.622V35.8345H138.938V0Z" fill="black"/>
<path d="M180.645 21.9869C180.645 24.0851 180.245 26.0368 179.454 27.8129C178.654 29.5988 177.581 31.1505 176.224 32.4679C174.868 33.7951 173.267 34.8198 171.423 35.5517C169.579 36.2836 167.597 36.6545 165.499 36.6545C163.401 36.6545 161.43 36.2836 159.595 35.5517C157.761 34.8198 156.17 33.7951 154.813 32.4679C153.457 31.1505 152.383 29.5891 151.593 27.8129C150.793 26.0271 150.402 24.0851 150.402 21.9869C150.402 19.8888 150.802 17.9467 151.593 16.1609C152.393 14.375 153.467 12.8331 154.813 11.5254C156.17 10.2177 157.761 9.20282 159.595 8.47091C161.43 7.739 163.391 7.36816 165.499 7.36816C167.607 7.36816 169.579 7.739 171.423 8.47091C173.267 9.20282 174.868 10.2177 176.224 11.5254C177.581 12.8331 178.654 14.375 179.454 16.1609C180.255 17.9467 180.645 19.8888 180.645 21.9869ZM173.677 21.9869C173.677 20.8744 173.463 19.8204 173.033 18.8348C172.604 17.8492 172.018 16.9904 171.286 16.2585C170.555 15.5266 169.696 14.941 168.71 14.5116C167.724 14.0822 166.651 13.8676 165.509 13.8676C164.367 13.8676 163.352 14.0822 162.376 14.5116C161.401 14.941 160.552 15.5266 159.82 16.2585C159.088 16.9904 158.502 17.8492 158.073 18.8348C157.644 19.8204 157.429 20.8744 157.429 21.9869C157.429 23.0994 157.644 24.1631 158.073 25.1683C158.502 26.1735 159.088 27.042 159.82 27.7739C160.552 28.5058 161.401 29.0914 162.376 29.5207C163.352 29.9501 164.387 30.1648 165.509 30.1648C166.631 30.1648 167.724 29.9501 168.71 29.5207C169.696 29.0914 170.555 28.5058 171.286 27.7739C172.018 27.042 172.604 26.1735 173.033 25.1683C173.463 24.1631 173.677 23.1092 173.677 21.9869Z" fill="black"/>
<path d="M185.43 35.8347V8.16838H191.597V11.9451H191.695C192.017 11.3693 192.407 10.813 192.885 10.2763C193.364 9.73955 193.9 9.25161 194.486 8.82223C195.071 8.39284 195.745 8.04152 196.496 7.76827C197.247 7.49502 198.067 7.3584 198.955 7.3584C200.77 7.3584 202.293 7.81707 203.523 8.72464C204.752 9.63221 205.796 10.774 206.655 12.1402C207.582 10.9009 208.714 9.78835 210.051 8.82223C211.388 7.84634 212.901 7.36816 214.589 7.36816C216.121 7.36816 217.517 7.65116 218.795 8.22694C220.074 8.80271 221.166 9.59317 222.093 10.5886C223.021 11.5937 223.733 12.7843 224.241 14.1701C224.748 15.5558 225.002 17.0782 225.002 18.7372V35.8445H218.317V18.7372C218.317 18.0639 218.19 17.4295 217.936 16.8245C217.682 16.2194 217.331 15.7022 216.882 15.2728C216.434 14.8434 215.906 14.5019 215.301 14.2481C214.696 13.9944 214.062 13.8675 213.389 13.8675C212.715 13.8675 212.091 13.9944 211.505 14.2481C210.92 14.5019 210.402 14.8434 209.954 15.2728C209.505 15.7022 209.153 16.2194 208.9 16.8245C208.646 17.4295 208.519 18.0639 208.519 18.7372V35.8445H201.883V18.7372C201.883 17.371 201.415 16.2097 200.478 15.2728C199.541 14.336 198.38 13.8675 197.013 13.8675C196.34 13.8675 195.715 13.9944 195.13 14.2481C194.544 14.5019 194.027 14.8434 193.578 15.2728C193.129 15.7022 192.778 16.2194 192.524 16.8245C192.271 17.4295 192.144 18.0639 192.144 18.7372V35.8445H185.459L185.43 35.8347Z" fill="black"/>
</svg>
