<svg width="42" height="42" viewBox="0 0 42 42" fill="none" xmlns="http://www.w3.org/2000/svg">
<rect width="42" height="42" fill="white"/>
<path d="M29.8304 25.2751C29.9215 24.8573 30.1059 24.4654 30.37 24.129C31.1107 23.185 31.7834 22.1896 32.3831 21.1503C32.9833 20.1113 33.509 19.031 33.9562 17.9176C34.2319 17.2299 34.7665 16.6778 35.445 16.3801C35.8154 16.2179 36.1355 15.9312 36.3364 15.5388C36.7611 14.7089 36.4805 13.675 35.6947 13.1734C35.3548 12.9551 34.9518 12.8564 34.5495 12.8929C33.8822 12.9531 33.2135 12.8032 32.6568 12.4305C31.0019 11.3233 29.3108 10.2712 27.5863 9.27601C25.8621 8.28012 24.1055 7.34165 22.3192 6.46215C21.7181 6.16635 21.254 5.66213 20.9724 5.05418C20.8028 4.6876 20.5158 4.388 20.1569 4.20273C19.3295 3.77306 18.2939 4.04694 17.7875 4.82967C17.5481 5.19988 17.46 5.62044 17.5046 6.02237C17.586 6.7588 17.3752 7.49776 16.9175 8.08039C16.3641 8.78561 15.8485 9.51974 15.373 10.2797" stroke="#A19289" stroke-width="1.5" stroke-miterlimit="10" stroke-linecap="round" stroke-linejoin="round"/>
<path d="M28.5731 25.2739C28.5859 25.2011 28.5942 25.1276 28.5979 25.0538C28.6202 24.6135 28.4862 24.2052 28.2466 23.8795C27.8079 23.2824 27.621 22.537 27.726 21.8036C27.8955 20.6157 27.9804 19.4173 27.9801 18.2174C27.9801 16.9998 27.8933 15.8025 27.726 14.6312C27.621 13.8978 27.8079 13.1524 28.2466 12.5553C28.4863 12.2296 28.6202 11.8213 28.598 11.381C28.5508 10.4499 27.7909 9.69486 26.8595 9.65339C26.456 9.63435 26.0577 9.75035 25.7275 9.98304C25.1797 10.3687 24.5257 10.5733 23.8572 10.529C21.8704 10.3975 19.8798 10.3319 17.8887 10.3323C15.8629 10.3323 13.8704 10.3994 11.9203 10.529C11.2518 10.5733 10.5978 10.3687 10.05 9.98304C9.71981 9.75038 9.32149 9.63439 8.918 9.65339C7.98666 9.69493 7.22669 10.4499 7.17959 11.381C7.15733 11.8214 7.29128 12.2296 7.53094 12.5554C7.96963 13.1525 8.15656 13.8978 8.05153 14.6313C7.88206 15.8191 7.79715 17.0176 7.79743 18.2175C7.79743 19.4351 7.88422 20.6324 8.05153 21.8037C8.15656 22.5372 7.96963 23.2825 7.53094 23.8796C7.29128 24.2054 7.15733 24.6136 7.17959 25.054C7.18457 25.1519 7.19738 25.2479 7.21751 25.3414M21.5 25.3412H8.55285C6.03839 25.3412 4 27.3796 4 29.894C4 32.4085 6.03839 34.4469 8.55285 34.4469H32.1707C33.428 34.4469 34.4472 33.4277 34.4472 32.1705C34.4472 30.9132 33.428 29.894 32.1707 29.894H10.3986" stroke="#A19289" stroke-width="1.5" stroke-miterlimit="10" stroke-linecap="round" stroke-linejoin="round"/>
<path d="M14.3054 34.447H6.27642C5.0192 34.447 4 35.4662 4 36.7234C4 37.9806 5.0192 38.9998 6.27642 38.9998H32.1707C35.9424 38.9998 39 35.9422 39 32.1705C39 28.3989 35.9424 25.3413 32.1707 25.3413H21.5" stroke="#A19289" stroke-width="1.5" stroke-miterlimit="10" stroke-linecap="round" stroke-linejoin="round"/>
</svg>
