<svg width="42" height="42" viewBox="0 0 42 42" fill="none" xmlns="http://www.w3.org/2000/svg">
<rect width="42" height="42" fill="white"/>
<path d="M11.417 13.1619C11.2012 12.946 10.8513 12.946 10.6355 13.1619L10.2894 13.508L9.94334 13.1619C9.72753 12.946 9.3776 12.946 9.16186 13.1619C8.94605 13.3777 8.94605 13.7276 9.16186 13.9434L9.50796 14.2895L9.16186 14.6356C8.94605 14.8514 8.94605 15.2014 9.16186 15.4172C9.26973 15.525 9.41123 15.579 9.5526 15.579C9.69397 15.579 9.83547 15.5251 9.94334 15.4172L10.2894 15.0711L10.6355 15.4172C10.7434 15.525 10.8849 15.579 11.0263 15.579C11.1677 15.579 11.3092 15.5251 11.417 15.4172C11.6328 15.2014 11.6328 14.8514 11.417 14.6356L11.0709 14.2895L11.417 13.9434C11.6328 13.7276 11.6328 13.3777 11.417 13.1619Z" fill="#A19289"/>
<path d="M21.9959 14.6356L21.6498 14.2895L21.9959 13.9434C22.2117 13.7276 22.2117 13.3777 21.9959 13.1619C21.7801 12.946 21.4301 12.946 21.2144 13.1619L20.8683 13.508L20.5222 13.1619C20.3064 12.946 19.9565 12.946 19.7407 13.1619C19.5249 13.3777 19.5249 13.7276 19.7407 13.9434L20.0868 14.2895L19.7407 14.6356C19.5249 14.8514 19.5249 15.2014 19.7407 15.4172C19.8486 15.525 19.9901 15.579 20.1315 15.579C20.2728 15.579 20.4143 15.5251 20.5222 15.4172L20.8683 15.0711L21.2144 15.4172C21.3223 15.525 21.4638 15.579 21.6051 15.579C21.7465 15.579 21.888 15.5251 21.9959 15.4172C22.2118 15.2014 22.2118 14.8514 21.9959 14.6356Z" fill="#A19289"/>
<path d="M32.5747 14.6356L32.2286 14.2895L32.5747 13.9434C32.7906 13.7276 32.7906 13.3777 32.5747 13.1619C32.3589 12.946 32.009 12.946 31.7933 13.1619L31.4472 13.508L31.1011 13.1619C30.8852 12.946 30.5353 12.946 30.3196 13.1619C30.1038 13.3777 30.1038 13.7276 30.3196 13.9434L30.6657 14.2895L30.3196 14.6356C30.1038 14.8514 30.1038 15.2014 30.3196 15.4172C30.4274 15.525 30.5689 15.579 30.7103 15.579C30.8517 15.579 30.9932 15.5251 31.1011 15.4172L31.4472 15.0711L31.7933 15.4172C31.9011 15.525 32.0426 15.579 32.184 15.579C32.3254 15.579 32.4669 15.5251 32.5747 15.4172C32.7906 15.2014 32.7906 14.8514 32.5747 14.6356Z" fill="#A19289"/>
<path d="M11.417 21.1619C11.2012 20.946 10.8513 20.946 10.6355 21.1619L10.2894 21.508L9.94334 21.1619C9.72753 20.946 9.3776 20.946 9.16186 21.1619C8.94605 21.3777 8.94605 21.7276 9.16186 21.9434L9.50796 22.2895L9.16186 22.6356C8.94605 22.8514 8.94605 23.2014 9.16186 23.4172C9.26973 23.525 9.41123 23.579 9.5526 23.579C9.69397 23.579 9.83547 23.5251 9.94334 23.4172L10.2894 23.0711L10.6355 23.4172C10.7434 23.525 10.8849 23.579 11.0263 23.579C11.1677 23.579 11.3092 23.5251 11.417 23.4172C11.6328 23.2014 11.6328 22.8514 11.417 22.6356L11.0709 22.2895L11.417 21.9434C11.6328 21.7276 11.6328 21.3777 11.417 21.1619Z" fill="#A19289"/>
<path d="M21.9959 22.6356L21.6498 22.2895L21.9959 21.9434C22.2117 21.7276 22.2117 21.3777 21.9959 21.1619C21.7801 20.946 21.4301 20.946 21.2144 21.1619L20.8683 21.508L20.5222 21.1619C20.3064 20.946 19.9565 20.946 19.7407 21.1619C19.5249 21.3777 19.5249 21.7276 19.7407 21.9434L20.0868 22.2895L19.7407 22.6356C19.5249 22.8514 19.5249 23.2014 19.7407 23.4172C19.8486 23.525 19.9901 23.579 20.1315 23.579C20.2728 23.579 20.4143 23.5251 20.5222 23.4172L20.8683 23.0711L21.2144 23.4172C21.3223 23.525 21.4638 23.579 21.6051 23.579C21.7465 23.579 21.888 23.5251 21.9959 23.4172C22.2118 23.2014 22.2118 22.8514 21.9959 22.6356Z" fill="#A19289"/>
<path d="M32.5747 22.6356L32.2286 22.2895L32.5747 21.9434C32.7906 21.7276 32.7906 21.3777 32.5747 21.1619C32.3589 20.946 32.009 20.946 31.7933 21.1619L31.4472 21.508L31.1011 21.1619C30.8852 20.946 30.5353 20.946 30.3196 21.1619C30.1038 21.3777 30.1038 21.7276 30.3196 21.9434L30.6657 22.2895L30.3196 22.6356C30.1038 22.8514 30.1038 23.2014 30.3196 23.4172C30.4274 23.525 30.5689 23.579 30.7103 23.579C30.8517 23.579 30.9932 23.5251 31.1011 23.4172L31.4472 23.0711L31.7933 23.4172C31.9011 23.525 32.0426 23.579 32.184 23.579C32.3254 23.579 32.4669 23.5251 32.5747 23.4172C32.7906 23.2014 32.7906 22.8514 32.5747 22.6356Z" fill="#A19289"/>
<path d="M16.4861 17.1619C16.2641 16.946 15.9042 16.946 15.6823 17.1619L15.3263 17.508L14.9703 17.1619C14.7483 16.946 14.3884 16.946 14.1665 17.1619C13.9445 17.3777 13.9445 17.7276 14.1665 17.9434L14.5225 18.2895L14.1665 18.6356C13.9445 18.8514 13.9445 19.2014 14.1665 19.4172C14.2774 19.525 14.423 19.579 14.5684 19.579C14.7138 19.579 14.8593 19.5251 14.9703 19.4172L15.3263 19.0711L15.6823 19.4172C15.7932 19.525 15.9388 19.579 16.0842 19.579C16.2296 19.579 16.3751 19.5251 16.4861 19.4172C16.7081 19.2014 16.7081 18.8514 16.4861 18.6356L16.1301 18.2895L16.4861 17.9434C16.7081 17.7276 16.7081 17.3777 16.4861 17.1619Z" fill="#A19289"/>
<path d="M27.8003 18.6356L27.4443 18.2895L27.8003 17.9434C28.0223 17.7276 28.0223 17.3777 27.8003 17.1619C27.5783 16.946 27.2184 16.946 26.9965 17.1619L26.6405 17.508L26.2845 17.1619C26.0625 16.946 25.7026 16.946 25.4807 17.1619C25.2587 17.3777 25.2587 17.7276 25.4807 17.9434L25.8367 18.2895L25.4807 18.6356C25.2587 18.8514 25.2587 19.2014 25.4807 19.4172C25.5916 19.525 25.7372 19.579 25.8826 19.579C26.028 19.579 26.1735 19.5251 26.2845 19.4172L26.6405 19.0711L26.9965 19.4172C27.1074 19.525 27.253 19.579 27.3984 19.579C27.5438 19.579 27.6893 19.5251 27.8003 19.4172C28.0223 19.2014 28.0223 18.8514 27.8003 18.6356Z" fill="#A19289"/>
<rect x="3.5" y="9.5" width="35" height="22" rx="1.5" stroke="#A19289"/>
<rect x="3.5" y="9.5" width="35" height="18" rx="1.5" stroke="#A19289"/>
</svg>
