<svg width="42" height="42" viewBox="0 0 42 42" fill="none" xmlns="http://www.w3.org/2000/svg">
<rect width="42" height="42" fill="white"/>
<g clip-path="url(#clip0_164_2265)">
<path d="M10.4165 38.4166H13.9165C14.5611 38.4166 15.0832 37.8945 15.0832 37.25V33.1666" stroke="#A19289" stroke-width="1.5" stroke-miterlimit="10"/>
<path d="M12.7498 33.1666H15.6665C15.9885 33.1666 16.2498 32.9053 16.2498 32.5833V31.4166C16.2498 31.0946 15.9885 30.8333 15.6665 30.8333H7.49984C7.17784 30.8333 6.9165 31.0946 6.9165 31.4166V32.5833C6.9165 32.9053 7.17784 33.1666 7.49984 33.1666H8.08317V37.2499C8.08317 37.8333 8.6035 38.3734 9.24984 38.4166H11.001" stroke="#A19289" stroke-width="1.5" stroke-miterlimit="10"/>
<path d="M10.4165 29.0833V27.9166" stroke="#A19289" stroke-width="1.5" stroke-miterlimit="10"/>
<path d="M12.75 30.8333C12.75 29.1329 13.3333 26.1666 16.8333 26.1666C16.8333 26.1666 15.0833 29.0833 15.0833 30.8333" stroke="#A19289" stroke-width="1.5" stroke-miterlimit="10"/>
<path d="M13.9165 27.293C13.9165 23.177 10.4165 20.9166 10.4165 20.9166V25.5833" stroke="#A19289" stroke-width="1.5" stroke-miterlimit="10"/>
<path d="M9.00667 27.0492C8.39767 26.5184 7.53842 26.1666 6.33325 26.1666C6.33325 26.1666 8.08325 29.0833 8.08325 30.8333" stroke="#A19289" stroke-width="1.5" stroke-miterlimit="10"/>
<path d="M11.5832 33.1666H10.4165" stroke="#A19289" stroke-width="1.5" stroke-miterlimit="10"/>
<path d="M17.4165 34.9166V37.25C17.4165 37.8945 17.9386 38.4166 18.5832 38.4166H24.9987" stroke="#A19289" stroke-width="1.5" stroke-miterlimit="10"/>
<path d="M26.7499 31.4166V25.5833C26.7499 24.9387 26.2278 24.4166 25.5833 24.4166H18.5833" stroke="#A19289" stroke-width="1.5" stroke-miterlimit="10"/>
<path d="M24.4165 27.3333V31.9999" stroke="#A19289" stroke-width="1.5" stroke-miterlimit="10"/>
<path d="M24.4165 33.1666V34.3333" stroke="#A19289" stroke-width="1.5" stroke-miterlimit="10"/>
<path d="M22.0832 24.4166C22.0832 20.9166 17.073 17.584 17.073 17.584" stroke="#A19289" stroke-width="1.5" stroke-miterlimit="10"/>
<path d="M20.3333 18C20.3333 19.6105 19.0272 20.9166 17.4166 20.9166C14.4999 20.9166 13.3333 16.6939 13.3333 15.0833C13.3333 15.0833 13.3333 13.9166 14.4999 13.9166C18.5833 13.9166 20.3333 16.3894 20.3333 18Z" stroke="#A19289" stroke-width="1.5" stroke-miterlimit="10"/>
<path d="M22.0833 24.4166C22.0833 21.4999 25.7775 18.8813 25.7775 18.8813" stroke="#A19289" stroke-width="1.5" stroke-miterlimit="10"/>
<path d="M22.6665 19.1666C22.6665 20.7772 23.9726 22.0833 25.5832 22.0833C28.4998 22.0833 29.6665 17.8605 29.6665 16.2499C29.6665 16.2499 29.6665 15.0833 28.4998 15.0833C24.4165 15.0833 22.6665 17.556 22.6665 19.1666Z" stroke="#A19289" stroke-width="1.5" stroke-miterlimit="10"/>
<path d="M22.0833 15.6666V10.4166" stroke="#A19289" stroke-width="1.5" stroke-miterlimit="10"/>
<path d="M24.9998 11C24.9998 12.6105 23.6938 13.9166 22.0832 13.9166C20.4726 13.9166 19.1665 12.6105 19.1665 11C19.1665 9.38938 20.4726 5.16663 22.0832 5.16663C23.6938 5.16663 24.9998 9.38938 24.9998 11Z" stroke="#A19289" stroke-width="1.5" stroke-miterlimit="10"/>
<path d="M28.5471 15.0909C28.8213 13.4319 30.2627 12.1666 31.9999 12.1666C33.933 12.1666 35.4999 13.7335 35.4999 15.6666C35.4999 17.5998 33.933 19.1666 31.9999 19.1666C30.9656 19.1666 30.0358 18.718 29.3953 18.0046" stroke="#A19289" stroke-width="1.5" stroke-miterlimit="10"/>
<path d="M32 12.1666V9.83325" stroke="#A19289" stroke-width="1.5" stroke-miterlimit="10"/>
<path d="M29.5255 13.1921L27.625 11.2916" stroke="#A19289" stroke-width="1.5" stroke-miterlimit="10"/>
<path d="M34.7439 13.506L36.995 11.2555" stroke="#A19289" stroke-width="1.5" stroke-miterlimit="10"/>
<path d="M35.5 15.6666H37.8333" stroke="#A19289" stroke-width="1.5" stroke-miterlimit="10"/>
<path d="M34.4744 18.1411L36.4297 20.0964" stroke="#A19289" stroke-width="1.5" stroke-miterlimit="10"/>
<path d="M32 19.1666V28.5" stroke="#A19289" stroke-width="1.5" stroke-miterlimit="10"/>
<path d="M27.3531 37.6828L29.6864 28.9328C29.7529 28.6838 29.9798 28.5 30.2499 28.5H33.7499C34.0194 28.5 34.2458 28.6826 34.3128 28.9305L36.6462 37.6805C36.6596 37.7295 36.6666 37.7803 36.6666 37.8333C36.6666 38.1553 36.4053 38.4167 36.0833 38.4167H27.9166C27.5946 38.4167 27.3333 38.1553 27.3333 37.8333C27.3333 37.7814 27.3403 37.7307 27.3531 37.6828Z" stroke="#A19289" stroke-width="1.5" stroke-miterlimit="10"/>
<path d="M32.873 33.9501L33.2639 36.5068" stroke="#A19289" stroke-width="1.5" stroke-miterlimit="10"/>
<path d="M32.4468 31.1617L32.6381 32.4147" stroke="#A19289" stroke-width="1.5" stroke-miterlimit="10"/>
</g>
<defs>
<clipPath id="clip0_164_2265">
<rect width="35" height="35" fill="white" transform="translate(4 4)"/>
</clipPath>
</defs>
</svg>
