<svg width="42" height="42" viewBox="0 0 42 42" fill="none" xmlns="http://www.w3.org/2000/svg">
<rect width="42" height="42" fill="white"/>
<path d="M35.2209 24.6225V22.7784V9.58781C35.2213 9.00445 35.0188 8.43913 34.648 7.98875C34.2773 7.53837 33.7614 7.23097 33.1889 7.11925C32.6163 7.00753 32.0227 7.09845 31.5098 7.37642C30.997 7.65439 30.5968 8.1021 30.3778 8.64281C29.0653 8.09156 26.0925 7.15968 21 7.15968C15.9075 7.15968 12.9347 8.09156 11.6222 8.64281C11.4032 8.1021 11.003 7.65439 10.4902 7.37642C9.97729 7.09845 9.38371 7.00753 8.81115 7.11925C8.23859 7.23097 7.72273 7.53837 7.35198 7.98875C6.98123 8.43913 6.77868 9.00445 6.77906 9.58781V22.7784V24.6225C6.1906 24.6479 5.6347 24.8997 5.22748 25.3252C4.82025 25.7508 4.5932 26.3172 4.59375 26.9062V33.1341C4.59375 33.611 4.7832 34.0683 5.12041 34.4055C5.28738 34.5725 5.4856 34.7049 5.70376 34.7953C5.92192 34.8857 6.15574 34.9322 6.39188 34.9322C7.42219 34.9322 7.83563 34.0528 8.13094 33.4097L9.28594 30.9422H32.7141L33.8953 33.4687C34.1644 34.0528 34.5516 34.9322 35.6081 34.9322C35.8448 34.9322 36.0792 34.8855 36.2978 34.7947C36.5163 34.7039 36.7149 34.5709 36.8819 34.4032C37.049 34.2355 37.1813 34.0365 37.2713 33.8176C37.3612 33.5987 37.4071 33.3642 37.4062 33.1275V26.9062C37.4068 26.3172 37.1797 25.7508 36.7725 25.3252C36.3653 24.8997 35.8094 24.6479 35.2209 24.6225ZM8.09156 24.6225V22.785C8.09156 22.469 8.15391 22.1562 8.27502 21.8643C8.39614 21.5725 8.57364 21.3074 8.79738 21.0843C9.02111 20.8612 9.28666 20.6844 9.57883 20.5641C9.87099 20.4437 10.184 20.3823 10.5 20.3831H31.5C32.1347 20.3849 32.743 20.6378 33.1918 21.0866C33.6407 21.5354 33.8936 22.1437 33.8953 22.7784V24.6159L8.09156 24.6225ZM11.1563 18.0141C11.1554 17.8248 11.1919 17.6372 11.2638 17.4621C11.3356 17.2869 11.4413 17.1277 11.5749 16.9936C11.7084 16.8594 11.8671 16.753 12.0419 16.6803C12.2167 16.6077 12.4042 16.5703 12.5934 16.5703H16.1438C16.5267 16.5703 16.8939 16.7224 17.1646 16.9932C17.4354 17.2639 17.5875 17.6312 17.5875 18.0141V19.0706H11.1563V18.0141ZM19.7466 17.6531H22.2797C22.5042 17.6531 22.7195 17.7423 22.8783 17.9011C23.0371 18.0598 23.1263 18.2752 23.1263 18.4997V19.0706H18.8869V18.4997C18.8869 18.2752 18.9761 18.0598 19.1348 17.9011C19.2936 17.7423 19.5089 17.6531 19.7334 17.6531H19.7466ZM24.4388 18.0141C24.4388 17.6312 24.5909 17.2639 24.8616 16.9932C25.1324 16.7224 25.4996 16.5703 25.8825 16.5703H29.4328C29.8105 16.5772 30.1704 16.7326 30.4344 17.0028C30.6985 17.273 30.8455 17.6363 30.8438 18.0141V19.0706H24.4125L24.4388 18.0141ZM32.7009 8.38687C32.8592 8.38601 33.0161 8.41643 33.1625 8.4764C33.309 8.53636 33.4422 8.62469 33.5544 8.73629C33.6666 8.84789 33.7556 8.98057 33.8164 9.12671C33.8772 9.27284 33.9084 9.42955 33.9084 9.58781V19.9566C33.4078 19.5321 32.8029 19.2489 32.1562 19.1362V18.0141C32.1574 17.3598 31.9246 16.7268 31.5 16.2291V9.58781C31.5 9.2693 31.6265 8.96384 31.8517 8.73862C32.077 8.5134 32.3824 8.38687 32.7009 8.38687ZM30.1875 9.98812V15.3825C29.9397 15.3007 29.6806 15.2586 29.4197 15.2578H25.8694C25.3752 15.2598 24.8908 15.395 24.467 15.6491C24.0431 15.9031 23.6956 16.2667 23.4609 16.7016C23.1063 16.4677 22.6913 16.3423 22.2666 16.3406H19.7334C19.3087 16.3423 18.8937 16.4677 18.5391 16.7016C18.3044 16.2667 17.9569 15.9031 17.533 15.6491C17.1092 15.395 16.6248 15.2598 16.1306 15.2578H12.5803C12.3194 15.2586 12.0603 15.3007 11.8125 15.3825V9.98812C12.7116 9.57468 15.5991 8.47218 21 8.47218C26.4009 8.47218 29.2884 9.57468 30.1875 9.98812ZM9.29906 8.38687C9.61757 8.38687 9.92304 8.5134 10.1483 8.73862C10.3735 8.96384 10.5 9.2693 10.5 9.58781V16.2291C10.0754 16.7268 9.84265 17.3598 9.84375 18.0141V19.1362C9.20173 19.2511 8.60165 19.5342 8.10469 19.9566V9.58781C8.10468 9.27043 8.23031 8.96596 8.45411 8.74093C8.67791 8.5159 8.98169 8.38861 9.29906 8.38687ZM36.0938 33.1275C36.0938 33.2563 36.0426 33.3798 35.9515 33.4709C35.8604 33.562 35.7369 33.6131 35.6081 33.6131C35.4506 33.6131 35.3522 33.4753 35.0569 32.8519L33.7444 30.0037C33.6917 29.8898 33.6074 29.7934 33.5015 29.726C33.3957 29.6585 33.2727 29.6228 33.1472 29.6231H8.86594C8.74042 29.6228 8.61744 29.6585 8.5116 29.726C8.40575 29.7934 8.32147 29.8898 8.26875 30.0037L6.91688 32.9044C6.64781 33.4753 6.54938 33.6131 6.39188 33.6131C6.26308 33.6131 6.13956 33.562 6.04849 33.4709C5.95741 33.3798 5.90625 33.2563 5.90625 33.1275V26.9062C5.90625 26.7787 5.93137 26.6524 5.98018 26.5346C6.02899 26.4167 6.10053 26.3097 6.19072 26.2195C6.28091 26.1293 6.38798 26.0577 6.50582 26.0089C6.62366 25.9601 6.74995 25.935 6.8775 25.935H35.0963C35.226 25.9315 35.3551 25.954 35.476 26.0013C35.5969 26.0485 35.7071 26.1195 35.8001 26.21C35.893 26.3006 35.9669 26.4088 36.0174 26.5284C36.0678 26.648 36.0938 26.7765 36.0938 26.9062V33.1275Z" fill="#A19289"/>
<path d="M23.9858 13.4859C24.4389 13.4859 24.8062 13.1187 24.8062 12.6656C24.8062 12.2126 24.4389 11.8453 23.9858 11.8453C23.5328 11.8453 23.1655 12.2126 23.1655 12.6656C23.1655 13.1187 23.5328 13.4859 23.9858 13.4859Z" fill="#A19289"/>
<path d="M21 13.4859C21.453 13.4859 21.8203 13.1187 21.8203 12.6656C21.8203 12.2126 21.453 11.8453 21 11.8453C20.547 11.8453 20.1797 12.2126 20.1797 12.6656C20.1797 13.1187 20.547 13.4859 21 13.4859Z" fill="#A19289"/>
<path d="M18.0142 13.4859C18.4672 13.4859 18.8345 13.1187 18.8345 12.6656C18.8345 12.2126 18.4672 11.8453 18.0142 11.8453C17.5611 11.8453 17.1938 12.2126 17.1938 12.6656C17.1938 13.1187 17.5611 13.4859 18.0142 13.4859Z" fill="#A19289"/>
</svg>
