<svg width="42" height="42" viewBox="0 0 42 42" fill="none" xmlns="http://www.w3.org/2000/svg">
<rect width="42" height="42" fill="white"/>
<path d="M9.88306 20.895C10.3361 20.895 10.7034 20.5278 10.7034 20.0747C10.7034 19.6217 10.3361 19.2544 9.88306 19.2544C9.43001 19.2544 9.06274 19.6217 9.06274 20.0747C9.06274 20.5278 9.43001 20.895 9.88306 20.895Z" fill="#A19289"/>
<path d="M9.88306 17.8762C10.3361 17.8762 10.7034 17.509 10.7034 17.0559C10.7034 16.6029 10.3361 16.2356 9.88306 16.2356C9.43001 16.2356 9.06274 16.6029 9.06274 17.0559C9.06274 17.509 9.43001 17.8762 9.88306 17.8762Z" fill="#A19289"/>
<path d="M9.88306 14.8575C10.3361 14.8575 10.7034 14.4903 10.7034 14.0372C10.7034 13.5842 10.3361 13.2169 9.88306 13.2169C9.43001 13.2169 9.06274 13.5842 9.06274 14.0372C9.06274 14.4903 9.43001 14.8575 9.88306 14.8575Z" fill="#A19289"/>
<path d="M35.5753 25.5413H34.9978C35.2045 25.3893 35.3786 25.1974 35.5097 24.9769C35.7519 24.5555 35.8179 24.0555 35.6934 23.5857L31.9987 9.80443L31.5656 8.20974C31.5061 7.97593 31.4007 7.75625 31.2557 7.56342C31.1107 7.3706 30.9288 7.20846 30.7207 7.08639C30.5126 6.96432 30.2823 6.88475 30.0432 6.85229C29.8041 6.81982 29.561 6.8351 29.3278 6.89724L25.7381 7.87506C25.6018 7.91383 25.4698 7.96661 25.3444 8.03256C25.1768 7.79707 24.9554 7.6051 24.6985 7.47267C24.4416 7.34023 24.1568 7.27119 23.8678 7.27131H20.1534C19.7226 7.2703 19.3058 7.424 18.9788 7.70443C18.6505 7.42601 18.2345 7.2726 17.8041 7.27131H14.0897C13.6593 7.2726 13.2432 7.42601 12.915 7.70443C12.588 7.424 12.1711 7.2703 11.7403 7.27131H8.02594C7.54148 7.27304 7.07746 7.46671 6.73551 7.80989C6.39356 8.15307 6.20156 8.61778 6.20156 9.10224V25.0229C6.20326 25.2033 6.23202 25.3825 6.28688 25.5544C5.82838 25.5875 5.39926 25.7924 5.08535 26.1282C4.77144 26.4641 4.59587 26.906 4.59375 27.3657V29.5313C4.59549 30.0158 4.78915 30.4798 5.13233 30.8217C5.47551 31.1637 5.94023 31.3557 6.42469 31.3557H7.2975V33.4163C7.29924 33.8799 7.48461 34.3239 7.81302 34.6511C8.14143 34.9782 8.58611 35.1619 9.04969 35.1619C10.0472 35.1619 10.4409 34.3154 10.7297 33.6919L11.8125 31.3557H30.1875L31.3031 33.751C31.5656 34.3154 31.9594 35.1619 32.9569 35.1619C33.4205 35.1619 33.8651 34.9782 34.1935 34.6511C34.522 34.3239 34.7073 33.8799 34.7091 33.4163V31.3557H35.5819C36.0652 31.354 36.5282 31.1612 36.87 30.8194C37.2118 30.4777 37.4045 30.0146 37.4062 29.5313V27.3657C37.4045 26.8812 37.2108 26.4172 36.8677 26.0753C36.5245 25.7333 36.0598 25.5413 35.5753 25.5413ZM33.8297 21.6891L29.2359 22.9229L26.3091 11.9963L30.9028 10.7691L33.8297 21.6891ZM34.4269 23.9269C34.4487 23.9941 34.4565 24.0651 34.4496 24.1354C34.4427 24.2057 34.4213 24.2738 34.3868 24.3355C34.3522 24.3971 34.3053 24.451 34.249 24.4936C34.1926 24.5362 34.1281 24.5667 34.0594 24.5832L30.4697 25.5479C30.4025 25.5708 30.3313 25.5793 30.2607 25.5729C30.19 25.5664 30.1215 25.5452 30.0596 25.5105C29.9977 25.4759 29.9438 25.4285 29.9013 25.3717C29.8589 25.3148 29.829 25.2496 29.8134 25.1804L29.5509 24.2157L34.1447 22.9885L34.4269 23.9269ZM24.3797 22.7063H19.635V11.3991H24.3797V22.7063ZM18.3225 22.7063H13.5712V11.3991H18.3225V22.7063ZM12.2587 22.7063H7.51406V11.3991H12.2587V22.7063ZM7.51406 25.0229V24.0188H12.2587V25.0229C12.2596 25.0912 12.2468 25.159 12.2211 25.2223C12.1953 25.2856 12.1572 25.3431 12.1089 25.3914C12.0606 25.4397 12.003 25.4779 11.9397 25.5036C11.8765 25.5294 11.8086 25.5422 11.7403 25.5413H8.02594C7.95816 25.5413 7.89106 25.5279 7.82852 25.5017C7.76599 25.4756 7.70927 25.4373 7.66165 25.3891C7.61403 25.3408 7.57646 25.2836 7.55113 25.2208C7.52579 25.1579 7.51319 25.0906 7.51406 25.0229ZM13.5712 25.0229V24.0188H18.3225V25.0229C18.3225 25.1604 18.2679 25.2922 18.1707 25.3895C18.0734 25.4867 17.9416 25.5413 17.8041 25.5413H14.0897C13.9522 25.5413 13.8203 25.4867 13.7231 25.3895C13.6259 25.2922 13.5712 25.1604 13.5712 25.0229ZM19.635 25.0229V24.0188H24.3797V25.0229C24.3806 25.0906 24.368 25.1579 24.3426 25.2208C24.3173 25.2836 24.2797 25.3408 24.2321 25.3891C24.1845 25.4373 24.1278 25.4756 24.0652 25.5017C24.0027 25.5279 23.9356 25.5413 23.8678 25.5413H20.1534C20.0851 25.5422 20.0173 25.5294 19.954 25.5036C19.8907 25.4779 19.8332 25.4397 19.7849 25.3914C19.7366 25.3431 19.6984 25.2856 19.6727 25.2223C19.6469 25.159 19.6341 25.0912 19.635 25.0229ZM25.6922 25.0229V14.7657L28.14 23.8941L28.5731 25.4954C28.571 25.5106 28.571 25.5261 28.5731 25.5413H25.5938C25.6497 25.3737 25.6828 25.1993 25.6922 25.0229ZM26.0794 9.12849L29.6691 8.17037C29.7358 8.14842 29.8063 8.14044 29.8763 8.14693C29.9463 8.15342 30.0141 8.17424 30.0757 8.2081C30.1373 8.24196 30.1912 8.28813 30.2341 8.34373C30.2771 8.39934 30.3081 8.46319 30.3253 8.53131L30.5878 9.49599L25.9941 10.7297L25.7316 9.76506C25.6948 9.63454 25.7106 9.49481 25.7756 9.37582C25.8406 9.25682 25.9497 9.16804 26.0794 9.12849ZM20.1731 8.57068H23.8875C23.9555 8.56978 24.023 8.58261 24.086 8.60843C24.1489 8.63425 24.206 8.67251 24.2538 8.72092C24.3016 8.76934 24.3391 8.8269 24.3642 8.89017C24.3892 8.95344 24.4011 9.02111 24.3994 9.08912V10.0866H19.635V9.08912C19.635 8.95162 19.6896 8.81975 19.7868 8.72253C19.8841 8.6253 20.0159 8.57068 20.1534 8.57068H20.1731ZM14.1094 8.57068H17.8237C17.8921 8.5698 17.9599 8.58261 18.0232 8.60835C18.0865 8.63409 18.144 8.67225 18.1923 8.72056C18.2406 8.76888 18.2788 8.82639 18.3045 8.88968C18.3303 8.95298 18.3431 9.02079 18.3422 9.08912V10.0866H13.5712V9.08912C13.5712 8.95162 13.6259 8.81975 13.7231 8.72253C13.8203 8.6253 13.9522 8.57068 14.0897 8.57068H14.1094ZM8.04563 8.57068H11.76C11.8975 8.57068 12.0294 8.6253 12.1266 8.72253C12.2238 8.81975 12.2784 8.95162 12.2784 9.08912V10.0866H7.51406V9.08912C7.51229 9.02111 7.52427 8.95344 7.54928 8.89017C7.57429 8.8269 7.61182 8.76934 7.65962 8.72092C7.70742 8.67251 7.76451 8.63425 7.82745 8.60843C7.8904 8.58261 7.95791 8.56978 8.02594 8.57068H8.04563ZM9.51562 33.1997C9.27281 33.7182 9.17438 33.856 9.04969 33.856C8.99226 33.8569 8.93523 33.8463 8.88192 33.8249C8.82861 33.8036 8.78009 33.7718 8.73917 33.7315C8.69825 33.6912 8.66576 33.6431 8.64359 33.5902C8.62141 33.5372 8.60999 33.4803 8.61 33.4229V31.3557H10.3753L9.51562 33.1997ZM33.39 33.4163C33.39 33.4737 33.3786 33.5306 33.3564 33.5836C33.3342 33.6366 33.3017 33.6846 33.2608 33.7249C33.2199 33.7652 33.1714 33.797 33.1181 33.8184C33.0648 33.8397 33.0077 33.8503 32.9503 33.8494C32.8256 33.8494 32.7272 33.7182 32.4581 33.1407L31.6247 31.3557H33.39V33.4163ZM36.0938 29.5313C36.0938 29.5991 36.0803 29.6662 36.0542 29.7287C36.028 29.7913 35.9897 29.848 35.9415 29.8956C35.8933 29.9432 35.8361 29.9808 35.7732 30.0061C35.7104 30.0315 35.6431 30.0441 35.5753 30.0432H6.42469C6.35692 30.0441 6.28965 30.0315 6.22679 30.0061C6.16392 29.9808 6.10672 29.9432 6.05849 29.8956C6.01026 29.848 5.97197 29.7913 5.94583 29.7287C5.9197 29.6662 5.90624 29.5991 5.90625 29.5313V27.3657C5.90624 27.2979 5.9197 27.2308 5.94583 27.1683C5.97197 27.1057 6.01026 27.049 6.05849 27.0014C6.10672 26.9538 6.16392 26.9162 6.22679 26.8909C6.28965 26.8655 6.35692 26.8529 6.42469 26.8538H35.5753C35.6431 26.8529 35.7104 26.8655 35.7732 26.8909C35.8361 26.9162 35.8933 26.9538 35.9415 27.0014C35.9897 27.049 36.028 27.1057 36.0542 27.1683C36.0803 27.2308 36.0938 27.2979 36.0938 27.3657V29.5313Z" fill="#A19289"/>
<path d="M15.9468 20.895C16.3998 20.895 16.7671 20.5278 16.7671 20.0747C16.7671 19.6217 16.3998 19.2544 15.9468 19.2544C15.4937 19.2544 15.1265 19.6217 15.1265 20.0747C15.1265 20.5278 15.4937 20.895 15.9468 20.895Z" fill="#A19289"/>
<path d="M15.9468 17.8762C16.3998 17.8762 16.7671 17.509 16.7671 17.0559C16.7671 16.6029 16.3998 16.2356 15.9468 16.2356C15.4937 16.2356 15.1265 16.6029 15.1265 17.0559C15.1265 17.509 15.4937 17.8762 15.9468 17.8762Z" fill="#A19289"/>
<path d="M15.9468 14.8575C16.3998 14.8575 16.7671 14.4903 16.7671 14.0372C16.7671 13.5842 16.3998 13.2169 15.9468 13.2169C15.4937 13.2169 15.1265 13.5842 15.1265 14.0372C15.1265 14.4903 15.4937 14.8575 15.9468 14.8575Z" fill="#A19289"/>
<path d="M22.0107 20.895C22.4638 20.895 22.8311 20.5278 22.8311 20.0747C22.8311 19.6217 22.4638 19.2544 22.0107 19.2544C21.5577 19.2544 21.1904 19.6217 21.1904 20.0747C21.1904 20.5278 21.5577 20.895 22.0107 20.895Z" fill="#A19289"/>
<path d="M22.0107 17.8762C22.4638 17.8762 22.8311 17.509 22.8311 17.0559C22.8311 16.6029 22.4638 16.2356 22.0107 16.2356C21.5577 16.2356 21.1904 16.6029 21.1904 17.0559C21.1904 17.509 21.5577 17.8762 22.0107 17.8762Z" fill="#A19289"/>
<path d="M22.0107 14.8575C22.4638 14.8575 22.8311 14.4903 22.8311 14.0372C22.8311 13.5842 22.4638 13.2169 22.0107 13.2169C21.5577 13.2169 21.1904 13.5842 21.1904 14.0372C21.1904 14.4903 21.5577 14.8575 22.0107 14.8575Z" fill="#A19289"/>
<path d="M30.6404 18.9657C30.5361 18.9932 30.4383 19.0411 30.3525 19.1065C30.2667 19.1718 30.1947 19.2535 30.1404 19.3467C30.0862 19.44 30.0509 19.543 30.0364 19.6499C30.022 19.7568 30.0288 19.8654 30.0564 19.9697C30.0839 20.074 30.1318 20.1718 30.1972 20.2576C30.2625 20.3434 30.3442 20.4155 30.4374 20.4697C30.5307 20.5239 30.6337 20.5593 30.7406 20.5737C30.8474 20.5881 30.9561 20.5814 31.0604 20.5538C31.271 20.4981 31.4509 20.361 31.5604 20.1727C31.6699 19.9844 31.7002 19.7603 31.6445 19.5497C31.5888 19.3391 31.4517 19.1593 31.2634 19.0497C31.0751 18.9402 30.851 18.91 30.6404 18.9657Z" fill="#A19289"/>
<path d="M29.2753 17.0626C29.317 17.2193 29.4042 17.3601 29.5258 17.4673C29.6475 17.5745 29.7982 17.6432 29.9589 17.6648C30.1196 17.6864 30.2831 17.6599 30.4288 17.5886C30.5744 17.5173 30.6957 17.4044 30.7772 17.2643C30.8587 17.1241 30.8969 16.9629 30.8869 16.8011C30.8768 16.6392 30.8191 16.484 30.7209 16.355C30.6226 16.2259 30.4884 16.1289 30.3351 16.0761C30.1817 16.0234 30.0162 16.0172 29.8594 16.0585C29.755 16.0859 29.6571 16.1337 29.5713 16.1991C29.4854 16.2644 29.4133 16.3461 29.359 16.4393C29.3048 16.5326 29.2695 16.6357 29.2551 16.7426C29.2407 16.8495 29.2476 16.9583 29.2753 17.0626Z" fill="#A19289"/>
<path d="M28.4945 14.1422C28.5513 14.3517 28.6889 14.5302 28.8771 14.6384C29.0654 14.7467 29.2888 14.7759 29.4985 14.7197C29.6029 14.6922 29.7008 14.6445 29.7866 14.5791C29.8725 14.5137 29.9446 14.4321 29.9989 14.3388C30.0531 14.2456 30.0884 14.1425 30.1028 14.0356C30.1172 13.9286 30.1103 13.8199 30.0826 13.7156C30.0546 13.6113 30.0063 13.5136 29.9405 13.428C29.8747 13.3424 29.7927 13.2705 29.6992 13.2166C29.6057 13.1627 29.5024 13.1277 29.3953 13.1137C29.2883 13.0996 29.1795 13.1068 29.0752 13.1348C28.971 13.1628 28.8732 13.2111 28.7876 13.2769C28.702 13.3427 28.6301 13.4247 28.5762 13.5182C28.5223 13.6118 28.4873 13.715 28.4733 13.8221C28.4592 13.9291 28.4664 14.0379 28.4945 14.1422Z" fill="#A19289"/>
</svg>
