<svg width="42" height="42" viewBox="0 0 42 42" fill="none" xmlns="http://www.w3.org/2000/svg">
<rect width="42" height="42" fill="white"/>
<g clip-path="url(#clip0_143_2056)">
<path d="M27.006 13.0741C27.3644 13.0741 27.6541 12.7844 27.6541 12.426C27.6541 12.0675 27.3644 11.7778 27.006 11.7778C26.6482 11.7778 26.3578 11.4874 26.3578 11.1297C26.3578 10.7719 26.6482 10.4815 27.006 10.4815H27.6541V7.88892H26.3578V9.30447C25.6053 9.5728 25.0615 10.2858 25.0615 11.1297C25.0615 12.2017 25.9339 13.0741 27.006 13.0741Z" fill="#A19289"/>
<path d="M33.4874 13.0741C33.8458 13.0741 34.1356 12.7844 34.1356 12.426C34.1356 12.0675 33.8458 11.7778 33.4874 11.7778C33.1296 11.7778 32.8393 11.4874 32.8393 11.1297C32.8393 10.7719 33.1296 10.4815 33.4874 10.4815H34.1356V7.88892H32.8393V9.30447C32.0868 9.5728 31.543 10.2858 31.543 11.1297C31.543 12.2017 32.4154 13.0741 33.4874 13.0741Z" fill="#A19289"/>
<path d="M38.6791 34.463H38.6727V29.9259C38.6727 29.5675 38.3829 29.2778 38.0245 29.2778H21.1727V26.6852V8.53704H21.1863V7.24074H21.1727V4.64815C21.1727 4.28972 20.8829 4 20.5245 4H4.96895C4.61052 4 4.3208 4.28972 4.3208 4.64815V7.24074V8.53704V26.6852V29.9259V34.463V35.7593V38.3518C4.3208 38.7103 4.61052 39 4.96895 39H38.0245C38.3829 39 38.6727 38.7103 38.6727 38.3518V35.7593H38.6791V34.463ZM5.6171 27.3333H19.8764V29.2778H5.6171V27.3333ZM5.6171 5.2963H19.8764V7.24074H18.5801H17.2838H14.043H12.7467H9.50599H8.20969H5.6171V5.2963ZM8.20969 8.53704V9.30444C7.45719 9.57278 6.91339 10.2857 6.91339 11.1296C6.91339 12.2017 7.7858 13.0741 8.85784 13.0741C9.21626 13.0741 9.50599 12.7844 9.50599 12.4259C9.50599 12.0675 9.21626 11.7778 8.85784 11.7778C8.50006 11.7778 8.20969 11.4874 8.20969 11.1296C8.20969 10.7719 8.50006 10.4815 8.85784 10.4815C9.21626 10.4815 9.50599 10.1918 9.50599 9.83333V8.53704H12.7467V9.30444C11.9942 9.57278 11.4504 10.2857 11.4504 11.1296C11.4504 12.2017 12.3228 13.0741 13.3949 13.0741C13.7533 13.0741 14.043 12.7844 14.043 12.4259C14.043 12.0675 13.7533 11.7778 13.3949 11.7778C13.0371 11.7778 12.7467 11.4874 12.7467 11.1296C12.7467 10.7719 13.0371 10.4815 13.3949 10.4815C13.7533 10.4815 14.043 10.1918 14.043 9.83333V8.53704H17.2838V9.30444C16.5306 9.57278 15.9875 10.2857 15.9875 11.1296C15.9875 12.2017 16.8599 13.0741 17.9319 13.0741C18.2903 13.0741 18.5801 12.7844 18.5801 12.4259C18.5801 12.0675 18.2903 11.7778 17.9319 11.7778C17.5741 11.7778 17.2838 11.4874 17.2838 11.1296C17.2838 10.7719 17.5741 10.4815 17.9319 10.4815C18.2903 10.4815 18.5801 10.1918 18.5801 9.83333V8.53704H19.8764V26.037H5.6171V8.53704H8.20969ZM5.6171 30.5741H20.5245H37.3764V34.463H5.6171V30.5741ZM37.3764 37.7037H5.6171V35.7593H37.3764V37.7037Z" fill="#A19289"/>
</g>
<defs>
<clipPath id="clip0_143_2056">
<rect width="35" height="35" fill="white" transform="translate(4 4)"/>
</clipPath>
</defs>
</svg>
