<svg width="42" height="42" viewBox="0 0 42 42" fill="none" xmlns="http://www.w3.org/2000/svg">
<path d="M34.042 9.34301C33.9803 9.14021 33.7938 9.00119 33.5819 9H8.42102C8.20905 9.00097 8.02254 9.14028 7.96084 9.34301L6.01568 15.6972C5.99091 20.8838 6.0029 26.0705 6.0029 31.2571C6.00289 31.7857 6.44285 32.2245 6.97154 32.2246H8.46076C8.98977 32.2248 9.42611 31.7822 9.4246 31.2532L9.40002 22.7214L11.3249 20.5207V24C11.3249 24.5286 11.7638 24.9675 12.2925 24.9675H13.743C14.2716 24.9675 14.7106 24.5286 14.7106 24V19.1609H27.2924V24C27.2924 24.5286 27.7285 24.9675 28.2572 24.9675H29.7105C30.2392 24.9675 30.6781 24.5286 30.6781 24V20.6038L32.5746 22.6931V31.2571C32.5746 31.7857 33.0135 32.2245 33.5422 32.2246H35.0314C35.5604 32.2248 36.0015 31.7822 36 31.2532C35.9951 26.0938 35.9699 20.9345 35.9863 15.6939L34.042 9.34301ZM8.77827 9.96763H33.2247L34.8604 15.2895H7.14259L8.77827 9.96763ZM6.97155 16.2571H35.0315V18.1924H6.97155V16.2571ZM6.97155 31.2571V19.1609H8.42109C8.42676 23.193 8.44334 29.2391 8.45016 31.2552L6.97155 31.2571ZM9.38965 19.1609H11.2285L9.39532 21.253L9.38965 19.1609ZM12.5136 19.1609H13.743V24H12.2925V19.4141L12.5136 19.1609ZM28.2572 19.1609H29.3684L29.7105 19.538V24H28.2572V19.1609ZM30.6781 19.1609H32.5746V21.253L30.6781 19.1685V19.1609ZM33.5819 19.1609H34.9965L35.0315 31.2571H33.5422C33.5478 27.225 33.5589 23.1929 33.5819 19.1609Z" fill="#A19289"/>
</svg>
