<svg width="42" height="42" viewBox="0 0 42 42" fill="none" xmlns="http://www.w3.org/2000/svg">
<rect width="42" height="42" fill="white"/>
<path d="M15.5071 10.1719C15.7246 10.1719 15.9333 10.0854 16.0871 9.93161C16.241 9.77777 16.3274 9.56912 16.3274 9.35156C16.3274 9.134 16.241 8.92535 16.0871 8.77151C15.9333 8.61768 15.7246 8.53125 15.5071 8.53125C15.2895 8.53125 15.0809 8.61768 14.927 8.77151C14.7732 8.92535 14.6868 9.134 14.6868 9.35156C14.6868 9.56912 14.7732 9.77777 14.927 9.93161C15.0809 10.0854 15.2895 10.1719 15.5071 10.1719Z" fill="#A19289"/>
<path d="M6.5625 20.626V25.9875C6.56354 26.9557 6.84895 27.9022 7.38329 28.7095C7.91763 29.5169 8.67736 30.1495 9.56813 30.5288L8.41312 34.8206C8.30104 35.3381 8.39241 35.8788 8.66829 36.3307C8.94418 36.7825 9.3834 37.1109 9.89487 37.2476C10.4063 37.3843 10.9508 37.319 11.4154 37.065C11.8799 36.8111 12.2289 36.3881 12.39 35.8838L13.7025 30.916H28.2713L29.5838 35.8838C29.7448 36.3881 30.0938 36.8111 30.5584 37.065C31.0229 37.319 31.5674 37.3843 32.0789 37.2476C32.5904 37.1109 33.0296 36.7825 33.3055 36.3307C33.5813 35.8788 33.6727 35.3381 33.5606 34.8206L32.4188 30.5288C33.312 30.1515 34.0745 29.5197 34.6112 28.7122C35.148 27.9047 35.4354 26.9571 35.4375 25.9875V20.626C35.4319 19.3588 35.0072 18.129 34.2297 17.1284C33.4522 16.1277 32.3656 15.4124 31.1391 15.0938L31.9791 9.06939C32.0844 8.51382 32.0649 7.94178 31.9219 7.3947C31.7789 6.84762 31.5159 6.3392 31.1522 5.90626C30.7676 5.48299 30.2969 5.14689 29.7717 4.92051C29.2465 4.69414 28.679 4.58273 28.1072 4.59376H13.8928C13.321 4.58273 12.7535 4.69414 12.2283 4.92051C11.7031 5.14689 11.2324 5.48299 10.8478 5.90626C10.485 6.33844 10.2226 6.84576 10.0796 7.39162C9.93665 7.93748 9.9166 8.50828 10.0209 9.06283L10.8609 15.0938C9.63444 15.4124 8.54778 16.1277 7.77028 17.1284C6.99279 18.129 6.56814 19.3588 6.5625 20.626ZM11.1562 35.5425C11.1058 35.7331 10.9817 35.8958 10.8112 35.9949C10.6408 36.094 10.4379 36.1213 10.2473 36.0708C10.0568 36.0203 9.89403 35.8962 9.79496 35.7258C9.69589 35.5553 9.66859 35.3525 9.71906 35.1619L10.8478 30.8438C11.0654 30.8726 11.2846 30.8879 11.5041 30.8897H12.3703L11.1562 35.5425ZM32.3334 35.1619C32.3839 35.3525 32.3566 35.5553 32.2575 35.7258C32.1585 35.8962 31.9957 36.0203 31.8052 36.0708C31.6146 36.1213 31.4117 36.094 31.2413 35.9949C31.0708 35.8958 30.9467 35.7331 30.8963 35.5425L29.6559 30.9488H30.5222C30.7417 30.947 30.9608 30.9316 31.1784 30.9028L32.3334 35.1619ZM11.3334 8.87251C11.2534 8.50671 11.2549 8.12779 11.3377 7.7626C11.4204 7.39742 11.5826 7.05492 11.8125 6.75939C12.078 6.4766 12.4011 6.2541 12.76 6.10693C13.1189 5.95975 13.5052 5.89132 13.8928 5.90626H28.1072C28.4948 5.89132 28.8811 5.95975 29.24 6.10693C29.5989 6.2541 29.922 6.4766 30.1875 6.75939C30.4243 7.05167 30.5935 7.39265 30.6831 7.75795C30.7727 8.12326 30.7805 8.50385 30.7059 8.87251L29.8397 14.8969H29.6953C29.2335 14.8969 28.7905 15.0799 28.4633 15.4058C28.1361 15.7318 27.9514 16.1741 27.9497 16.636V20.9475C27.4675 20.6267 26.9013 20.4555 26.3222 20.4553H15.6778C15.0987 20.4555 14.5325 20.6267 14.0503 20.9475V16.6294C14.0486 16.1676 13.8639 15.7252 13.5367 15.3993C13.2095 15.0733 12.7665 14.8903 12.3047 14.8903H12.1538L11.3334 8.87251ZM14.0634 23.3953C14.0626 23.1811 14.104 22.9687 14.1854 22.7705C14.2668 22.5723 14.3866 22.3921 14.5378 22.2403C14.689 22.0884 14.8687 21.968 15.0666 21.8858C15.2645 21.8036 15.4767 21.7613 15.6909 21.7613H26.3222C26.5365 21.7613 26.7486 21.8036 26.9465 21.8858C27.1444 21.968 27.3241 22.0884 27.4753 22.2403C27.6265 22.3921 27.7463 22.5723 27.8277 22.7705C27.9091 22.9687 27.9506 23.1811 27.9497 23.3953V25.0294H14.0503L14.0634 23.3953ZM12.3178 16.1766C12.4316 16.1766 12.5407 16.2213 12.6218 16.3011C12.7028 16.3809 12.7492 16.4894 12.7509 16.6031V25.0031H12.3703C12.1963 25.0031 12.0293 25.0723 11.9063 25.1954C11.7832 25.3184 11.7141 25.4853 11.7141 25.6594C11.7141 25.8334 11.7832 26.0004 11.9063 26.1234C12.0293 26.2465 12.1963 26.3156 12.3703 26.3156H29.6428C29.8169 26.3156 29.9838 26.2465 30.1068 26.1234C30.2299 26.0004 30.2991 25.8334 30.2991 25.6594C30.2991 25.4853 30.2299 25.3184 30.1068 25.1954C29.9838 25.0723 29.8169 25.0031 29.6428 25.0031H29.2622V16.6294C29.2639 16.5157 29.3103 16.4072 29.3913 16.3274C29.4724 16.2475 29.5816 16.2028 29.6953 16.2028C30.869 16.2028 31.9947 16.6686 32.8253 17.4979C33.6558 18.3272 34.1233 19.4523 34.125 20.626V25.9875C34.125 26.9465 33.744 27.8662 33.0659 28.5444C32.3878 29.2225 31.4681 29.6035 30.5091 29.6035H11.5041C11.0281 29.6052 10.5565 29.5129 10.1163 29.332C9.67605 29.151 9.27588 28.885 8.93872 28.549C8.60156 28.2131 8.33403 27.8139 8.1515 27.3743C7.96896 26.9347 7.875 26.4635 7.875 25.9875V20.626C7.87674 19.4523 8.3442 18.3272 9.17474 17.4979C10.0053 16.6686 11.131 16.2028 12.3047 16.2028L12.3178 16.1766Z" fill="#A19289"/>
<path d="M21 10.1719C21.2176 10.1719 21.4262 10.0854 21.58 9.93161C21.7339 9.77777 21.8203 9.56912 21.8203 9.35156C21.8203 9.134 21.7339 8.92535 21.58 8.77151C21.4262 8.61768 21.2176 8.53125 21 8.53125C20.7824 8.53125 20.5738 8.61768 20.42 8.77151C20.2661 8.92535 20.1797 9.134 20.1797 9.35156C20.1797 9.56912 20.2661 9.77777 20.42 9.93161C20.5738 10.0854 20.7824 10.1719 21 10.1719Z" fill="#A19289"/>
<path d="M26.4929 10.1719C26.7105 10.1719 26.9191 10.0854 27.073 9.93161C27.2268 9.77777 27.3132 9.56912 27.3132 9.35156C27.3132 9.134 27.2268 8.92535 27.073 8.77151C26.9191 8.61768 26.7105 8.53125 26.4929 8.53125C26.2754 8.53125 26.0667 8.61768 25.9129 8.77151C25.759 8.92535 25.6726 9.134 25.6726 9.35156C25.6726 9.56912 25.759 9.77777 25.9129 9.93161C26.0667 10.0854 26.2754 10.1719 26.4929 10.1719Z" fill="#A19289"/>
<path d="M15.5071 14.1225C15.7246 14.1225 15.9333 14.0361 16.0871 13.8822C16.241 13.7284 16.3274 13.5197 16.3274 13.3022C16.3291 13.1934 16.3092 13.0853 16.2688 12.9842C16.2283 12.8832 16.1682 12.7912 16.0918 12.7136C16.0155 12.6361 15.9245 12.5745 15.8241 12.5324C15.7237 12.4904 15.6159 12.4687 15.5071 12.4688C15.2895 12.4688 15.0809 12.5552 14.927 12.709C14.7732 12.8629 14.6868 13.0715 14.6868 13.2891C14.6868 13.5066 14.7732 13.7153 14.927 13.8691C15.0809 14.0229 15.2895 14.1094 15.5071 14.1094V14.1225Z" fill="#A19289"/>
<path d="M21 14.1225C21.2176 14.1225 21.4262 14.0361 21.58 13.8822C21.7339 13.7284 21.8203 13.5197 21.8203 13.3022C21.8221 13.1934 21.8021 13.0853 21.7617 12.9842C21.7212 12.8832 21.6611 12.7912 21.5847 12.7136C21.5084 12.6361 21.4174 12.5745 21.317 12.5324C21.2166 12.4904 21.1088 12.4687 21 12.4688C20.7824 12.4688 20.5738 12.5552 20.42 12.709C20.2661 12.8629 20.1797 13.0715 20.1797 13.2891C20.1797 13.5066 20.2661 13.7153 20.42 13.8691C20.5738 14.0229 20.7824 14.1094 21 14.1094V14.1225Z" fill="#A19289"/>
<path d="M26.4929 14.1225C26.7105 14.1225 26.9191 14.0361 27.073 13.8822C27.2268 13.7284 27.3132 13.5197 27.3132 13.3022C27.315 13.1934 27.295 13.0853 27.2546 12.9842C27.2142 12.8832 27.154 12.7912 27.0777 12.7136C27.0013 12.6361 26.9103 12.5745 26.8099 12.5324C26.7095 12.4904 26.6018 12.4687 26.4929 12.4688C26.2754 12.4688 26.0667 12.5552 25.9129 12.709C25.759 12.8629 25.6726 13.0715 25.6726 13.2891C25.6726 13.5066 25.759 13.7153 25.9129 13.8691C26.0667 14.0229 26.2754 14.1094 26.4929 14.1094V14.1225Z" fill="#A19289"/>
<path d="M18.2568 18.0797C18.4744 18.0797 18.683 17.9933 18.8369 17.8394C18.9907 17.6856 19.0771 17.477 19.0771 17.2594C19.0771 17.0972 19.029 16.9386 18.9389 16.8037C18.8488 16.6688 18.7206 16.5636 18.5708 16.5015C18.4209 16.4394 18.2559 16.4232 18.0968 16.4548C17.9377 16.4865 17.7915 16.5646 17.6768 16.6794C17.5621 16.7941 17.4839 16.9402 17.4523 17.0994C17.4206 17.2585 17.4369 17.4234 17.499 17.5733C17.5611 17.7232 17.6662 17.8513 17.8011 17.9415C17.936 18.0316 18.0946 18.0797 18.2568 18.0797Z" fill="#A19289"/>
<path d="M23.7432 18.0797C24.1962 18.0797 24.5635 17.7124 24.5635 17.2594C24.5635 16.8064 24.1962 16.4391 23.7432 16.4391C23.2901 16.4391 22.9229 16.8064 22.9229 17.2594C22.9229 17.7124 23.2901 18.0797 23.7432 18.0797Z" fill="#A19289"/>
</svg>
