<svg width="42" height="42" viewBox="0 0 42 42" fill="none" xmlns="http://www.w3.org/2000/svg">
<rect width="42" height="42" fill="white"/>
<path d="M7.3882 8C5.52425 8 4 9.52428 4 11.3882V13.6463C4 15.2453 5.12187 16.593 6.6175 16.9441C6.39048 17.2953 6.25806 17.7123 6.25806 18.1591V26.6268C6.25806 27.8673 7.27682 28.886 8.51723 28.886H9.64626V32.8409C9.64739 33.1509 9.89853 33.402 10.2086 33.4032H12.4677C12.7268 33.402 12.9518 33.2249 13.0135 32.9732L14.0356 28.886H28.96L29.9821 32.9732C30.0442 33.2264 30.2716 33.4041 30.5323 33.4032H32.7914C33.1015 33.402 33.3525 33.1509 33.3537 32.8409V28.886H34.4828C35.7232 28.886 36.7419 27.8673 36.7419 26.6268V18.1591C36.7419 17.7123 36.6095 17.2953 36.3825 16.9441C37.8781 16.593 39 15.2453 39 13.6463V11.3882C39 9.52428 37.4757 8 35.6118 8H7.3882ZM7.3882 9.12901H35.6118C36.8656 9.12901 37.871 10.1345 37.871 11.3882V13.6463C37.871 14.9 36.8656 15.9054 35.6118 15.9054H28.5576C28.2458 15.9042 27.992 16.156 27.9908 16.4678C27.9897 16.7812 28.2441 17.0357 28.5576 17.0344H34.4828C35.113 17.0344 35.6118 17.5288 35.6118 18.1591V24.9355H16.9309C16.6174 24.9342 16.363 25.1887 16.3642 25.5022C16.3654 25.8139 16.6192 26.0657 16.9309 26.0645H35.6118V26.6268C35.6118 27.2571 35.113 27.7558 34.4828 27.7558C25.8276 27.7558 17.1724 27.7558 8.51723 27.7558C7.88699 27.7558 7.3882 27.2571 7.3882 26.6268V18.1591C7.3882 17.5288 7.88699 17.0344 8.51723 17.0344C14.0205 17.0344 19.5238 17.0344 25.0271 17.0344C25.3406 17.0357 25.5951 16.7812 25.5938 16.4678C25.5927 16.156 25.3389 15.9042 25.0271 15.9054C19.1475 15.9054 13.2678 15.9054 7.3882 15.9054C6.13442 15.9054 5.12903 14.9 5.12903 13.6463V11.3882C5.12903 10.1345 6.13442 9.12902 7.3882 9.12901ZM7.95051 10.2581C7.02187 10.2581 6.25806 11.0219 6.25806 11.9505V13.0795C6.25806 14.0081 7.02187 14.7753 7.95051 14.7753H9.64626C9.95804 14.774 10.2098 14.5203 10.2086 14.2086C10.2074 13.8985 9.95632 13.6475 9.64626 13.6463H7.95051C7.63206 13.6463 7.3882 13.398 7.3882 13.0795V11.9505C7.3882 11.632 7.63206 11.3882 7.95051 11.3882C8.26445 11.3894 8.51907 11.1343 8.51723 10.8203C8.5161 10.5086 8.26228 10.2568 7.95051 10.2581ZM30.5323 10.2581C30.2205 10.2568 29.9668 10.5086 29.9655 10.8203C29.9638 11.1343 30.2183 11.3894 30.5323 11.3882H31.0946C31.4085 11.3894 31.6631 11.1343 31.6613 10.8203C31.6602 10.5086 31.4063 10.2568 31.0946 10.2581H30.5323ZM33.3537 10.2581C33.0437 10.2592 32.7926 10.5103 32.7914 10.8203C32.7897 11.1326 33.0415 11.387 33.3537 11.3882H35.0495C35.3679 11.3882 35.6118 11.632 35.6118 11.9505V13.0795C35.6118 13.398 35.3679 13.6463 35.0495 13.6463C34.7377 13.645 34.484 13.8968 34.4828 14.2086C34.4816 14.522 34.736 14.7765 35.0495 14.7753C35.9781 14.7753 36.7419 14.0081 36.7419 13.0795V11.9505C36.7419 11.0219 35.9781 10.2581 35.0495 10.2581H33.3537ZM11.901 13.6463C11.591 13.6475 11.3399 13.8985 11.3387 14.2086C11.3376 14.5203 11.5892 14.7741 11.901 14.7753H12.4677C12.7795 14.774 13.0313 14.5203 13.0301 14.2086C13.0289 13.8985 12.7778 13.6475 12.4677 13.6463H11.901ZM10.2086 24.9355C9.8968 24.9367 9.64504 25.1904 9.64626 25.5022C9.64739 25.8122 9.89852 26.0633 10.2086 26.0645H14.1591C14.4709 26.0658 14.7246 25.8139 14.7258 25.5022C14.7269 25.1887 14.4726 24.9342 14.1591 24.9355H10.2086ZM10.7753 28.886H12.8713L12.0256 32.2742H10.7753V28.886ZM30.1243 28.886H32.2247V32.2742H30.9744L30.1243 28.886Z" fill="#A19289"/>
</svg>
