<svg width="42" height="42" viewBox="0 0 42 42" fill="none" xmlns="http://www.w3.org/2000/svg">
<rect width="42" height="42" fill="white"/>
<path d="M11.9187 4L11.7437 4.45937L6.1437 19.8594L5.7937 20.8H17.6062C17.0511 21.3715 16.6 22.159 16.6 23.1844C16.6 25.3117 17.4011 26.6406 18.0875 27.975C18.7109 29.1863 19.2769 30.4688 19.3781 32.7H15.9C15.1343 32.7 14.5 33.3344 14.5 34.1V34.8H12.4C11.6343 34.8 11 35.4344 11 36.2V39H32V36.2C32 35.4344 31.3656 34.8 30.6 34.8H28.5V34.1C28.5 33.3344 27.8656 32.7 27.1 32.7H23.6218C23.723 30.4688 24.289 29.1863 24.9125 27.975C25.5988 26.6406 26.4 25.3117 26.4 23.1844C26.4 22.159 25.9488 21.3715 25.3937 20.8H37.2062L36.8562 19.8594L31.2562 4.45937L31.0812 4H11.9187ZM12.8812 5.4H30.1187L35.1937 19.4H20.275C20.2011 19.3891 20.13 19.3891 20.0562 19.4H7.8062L12.8812 5.4ZM20.2312 20.8H22.7687C22.8617 20.8273 23.3648 20.9723 23.9062 21.3469C24.4996 21.757 25 22.3094 25 23.1844C25 24.9781 24.4011 25.9543 23.6875 27.3406C23.0339 28.6121 22.3339 30.1953 22.2218 32.7H20.7781C20.666 30.1953 19.966 28.6121 19.3125 27.3406C18.5988 25.9543 18 24.9781 18 23.1844C18 22.3094 18.5003 21.757 19.0937 21.3469C19.6351 20.9723 20.1382 20.8273 20.2312 20.8ZM15.9 34.1H27.1V34.8H15.9V34.1ZM12.4 36.2H30.6V37.6H12.4V36.2Z" fill="#A19289"/>
</svg>
