<svg width="42" height="42" viewBox="0 0 42 42" fill="none" xmlns="http://www.w3.org/2000/svg">
<rect width="42" height="42" fill="white"/>
<path d="M16.4303 4C14.8746 4 13.5331 5.12006 13.2548 6.65058L11.4301 16.6806L9.50501 18.2893C8.5522 19.0833 8 20.2575 8 21.4978V24.886C8 25.6168 8.47606 26.2414 9.13013 26.477V27.7108C9.13013 28.6274 9.87394 29.3805 10.7862 29.3999L10.2922 37.8412C10.2557 38.4626 10.7613 39 11.3838 39H12.5172C13.1133 39 13.6309 38.566 13.7345 37.979L15.2483 29.4032H15.7301L15.3718 35.5831C15.3357 36.2045 15.842 36.7419 16.4644 36.7419H17.5979C18.1943 36.7419 18.712 36.3086 18.814 35.7209L19.9089 29.4032H22.0545L23.1526 35.7209C23.2546 36.3086 23.7724 36.7419 24.3688 36.7419H25.4989C26.1213 36.7419 26.631 36.2045 26.5948 35.5831L26.2343 29.4032H26.7183L28.2322 37.979C28.3357 38.566 28.8533 39 29.4494 39H30.5784C31.2009 39 31.7109 38.4637 31.6744 37.8423L31.176 29.3999C32.0903 29.3828 32.8365 28.6289 32.8365 27.7108V26.477C33.4906 26.2414 33.9666 25.6168 33.9666 24.886V21.4978C33.9666 20.2575 33.4144 19.0833 32.4616 18.2893L30.5321 16.6806L28.7118 6.65058C28.4335 5.12006 27.092 4 25.5364 4H16.4303ZM31.1452 23.757C31.1452 22.5166 30.1264 21.4978 28.886 21.4978H13.0806C11.8402 21.4978 10.8215 22.5166 10.8215 23.757V25.4527H9.69245C9.37399 25.4527 9.13013 25.2044 9.13013 24.886V21.4978C9.13013 20.5918 9.53013 19.7359 10.2261 19.1559L12.0542 17.6344L14.5636 18.6355C14.8524 18.7512 15.1803 18.6108 15.2968 18.3224C15.4121 18.0324 15.2705 17.7041 14.9804 17.5892L12.5878 16.6321L14.3684 6.85015C14.5504 5.84924 15.4129 5.12901 16.4303 5.12901H25.5364C26.5537 5.12901 27.4173 5.84926 27.5993 6.85015L29.3744 16.6321L26.9819 17.5892C26.6933 17.7057 26.5541 18.0336 26.6698 18.3224C26.7863 18.6109 27.1142 18.7513 27.403 18.6355L29.9125 17.6344L31.7406 19.1559C32.4365 19.7359 32.8365 20.5918 32.8365 21.4978V24.886C32.8365 25.2044 32.5927 25.4527 32.2742 25.4527H31.1452V23.757ZM21.5638 7.38707C21.5516 7.38707 21.5395 7.38744 21.5275 7.38821C21.3851 7.39329 21.2496 7.4503 21.1482 7.55036L20.9839 7.71468L20.8185 7.55036C20.7078 7.44131 20.557 7.38261 20.4017 7.38821C20.2582 7.39329 20.1214 7.44962 20.0191 7.55036C19.7973 7.77105 19.7973 8.13011 20.0191 8.35082L20.1834 8.51514L20.0191 8.67947C19.7973 8.90016 19.7973 9.25923 20.0191 9.47993C20.2397 9.70106 20.5979 9.70106 20.8185 9.47993L20.9839 9.3156L21.1482 9.47993C21.3689 9.70179 21.7279 9.70179 21.9486 9.47993C22.1705 9.25923 22.1705 8.90016 21.9486 8.67947L21.7844 8.51514L21.9486 8.35082C22.1705 8.13011 22.1705 7.77105 21.9486 7.55036C21.846 7.44877 21.7082 7.39012 21.5638 7.38707ZM16.4479 10.7753C16.3054 10.7804 16.1699 10.8381 16.0686 10.9385C15.8467 11.1592 15.8467 11.5182 16.0686 11.7389L16.2329 11.9032L16.0686 12.0676C15.8467 12.2883 15.8467 12.6473 16.0686 12.868C16.2888 13.087 16.6445 13.087 16.8647 12.868L17.0311 12.7017L17.1976 12.868C17.4178 13.087 17.7735 13.087 17.9937 12.868C18.2156 12.6473 18.2156 12.2883 17.9937 12.0676L17.8294 11.9032L17.9937 11.7389C18.2156 11.5182 18.2156 11.1592 17.9937 10.9385C17.8832 10.8291 17.7324 10.7698 17.5769 10.7753C17.4344 10.7804 17.2989 10.8381 17.1976 10.9385L17.0311 11.1048L16.8647 10.9385C16.7542 10.8291 16.6034 10.7698 16.4479 10.7753ZM24.3522 10.7753C24.2086 10.7804 24.0717 10.8374 23.9696 10.9385C23.7478 11.1592 23.7478 11.5182 23.9696 11.7389L24.1339 11.9032L23.9696 12.0676C23.7478 12.2883 23.7478 12.6473 23.9696 12.868C24.1902 13.0892 24.5484 13.0892 24.769 12.868L24.9344 12.7037L25.0987 12.868C25.3194 13.0899 25.6785 13.0899 25.8992 12.868C26.121 12.6473 26.121 12.2883 25.8992 12.0676L25.7349 11.9032L25.8992 11.7389C26.121 11.5182 26.121 11.1592 25.8992 10.9385C25.7886 10.8291 25.6378 10.7698 25.4824 10.7753C25.3383 10.7804 25.2011 10.8372 25.0987 10.9385L24.9344 11.1028L24.769 10.9385C24.6585 10.8291 24.5077 10.7698 24.3522 10.7753ZM13.0806 22.6268H28.886C29.5162 22.6268 30.0161 23.1267 30.0161 23.757V24.886C30.0161 25.2044 29.7679 25.4527 29.4494 25.4527H12.5139C12.1955 25.4527 11.9505 25.2044 11.9505 24.886V23.757C11.9505 23.1267 12.4504 22.6268 13.0806 22.6268ZM10.2548 26.5817C17.7957 26.5817 25.1768 26.5817 31.7075 26.5817V27.7108C31.7075 28.0293 31.4636 28.2742 31.1452 28.2742H10.8215C10.503 28.2742 10.2548 28.0292 10.2548 27.7108V26.5817ZM11.9185 29.4032H14.1016L12.622 37.7839C12.6124 37.8387 12.5729 37.8709 12.5172 37.8709H11.418L11.9185 29.4032ZM16.8625 29.4032H18.7622L17.7015 35.5247C17.6921 35.5788 17.6529 35.6117 17.5979 35.6117H16.4975L16.8625 29.4032ZM23.2011 29.4032H25.1042L25.4647 35.6129H24.3688C24.3137 35.6129 24.2745 35.579 24.2651 35.5247L23.2011 29.4032ZM27.8661 29.4032H30.0481L30.5487 37.8709H29.4494C29.3937 37.8709 29.3543 37.8387 29.3447 37.7839L27.8661 29.4032Z" fill="#A19289"/>
</svg>
