<svg width="42" height="42" viewBox="0 0 42 42" fill="none" xmlns="http://www.w3.org/2000/svg">
<rect width="42" height="42" fill="white"/>
<path d="M11.8361 32.4003H15.3774C15.563 32.4003 15.741 32.3266 15.8723 32.1953C16.0035 32.0641 16.0772 31.8861 16.0772 31.7005C16.0772 31.5149 16.0035 31.3368 15.8723 31.2056C15.741 31.0743 15.563 31.0006 15.3774 31.0006H11.8361C11.6505 31.0006 11.4725 31.0743 11.3412 31.2056C11.21 31.3368 11.1362 31.5149 11.1362 31.7005C11.1362 31.8861 11.21 32.0641 11.3412 32.1953C11.4725 32.3266 11.6505 32.4003 11.8361 32.4003Z" fill="#A19289"/>
<path d="M26.4772 32.4003H30.0325C30.2181 32.4003 30.3961 32.3266 30.5274 32.1953C30.6586 32.0641 30.7324 31.8861 30.7324 31.7005C30.7324 31.5149 30.6586 31.3368 30.5274 31.2056C30.3961 31.0743 30.2181 31.0006 30.0325 31.0006H26.4772C26.2916 31.0006 26.1136 31.0743 25.9823 31.2056C25.8511 31.3368 25.7773 31.5149 25.7773 31.7005C25.7773 31.8861 25.8511 32.0641 25.9823 32.1953C26.1136 32.3266 26.2916 32.4003 26.4772 32.4003Z" fill="#A19289"/>
<path d="M20.9342 4C18.2359 4.00185 15.6487 5.07456 13.7408 6.98252C11.8328 8.89048 10.7601 11.4777 10.7582 14.176V25.6537H8.44871C8.0657 25.6537 7.69827 25.8053 7.42678 26.0755C7.1553 26.3457 7.00185 26.7124 7 27.0954V37.0894C7 37.5943 7.20056 38.0784 7.55756 38.4354C7.91455 38.7924 8.39875 38.993 8.90362 38.993C9.9954 38.993 10.4223 38.0622 10.7093 37.4463L11.955 34.7938H29.9134L31.1592 37.4533C31.4461 38.0692 31.859 39 32.9648 39C33.4697 39 33.9539 38.7994 34.3109 38.4424C34.6679 38.0854 34.8684 37.6013 34.8684 37.0964V27.0954C34.8684 26.7112 34.7158 26.3427 34.4441 26.071C34.1724 25.7993 33.8039 25.6467 33.4197 25.6467H31.1102V14.176C31.1083 11.4777 30.0356 8.89048 28.1277 6.98252C26.2197 5.07456 23.6325 4.00185 20.9342 4ZM12.158 14.176C12.158 11.8484 13.0826 9.61609 14.7285 7.97022C16.3743 6.32436 18.6066 5.39972 20.9342 5.39972C23.2618 5.39972 25.4941 6.32436 27.14 7.97022C28.7858 9.61609 29.7105 11.8484 29.7105 14.176V25.6537H28.2198V14.176C28.2198 12.2437 27.4522 10.3906 26.0859 9.02431C24.7196 7.658 22.8665 6.89042 20.9342 6.89042C19.002 6.89042 17.1489 7.658 15.7826 9.02431C14.4163 10.3906 13.6487 12.2437 13.6487 14.176V25.6537H12.158V14.176ZM15.0484 25.6537V14.176C15.0484 13.403 15.2006 12.6377 15.4964 11.9236C15.7922 11.2095 16.2258 10.5606 16.7723 10.0141C17.3189 9.46751 17.9677 9.03396 18.6818 8.73817C19.3959 8.44238 20.1613 8.29014 20.9342 8.29014C21.7072 8.29014 22.4725 8.44238 23.1866 8.73817C23.9007 9.03396 24.5496 9.46751 25.0961 10.0141C25.6427 10.5606 26.0762 11.2095 26.372 11.9236C26.6678 12.6377 26.82 13.403 26.82 14.176V25.6537H15.0484ZM33.4687 30.0908V33.3941H21.6341V30.0908H33.4687ZM20.2344 33.3941H8.39972V30.0908H20.2344V33.3941ZM9.44251 36.8934C9.16957 37.4813 9.06459 37.5933 8.90362 37.5933C8.83719 37.5942 8.77124 37.5818 8.70968 37.5568C8.64811 37.5319 8.59219 37.4948 8.54521 37.4478C8.49823 37.4008 8.46115 37.3449 8.43616 37.2833C8.41117 37.2218 8.39878 37.1558 8.39972 37.0894V34.7938H10.4363L9.44251 36.8934ZM32.9648 37.5933C32.8038 37.5933 32.6989 37.4463 32.4259 36.8934L31.4321 34.7938H33.4407V37.0964C33.4408 37.2246 33.3914 37.3479 33.3027 37.4405C33.214 37.5331 33.0929 37.5879 32.9648 37.5933ZM33.4687 27.0954V28.6841H8.39972V27.0954C8.39972 27.0824 8.40488 27.0699 8.41407 27.0607C8.42326 27.0516 8.43572 27.0464 8.44871 27.0464H33.4197C33.4327 27.0464 33.4452 27.0516 33.4544 27.0607C33.4635 27.0699 33.4687 27.0824 33.4687 27.0954Z" fill="#A19289"/>
</svg>
