<svg width="42" height="42" viewBox="0 0 42 42" fill="none" xmlns="http://www.w3.org/2000/svg">
<path d="M7.37619 9.23584C6.02088 9.23584 4.9286 10.3924 5.0082 11.7454C5.01006 11.7509 5.01129 11.7546 5.01317 11.7602L5.46911 17.5254C5.45752 17.5272 5.44558 17.5259 5.43406 17.5272C4.95801 17.6061 4.52329 17.7954 4.10373 17.9868C4.10001 17.9887 4.0956 17.9924 4.09166 17.9942C2.73203 18.7265 1.80469 20.1645 1.80469 21.8119C1.80469 22.2529 1.87794 22.6699 2.00786 23.0612C2.14765 23.5347 2.3717 23.9898 2.68633 24.4036C2.84293 24.6096 3.03623 24.7589 3.24023 24.8922C3.55351 25.1689 3.90264 25.4083 4.28152 25.5985C4.29942 27.0635 4.28152 28.4471 4.28152 29.8979C4.28152 30.4459 4.73973 30.9077 5.28773 30.9077H5.52114V32.1461C5.52238 32.4864 5.79762 32.763 6.13794 32.7641C6.48003 32.7655 6.75838 32.4882 6.75956 32.1461V30.9077H35.2407V32.1461C35.242 32.4882 35.5202 32.7655 35.8623 32.7641C36.2027 32.763 36.478 32.4864 36.4791 32.1461V30.9077H36.7077C37.2558 30.9077 37.7188 30.4459 37.7188 29.8979C37.7031 28.4383 37.7188 27.057 37.7188 25.5936C39.2675 24.8417 40.1109 23.4297 40.1953 21.4353C39.9635 18.9891 38.4808 17.9893 36.6023 17.5379C36.594 17.5365 36.5852 17.5369 36.577 17.5361L36.9869 11.7564C36.987 11.7545 36.987 11.7489 36.9869 11.7471C37.0665 10.3941 35.9791 9.2376 34.6238 9.2376L7.37619 9.23584ZM7.37619 10.4755H34.6238C35.2841 10.4755 35.7909 11.0136 35.7521 11.6727L35.3349 17.5129C34.2297 17.6159 33.1679 18.4263 32.4819 19.0537C28.7293 17.6219 24.8051 17.4147 20.9976 19.7539C16.9469 17.3468 13.0981 17.7523 9.50471 19.0718C8.82447 18.226 7.60417 17.718 6.70981 17.5202L6.24783 11.6727C6.20907 11.0136 6.71588 10.4755 7.37619 10.4755ZM10.4529 13.5691C10.2966 13.5747 10.1479 13.638 10.0368 13.7481C9.79428 13.99 9.79428 14.3829 10.0368 14.6248L10.217 14.8062L10.0368 14.9865C9.79348 15.2286 9.79348 15.6224 10.0368 15.8645C10.2784 16.1047 10.6685 16.1047 10.91 15.8645L11.0926 15.682L11.2753 15.8645C11.5168 16.1047 11.9069 16.1047 12.1484 15.8645C12.3918 15.6224 12.3918 15.2286 12.1484 14.9865L11.9682 14.8062L12.1484 14.6248C12.391 14.3829 12.391 13.99 12.1484 13.7481C12.0272 13.6281 11.8618 13.5631 11.6913 13.5691C11.535 13.5747 11.3864 13.638 11.2753 13.7481L11.0926 13.9305L10.91 13.7481C10.7888 13.6281 10.6234 13.5631 10.4529 13.5691ZM20.3626 13.5691C20.2046 13.5747 20.0541 13.637 19.9418 13.7481C19.6992 13.99 19.6992 14.3829 19.9418 14.6248L20.122 14.8062L19.9418 14.9865C19.6984 15.2286 19.6984 15.6224 19.9418 15.8645C20.1838 16.1079 20.5777 16.1079 20.8198 15.8645L21 15.6842L21.1802 15.8645C21.4223 16.1079 21.8161 16.1079 22.0582 15.8645C22.3016 15.6224 22.3016 15.2286 22.0582 14.9865L21.878 14.8062L22.0582 14.6248C22.3008 14.3829 22.3008 13.99 22.0582 13.7481C21.937 13.6281 21.7716 13.5631 21.601 13.5691C21.4431 13.5747 21.2925 13.637 21.1802 13.7481L21 13.9283L20.8198 13.7481C20.6986 13.6281 20.5332 13.5631 20.3626 13.5691ZM30.2675 13.5691C30.1112 13.5747 29.9626 13.638 29.8515 13.7481C29.6089 13.99 29.6089 14.3829 29.8515 14.6248L30.0317 14.8062L29.8515 14.9865C29.6081 15.2286 29.6081 15.6224 29.8515 15.8645C30.093 16.1047 30.4832 16.1047 30.7247 15.8645L30.9073 15.682L31.0899 15.8645C31.3315 16.1047 31.7216 16.1047 31.9631 15.8645C32.2065 15.6224 32.2065 15.2286 31.9631 14.9865L31.7829 14.8062L31.9631 14.6248C32.2057 14.3829 32.2057 13.99 31.9631 13.7481C31.8419 13.6281 31.6765 13.5631 31.506 13.5691C31.3496 13.5747 31.201 13.638 31.0899 13.7481L30.9073 13.9305L30.7247 13.7481C30.6035 13.6281 30.4381 13.5631 30.2675 13.5691ZM38.2944 23.6845C37.4004 24.8601 35.812 25.2381 34.4824 24.5951C34.1745 24.4461 33.8041 24.5741 33.6552 24.8829C33.5062 25.1908 33.6351 25.5613 33.943 25.7102C34.7535 26.1022 35.6342 26.1132 36.4767 25.9847L36.4793 27.1905H32.7641C32.7603 25.715 32.7523 24.1573 32.752 22.7109C32.7557 21.9465 32.8073 21.3697 32.908 20.9222C33.0466 19.5573 35.0231 18.4613 35.9217 18.6517C38.9107 18.8525 39.9556 21.9914 38.2944 23.6845ZM5.98175 18.7199C7.40061 18.7292 8.46078 19.3898 8.95203 20.5243C9.1409 21.0238 9.23624 21.726 9.23624 22.7931V22.808C9.23438 22.8354 9.23438 22.8627 9.23624 22.8902V27.1909H5.52099L5.52346 25.9476C6.3563 26.0683 7.22547 26.0648 8.02569 25.6779C8.33366 25.5291 8.46255 25.1586 8.31353 24.8507C8.16463 24.5427 7.79422 24.4138 7.4863 24.5629C6.15673 25.2059 4.5683 24.829 3.6743 23.6534C2.7875 22.4872 2.89276 20.854 3.87506 19.7362C4.08098 19.5019 4.31078 19.3153 4.55232 19.1593C4.97458 18.9066 5.45794 18.7457 5.98175 18.7199ZM26.9296 19.0997C28.565 19.0718 30.2081 19.4477 31.8724 20.0696C31.5953 20.7583 31.5264 21.5838 31.5229 22.2271H10.4613C10.4889 21.4892 10.3676 20.6922 10.1166 20.0998C13.5484 18.8641 16.909 18.5236 20.6686 20.9017C20.8751 21.0311 21.1383 21.0274 21.341 20.8923C23.21 19.6672 25.0653 19.1314 26.9296 19.0997ZM6.13656 20.9984C5.79646 20.9997 5.52109 21.2751 5.51977 21.6151C5.51853 21.9571 5.79457 22.2354 6.13656 22.2368C6.48043 22.2381 6.75953 21.959 6.75819 21.6151C6.75695 21.2732 6.47854 20.9971 6.13656 20.9984ZM35.8586 20.9984C35.5185 20.9997 35.2431 21.2751 35.2418 21.6151C35.2405 21.9571 35.5166 22.2354 35.8586 22.2368C36.2024 22.2381 36.4815 21.959 36.4802 21.6151C36.4789 21.2732 36.2005 20.9971 35.8586 20.9984ZM10.471 23.4656H31.512L31.523 27.1905H10.471V23.4656ZM12.3286 24.7136C11.9881 24.7143 11.712 24.9898 11.7106 25.3304C11.7094 25.6729 11.9862 25.9514 12.3286 25.952C12.6725 25.9534 12.9516 25.6743 12.9503 25.3304C12.949 24.9884 12.6706 24.7123 12.3286 24.7136ZM17.9015 24.7136C17.5609 24.7143 17.2848 24.9898 17.2835 25.3304C17.2823 25.6729 17.5591 25.9514 17.9015 25.952C18.2454 25.9534 18.5245 25.6743 18.5231 25.3304C18.5219 24.9884 18.2435 24.7123 17.9015 24.7136ZM24.0936 24.7136C23.7535 24.7149 23.4781 24.9903 23.4768 25.3304C23.4756 25.6724 23.7516 25.9507 24.0936 25.952C24.4375 25.9534 24.7166 25.6743 24.7152 25.3304C24.714 24.9884 24.4356 24.7123 24.0936 24.7136ZM29.6665 24.7136C29.3264 24.7149 29.051 24.9903 29.0497 25.3304C29.0484 25.6724 29.3245 25.9507 29.6665 25.952C30.0103 25.9534 30.2894 25.6743 30.2881 25.3304C30.2869 24.9884 30.0084 24.7123 29.6665 24.7136ZM5.52098 28.4301H9.85423H36.479V29.6685H5.52098V28.4301Z" fill="#A19289"/>
</svg>
