<svg width="42" height="42" viewBox="0 0 42 42" fill="none" xmlns="http://www.w3.org/2000/svg">
<rect width="42" height="42" fill="white"/>
<path d="M35.8575 18.9H24.8784L26.0531 12.9938C26.0717 12.8978 26.0686 12.7989 26.0441 12.7042C26.0195 12.6096 25.9742 12.5216 25.9113 12.4468C25.8484 12.3719 25.7695 12.3121 25.6805 12.2716C25.5915 12.2311 25.4946 12.2111 25.3969 12.2128H25.2591C25.7381 10.9988 26.0531 8.71502 24.7931 7.98659C24.045 7.56002 23.1328 7.90127 22.4109 8.35409C22.2486 8.12779 22.0375 7.94075 21.7934 7.80674C21.5492 7.67274 21.2781 7.59516 21 7.57971C20.7165 7.59554 20.4405 7.67663 20.1935 7.81664C19.9465 7.95665 19.7351 8.1518 19.5759 8.3869C18.8475 7.93409 17.9288 7.59284 17.1938 8.01284C15.9338 8.74127 16.2487 11.025 16.7278 12.2391H16.59C16.4922 12.2373 16.3953 12.2574 16.3063 12.2979C16.2173 12.3383 16.1385 12.3982 16.0756 12.473C16.0127 12.5479 15.9673 12.6358 15.9428 12.7305C15.9182 12.8251 15.9152 12.924 15.9338 13.02L17.1084 18.9263H6.1425C5.73625 18.9262 5.34625 19.0858 5.05655 19.3706C4.76684 19.6554 4.60064 20.0426 4.59375 20.4488V32.3269C4.59375 32.881 4.8134 33.4125 5.20458 33.8049C5.59576 34.1973 6.12655 34.4186 6.68063 34.4203C7.86844 34.4203 8.33438 33.4163 8.64937 32.6813L10.1784 29.4H31.7691L33.2981 32.6813C33.6394 33.4163 34.1053 34.4203 35.2669 34.4203C35.5456 34.4265 35.8228 34.3768 36.0821 34.2744C36.3414 34.1719 36.5777 34.0187 36.7769 33.8237C36.9762 33.6287 37.1346 33.3958 37.2426 33.1388C37.3507 32.8817 37.4063 32.6057 37.4062 32.3269V20.4488C37.4062 20.038 37.2431 19.6441 36.9526 19.3536C36.6622 19.0632 36.2683 18.9 35.8575 18.9ZM21.6562 28.1006V23.8219H36.0938V28.1006H21.6562ZM5.90625 28.1006V23.8219H20.3438V28.1006H5.90625ZM24.15 9.14815C24.5109 9.35815 24.4387 11.1169 23.9269 12.0225C23.8706 12.1007 23.8068 12.1732 23.7366 12.2391H23.4281C23.5057 11.9971 23.5477 11.7451 23.5528 11.491C23.5146 10.8124 23.3568 10.1459 23.0869 9.52221C23.3231 9.36471 23.9334 9.03002 24.15 9.14815ZM21 8.89221C21.4134 8.89221 22.2403 10.4738 22.2403 11.5172C22.2389 11.7878 22.149 12.0506 21.9844 12.2653H20.0156C19.8501 12.051 19.7601 11.788 19.7597 11.5172C19.7597 10.5 20.5866 8.89221 21 8.89221ZM18.0731 12.0225C17.5678 11.1366 17.4891 9.35815 17.85 9.15471C18.06 9.03002 18.7031 9.3844 18.9131 9.52221C18.6425 10.1457 18.4848 10.8123 18.4472 11.491C18.4523 11.7451 18.4943 11.9971 18.5719 12.2391H18.2634C18.1932 12.1732 18.1294 12.1007 18.0731 12.0225ZM17.4169 13.5516H24.6356L23.5463 18.9H18.4538L17.4169 13.5516ZM5.90625 20.4488C5.90534 20.4175 5.91083 20.3864 5.92239 20.3573C5.93394 20.3282 5.95131 20.3018 5.97343 20.2797C5.99555 20.2576 6.02196 20.2402 6.05103 20.2287C6.0801 20.2171 6.11123 20.2116 6.1425 20.2125H35.8575C35.8888 20.2116 35.9199 20.2171 35.949 20.2287C35.978 20.2402 36.0044 20.2576 36.0266 20.2797C36.0487 20.3018 36.0661 20.3282 36.0776 20.3573C36.0892 20.3864 36.0947 20.4175 36.0938 20.4488V22.5094H5.90625V20.4488ZM7.48781 32.1563C7.14 32.8978 6.9825 33.1341 6.68063 33.1341C6.57611 33.1342 6.47266 33.1131 6.3765 33.0722C6.28035 33.0312 6.19348 32.9712 6.12112 32.8958C6.04877 32.8204 5.99243 32.7311 5.9555 32.6333C5.91858 32.5356 5.90182 32.4313 5.90625 32.3269V29.4131H8.75437L7.48781 32.1563ZM35.3194 33.1341C35.0175 33.1341 34.86 32.8978 34.5122 32.1563L33.2456 29.4394H36.0938V32.3531C36.0886 32.5551 36.0048 32.747 35.8601 32.888C35.7154 33.029 35.5214 33.1079 35.3194 33.1078V33.1341Z" fill="#A19289"/>
<path d="M14.3982 25.259H10.1917C10.0176 25.259 9.85068 25.3282 9.72761 25.4512C9.60454 25.5743 9.5354 25.7412 9.5354 25.9153C9.5354 26.0893 9.60454 26.2562 9.72761 26.3793C9.85068 26.5024 10.0176 26.5715 10.1917 26.5715H14.3982C14.5723 26.5715 14.7392 26.5024 14.8623 26.3793C14.9853 26.2562 15.0545 26.0893 15.0545 25.9153C15.0545 25.7412 14.9853 25.5743 14.8623 25.4512C14.7392 25.3282 14.5723 25.259 14.3982 25.259Z" fill="#A19289"/>
<path d="M31.8084 25.259H27.6018C27.4278 25.259 27.2608 25.3282 27.1378 25.4512C27.0147 25.5743 26.9456 25.7412 26.9456 25.9153C26.9456 26.0893 27.0147 26.2562 27.1378 26.3793C27.2608 26.5024 27.4278 26.5715 27.6018 26.5715H31.8084C31.9824 26.5715 32.1493 26.5024 32.2724 26.3793C32.3955 26.2562 32.4646 26.0893 32.4646 25.9153C32.4646 25.7412 32.3955 25.5743 32.2724 25.4512C32.1493 25.3282 31.9824 25.259 31.8084 25.259Z" fill="#A19289"/>
</svg>
