<svg width="42" height="42" viewBox="0 0 42 42" fill="none" xmlns="http://www.w3.org/2000/svg">
<rect width="42" height="42" fill="white"/>
<path d="M7.56238 4.00016C7.41342 4.00075 7.27073 4.06024 7.16539 4.16557C7.06006 4.2709 7.00062 4.41357 7.00002 4.56253V6.2551C6.99887 6.40474 7.05717 6.5487 7.16211 6.65538L7.72888 7.22216C7.83555 7.32711 7.97951 7.38539 8.12915 7.38426V26.5806C8.05464 26.5803 7.98081 26.5948 7.91192 26.6232C7.84302 26.6516 7.78043 26.6933 7.72774 26.746C7.67505 26.7987 7.63331 26.8612 7.60493 26.9301C7.57655 26.999 7.56209 27.0728 7.56238 27.1474C7.56267 27.2215 7.57755 27.2949 7.60619 27.3633C7.63483 27.4317 7.67666 27.4937 7.72929 27.5459C7.78192 27.5982 7.84432 27.6395 7.91293 27.6676C7.98154 27.6957 8.05501 27.71 8.12915 27.7097V35.6159C7.97951 35.6148 7.83555 35.673 7.72888 35.778L7.16211 36.3448C7.05718 36.4515 6.99888 36.5954 7.00002 36.7451V38.4366C7.00033 38.5857 7.05964 38.7287 7.16501 38.8343C7.27037 38.9398 7.41323 38.9994 7.56238 39H33.5346C33.6838 38.9994 33.8266 38.9398 33.932 38.8343C34.0374 38.7287 34.0967 38.5857 34.097 38.4366V36.7451C34.097 36.6707 34.0823 36.597 34.0537 36.5283C34.0251 36.4596 33.9833 36.3973 33.9305 36.3448L33.3682 35.778C33.2615 35.673 33.1175 35.6148 32.9679 35.6159V27.7097C33.042 27.71 33.1155 27.6957 33.1841 27.6676C33.2527 27.6395 33.3151 27.5982 33.3677 27.5459C33.4204 27.4937 33.4622 27.4317 33.4908 27.3633C33.5195 27.2949 33.5344 27.2215 33.5346 27.1474C33.5349 27.0728 33.5205 26.999 33.4921 26.9301C33.4637 26.8612 33.422 26.7987 33.3693 26.746C33.3166 26.6933 33.254 26.6516 33.1851 26.6232C33.1162 26.5948 33.0424 26.5803 32.9679 26.5806V7.38426C33.1175 7.38535 33.2615 7.32702 33.3681 7.222L33.9305 6.65523C33.9835 6.60286 34.0255 6.54056 34.0543 6.47186C34.0831 6.40316 34.098 6.32943 34.0981 6.25495V4.56233C34.0975 4.41318 34.0379 4.27036 33.9323 4.165C33.8268 4.05964 33.6838 4.00031 33.5347 4L7.56238 4.00016ZM8.12915 5.126H32.9679V6.02132L32.7352 6.2551H8.3585L8.12915 6.02132V5.126ZM9.25939 7.38426H19.9817V26.5806H9.25939V7.38426ZM21.1109 7.38426H31.8387V26.5806H21.1109V7.38426ZM10.9509 8.51336C10.8767 8.51365 10.8034 8.52856 10.735 8.5572C10.6666 8.58584 10.6045 8.62764 10.5523 8.68027C10.5001 8.73291 10.4587 8.79535 10.4306 8.86396C10.4025 8.93257 10.3882 9.006 10.3885 9.08014V24.888C10.3891 25.037 10.4485 25.1797 10.5539 25.285C10.6592 25.3904 10.8019 25.4498 10.9509 25.4504C11.0998 25.4498 11.2426 25.3904 11.3479 25.285C11.4532 25.1797 11.5127 25.037 11.5132 24.888V9.08014C11.5135 9.006 11.4992 8.93257 11.4711 8.86396C11.443 8.79535 11.4017 8.73291 11.3495 8.68027C11.2972 8.62764 11.2352 8.58584 11.1668 8.5572C11.0984 8.52856 11.025 8.51365 10.9509 8.51336ZM30.1472 8.51336C30.0726 8.51292 29.9987 8.52728 29.9297 8.5556C29.8606 8.58391 29.7979 8.6256 29.7451 8.67831C29.6923 8.73101 29.6505 8.79369 29.622 8.86266C29.5936 8.93163 29.5791 9.00553 29.5794 9.08014V24.888C29.5797 24.9622 29.5946 25.0357 29.6233 25.1041C29.652 25.1726 29.6939 25.2348 29.7467 25.287C29.7994 25.3392 29.8619 25.3805 29.9307 25.4086C29.9994 25.4366 30.073 25.4508 30.1472 25.4504C30.2962 25.4498 30.4389 25.3904 30.5443 25.285C30.6496 25.1797 30.709 25.037 30.7096 24.888V9.08014C30.7099 9.006 30.6956 8.93257 30.6675 8.86396C30.6394 8.79535 30.598 8.73291 30.5458 8.68027C30.4936 8.62764 30.4315 8.58584 30.3631 8.5572C30.2947 8.52856 30.2214 8.51365 30.1472 8.51336ZM18.2902 15.8527C18.1405 15.8533 17.9972 15.9134 17.8917 16.0197C17.7862 16.1259 17.7273 16.2698 17.7279 16.4195V17.5486C17.7282 17.6978 17.7875 17.8408 17.8929 17.9464C17.9982 18.0519 18.1411 18.1115 18.2902 18.1121C18.3645 18.1124 18.438 18.098 18.5067 18.0699C18.5754 18.0417 18.6378 18.0003 18.6905 17.9479C18.7431 17.8956 18.7849 17.8334 18.8135 17.7649C18.8421 17.6964 18.8569 17.6229 18.857 17.5486V16.4195C18.8573 16.345 18.8428 16.2711 18.8145 16.2023C18.7861 16.1334 18.7443 16.0708 18.6917 16.0181C18.639 15.9654 18.5764 15.9237 18.5075 15.8953C18.4386 15.8669 18.3648 15.8525 18.2902 15.8527ZM22.8079 15.8527C22.7334 15.8525 22.6595 15.8669 22.5906 15.8953C22.5218 15.9237 22.4592 15.9654 22.4065 16.0181C22.3538 16.0708 22.312 16.1334 22.2837 16.2023C22.2553 16.2711 22.2408 16.345 22.2411 16.4195V17.5486C22.2413 17.6229 22.256 17.6964 22.2846 17.7649C22.3132 17.8334 22.355 17.8956 22.4076 17.9479C22.4603 18.0003 22.5227 18.0417 22.5914 18.0699C22.6601 18.098 22.7336 18.1124 22.8079 18.1121C22.957 18.1115 23.0999 18.0519 23.2053 17.9464C23.3106 17.8408 23.3699 17.6978 23.3702 17.5486V16.4195C23.3708 16.2698 23.3119 16.1259 23.2064 16.0197C23.101 15.9134 22.9576 15.8533 22.8079 15.8527ZM9.25939 27.7097H19.9817V31.0982H9.25939V27.7097ZM21.1109 27.7097H31.8387V31.0982H21.1109V27.7097ZM14.3394 28.8389C14.2649 28.8386 14.191 28.8531 14.1221 28.8814C14.0532 28.9098 13.9906 28.9516 13.938 29.0043C13.8853 29.0569 13.8435 29.1195 13.8152 29.1884C13.7868 29.2573 13.7723 29.3312 13.7726 29.4057C13.7729 29.4798 13.7878 29.5532 13.8164 29.6215C13.8451 29.6899 13.8869 29.752 13.9395 29.8042C13.9922 29.8565 14.0546 29.8978 14.1232 29.9259C14.1918 29.954 14.2652 29.9683 14.3394 29.968H14.9017C14.9759 29.9683 15.0494 29.954 15.118 29.9259C15.1866 29.8978 15.249 29.8565 15.3016 29.8042C15.3542 29.752 15.3961 29.6899 15.4247 29.6215C15.4533 29.5532 15.4682 29.4798 15.4685 29.4057C15.4688 29.3312 15.4543 29.2573 15.426 29.1884C15.3976 29.1195 15.3559 29.0569 15.3032 29.0043C15.2505 28.9516 15.1879 28.9098 15.119 28.8814C15.0501 28.8531 14.9763 28.8386 14.9017 28.8389H14.3394ZM26.1964 28.8389C26.1218 28.8385 26.0478 28.8528 25.9788 28.8811C25.9098 28.9094 25.847 28.9511 25.7942 29.0038C25.7414 29.0565 25.6996 29.1192 25.6712 29.1881C25.6427 29.2571 25.6282 29.3311 25.6285 29.4057C25.6288 29.4799 25.6437 29.5533 25.6724 29.6218C25.7011 29.6903 25.7431 29.7524 25.7958 29.8046C25.8486 29.8568 25.9111 29.8982 25.9798 29.9262C26.0486 29.9543 26.1221 29.9685 26.1964 29.968H26.7587C26.8329 29.9683 26.9064 29.954 26.975 29.9259C27.0436 29.8978 27.106 29.8565 27.1586 29.8042C27.2112 29.752 27.2531 29.6899 27.2817 29.6215C27.3103 29.5532 27.3252 29.4798 27.3255 29.4057C27.3258 29.3312 27.3113 29.2573 27.283 29.1884C27.2546 29.1195 27.2128 29.0569 27.1602 29.0043C27.1075 28.9516 27.0449 28.9098 26.976 28.8814C26.9071 28.8531 26.8333 28.8386 26.7587 28.8389H26.1964ZM9.25939 32.2274H31.8387V35.6159H9.25939V32.2274ZM14.3416 33.3565C14.1919 33.3559 14.048 33.4148 13.9417 33.5203C13.8354 33.6258 13.7754 33.7691 13.7748 33.9189C13.7745 33.9934 13.789 34.0672 13.8174 34.1361C13.8457 34.205 13.8875 34.2676 13.9402 34.3203C13.9929 34.373 14.0554 34.4147 14.1243 34.4431C14.1932 34.4714 14.2671 34.4859 14.3416 34.4857H14.9039C14.9781 34.4854 15.0514 34.4705 15.1198 34.4418C15.1882 34.4132 15.2503 34.3713 15.3025 34.3187C15.3547 34.2661 15.3961 34.2037 15.4242 34.1351C15.4523 34.0665 15.4666 33.993 15.4663 33.9189C15.4657 33.7699 15.4063 33.6272 15.3009 33.5219C15.1956 33.4165 15.0529 33.3571 14.9039 33.3565H14.3416ZM26.1964 33.3565C26.1221 33.3561 26.0486 33.3703 25.9798 33.3983C25.9111 33.4264 25.8486 33.4677 25.7958 33.5199C25.7431 33.5721 25.7011 33.6343 25.6724 33.7027C25.6437 33.7712 25.6288 33.8446 25.6285 33.9189C25.6282 33.9935 25.6427 34.0674 25.6712 34.1364C25.6996 34.2053 25.7414 34.268 25.7942 34.3207C25.847 34.3734 25.9098 34.4151 25.9788 34.4434C26.0478 34.4717 26.1218 34.4861 26.1964 34.4857H26.7587C26.8333 34.4859 26.9071 34.4714 26.976 34.4431C27.0449 34.4147 27.1075 34.373 27.1602 34.3203C27.2128 34.2676 27.2546 34.205 27.283 34.1361C27.3113 34.0672 27.3258 33.9934 27.3255 33.9189C27.3249 33.7691 27.2649 33.6258 27.1586 33.5203C27.0523 33.4148 26.9085 33.3559 26.7587 33.3565H26.1964ZM8.3585 36.745H32.7352L32.9679 36.9777V37.8742H8.12915V36.9777L8.3585 36.745Z" fill="#A19289"/>
</svg>
