<svg width="24" height="24" viewBox="0 0 24 24" fill="none" xmlns="http://www.w3.org/2000/svg">
<path d="M12 3C14.2512 5.46452 15.5305 8.66283 15.6 12C15.5305 15.3372 14.2512 18.5355 12 21M12 3C9.74885 5.46452 8.46952 8.66283 8.4 12C8.46952 15.3372 9.74885 18.5355 12 21M12 3C7.02944 3 3 7.02944 3 12C3 16.9706 7.02944 21 12 21M12 3C16.9706 3 21 7.02944 21 12C21 16.9706 16.9706 21 12 21M3.45002 9.3H20.55M3.45 14.7H20.55" stroke="white" stroke-width="2" stroke-linecap="round" stroke-linejoin="round"/>
</svg>
