<svg width="28" height="28" viewBox="0 0 28 28" fill="none" xmlns="http://www.w3.org/2000/svg">
<circle cx="14" cy="14" r="14" fill="#FA0001"/>
<path d="M14.001 5.47852C11.6867 5.47852 11.3962 5.48866 10.4873 5.52999C9.58003 5.57157 8.96075 5.71516 8.41894 5.9259C7.85838 6.14355 7.38295 6.43473 6.90932 6.90853C6.43525 7.38225 6.14406 7.85768 5.92574 8.41798C5.7144 8.95995 5.57064 9.57948 5.52982 10.4863C5.48917 11.3953 5.47852 11.6859 5.47852 14.0003C5.47852 16.3147 5.48874 16.6042 5.52999 17.5131C5.57174 18.4204 5.71533 19.0396 5.92591 19.5814C6.14372 20.142 6.43491 20.6174 6.90872 21.091C7.38227 21.5651 7.8577 21.857 8.41783 22.0746C8.96007 22.2853 9.57943 22.4289 10.4865 22.4705C11.3955 22.5119 11.6858 22.522 14 22.522C16.3146 22.522 16.6042 22.5119 17.5131 22.4705C18.4203 22.4289 19.0403 22.2853 19.5825 22.0746C20.1428 21.857 20.6176 21.5651 21.091 21.091C21.5651 20.6174 21.8562 20.142 22.0746 19.5817C22.2841 19.0396 22.4279 18.4202 22.4705 17.5133C22.5113 16.6044 22.522 16.3147 22.522 14.0003C22.522 11.6859 22.5113 11.3954 22.4705 10.4864C22.4279 9.57922 22.2841 8.96004 22.0746 8.41823C21.8562 7.85768 21.5651 7.38225 21.091 6.90853C20.617 6.43456 20.143 6.14338 19.582 5.92599C19.0387 5.71516 18.4191 5.57149 17.5119 5.52999C16.6029 5.48866 16.3135 5.47852 13.9984 5.47852H14.001ZM13.2365 7.0142C13.4635 7.01386 13.7167 7.0142 14.001 7.0142C16.2764 7.0142 16.546 7.02238 17.4446 7.0632C18.2754 7.10121 18.7264 7.24003 19.0268 7.35669C19.4245 7.5111 19.708 7.69577 20.0061 7.99411C20.3044 8.29237 20.489 8.57639 20.6438 8.9741C20.7605 9.27406 20.8995 9.72503 20.9373 10.5559C20.9781 11.4542 20.987 11.724 20.987 13.9983C20.987 16.2726 20.9781 16.5424 20.9373 17.4407C20.8993 18.2716 20.7605 18.7225 20.6438 19.0226C20.4894 19.4203 20.3044 19.7035 20.0061 20.0015C19.7079 20.2998 19.4247 20.4844 19.0268 20.6389C18.7268 20.7561 18.2754 20.8945 17.4446 20.9325C16.5462 20.9734 16.2764 20.9822 14.001 20.9822C11.7255 20.9822 11.4558 20.9734 10.5576 20.9325C9.72669 20.8942 9.27572 20.7554 8.97507 20.6387C8.57745 20.4842 8.29333 20.2996 7.99507 20.0014C7.69681 19.7031 7.51223 19.4198 7.35739 19.0219C7.24073 18.7218 7.10174 18.2709 7.0639 17.44C7.02308 16.5417 7.0149 16.2719 7.0149 13.9962C7.0149 11.7205 7.02308 11.4521 7.0639 10.5538C7.10191 9.7229 7.24073 9.27193 7.35739 8.97154C7.51189 8.57384 7.69681 8.28981 7.99516 7.99155C8.2935 7.69329 8.57745 7.50863 8.97516 7.35388C9.27555 7.2367 9.72669 7.09823 10.5576 7.06005C11.3437 7.02451 11.6483 7.01386 13.2365 7.01207V7.0142ZM18.5499 8.42914C17.9854 8.42914 17.5273 8.88675 17.5273 9.4514C17.5273 10.016 17.9854 10.474 18.5499 10.474C19.1145 10.474 19.5725 10.016 19.5725 9.4514C19.5725 8.88684 19.1145 8.4288 18.5499 8.4288V8.42914ZM14.001 9.62396C11.5843 9.62396 9.62477 11.5834 9.62477 14.0003C9.62477 16.4171 11.5843 18.3756 14.001 18.3756C16.4179 18.3756 18.3767 16.4171 18.3767 14.0003C18.3767 11.5835 16.4177 9.62396 14.0009 9.62396H14.001ZM14.001 11.1596C15.5698 11.1596 16.8417 12.4313 16.8417 14.0003C16.8417 15.569 15.5698 16.8409 14.001 16.8409C12.4323 16.8409 11.1605 15.569 11.1605 14.0003C11.1605 12.4313 12.4322 11.1596 14.001 11.1596Z" fill="white"/>
</svg>
