<svg width="204" height="30" viewBox="0 0 204 30" fill="none" xmlns="http://www.w3.org/2000/svg">
<path fill-rule="evenodd" clip-rule="evenodd" d="M153 7.77373C148.742 8.22185 146.431 10.292 145.599 13.7956C145.59 13.8304 145.583 13.8667 145.577 13.9042C145.449 14.6943 145.43 15.5327 145.599 16.3139C146.613 21.0219 150.465 22.1768 153 22.4453C153.67 22.5162 154.05 22.5548 154.724 22.5548C155.398 22.5548 155.778 22.5162 156.448 22.4453C160.199 22.0479 163.038 20.365 163.849 16.3139C163.982 15.6501 163.932 14.9587 163.883 14.2765L163.883 14.2763C163.874 14.1509 163.865 14.0257 163.857 13.9011C163.855 13.8649 163.852 13.8296 163.849 13.7956C163.545 10.4157 160.3 8.17917 156.448 7.77373C155.778 7.70324 155.398 7.66425 154.724 7.66425C154.05 7.66425 153.67 7.70324 153 7.77373ZM154.723 21.4333C155.29 21.4333 155.608 21.3839 156.171 21.3238C159.323 20.9872 161.708 19.5615 162.39 16.1298C162.501 15.5674 162.459 14.982 162.418 14.4043C162.41 14.2979 162.403 14.1917 162.396 14.0859C162.394 14.0552 162.392 14.0253 162.39 13.9965C162.134 11.1333 159.408 9.23872 156.171 8.89527C155.608 8.83555 155.29 8.78578 154.723 8.78578C154.156 8.78578 153.838 8.83555 153.275 8.89527C149.697 9.27487 147.755 11.0285 147.056 13.9965C147.05 14.026 147.044 14.0567 147.038 14.0885C146.931 14.758 146.915 15.4677 147.056 16.1298C147.908 20.118 151.145 21.0963 153.275 21.3238C153.838 21.3839 154.156 21.4333 154.723 21.4333Z" fill="black"/>
<path d="M167.702 22.2263V7.99271H169.122L177.436 20.6934L185.75 7.99271H187.169V22.2263H185.75V10.292L178.044 22.2263H176.827L169.02 10.1825V22.2263H167.702Z" fill="black"/>
<path d="M191.935 22.2263V7.99271H203.798V9.30658H193.456V14.1241H203.392V15.3285H193.456V20.9124H204V22.2263H191.935Z" fill="black"/>
<path d="M126.334 22.2263V7.99271H127.754V14.1241H140.529V7.99271H141.746V22.2263H140.529V15.219H127.754V22.2263H126.334Z" fill="black"/>
<path d="M96.0182 22.2263V7.99271H100.277L109.807 17.7372V7.99271H113.762V22.2263H109.605L99.9725 12.5913V22.2263H96.0182Z" fill="black"/>
<path d="M73.8134 22.2263V7.99271H78.1732L87.7041 17.7372V7.99271H91.5569V22.2263H87.2985L77.7677 12.5913V22.2263H73.8134Z" fill="black"/>
<path fill-rule="evenodd" clip-rule="evenodd" d="M52.217 22.2263L59.8214 7.99271H64.0798L71.5828 22.2263H67.2229L65.9049 19.3796H57.9963L56.4754 22.2263H52.217ZM61.9506 11.4964L59.3144 16.6423H64.4854L61.9506 11.4964Z" fill="black"/>
<path d="M27.9844 22.2263V7.88322H33.1553L38.9347 18.6132L44.9168 7.99271H49.9864V22.2263H46.1335V12.3723L40.7597 22.2263H37.1096L31.8373 12.3723V22.2263H27.9844Z" fill="black"/>
<path d="M0 29.9356V0L12.1022 9.07725L8.91111 12.7468L5.41892 10.1073V24.721L0 29.9356Z" fill="black"/>
<path fill-rule="evenodd" clip-rule="evenodd" d="M8.18858 15.9013L21.495 0.0643777V30L8.18858 25.1717V15.9013ZM17.9426 10.3648L10.8378 16.9957V23.3691L17.9426 24.5923V10.3648Z" fill="#FA0001"/>
</svg>
