<svg width="21" height="21" viewBox="0 0 21 21" fill="none" xmlns="http://www.w3.org/2000/svg">
<path d="M4.42589 11.3799L1 15.5666L4.16665 16.2L5.43331 20L8.76378 14.7154M16.574 11.3799L19.9999 15.5666L16.8333 16.2L15.5666 20L12.2361 14.7154" stroke="currentColor" stroke-width="2" stroke-linecap="round" stroke-linejoin="round"/>
<path d="M3.5332 7.96665C3.5332 9.81432 4.26719 11.5863 5.57368 12.8928C6.88018 14.1993 8.65217 14.9333 10.4998 14.9333C12.3475 14.9333 14.1195 14.1993 15.426 12.8928C16.7325 11.5863 17.4665 9.81432 17.4665 7.96665C17.4665 6.11898 16.7325 4.34698 15.426 3.04048C14.1195 1.73398 12.3475 1 10.4998 1C8.65217 1 6.88018 1.73398 5.57368 3.04048C4.26719 4.34698 3.5332 6.11898 3.5332 7.96665Z" stroke="currentColor" stroke-width="2" stroke-linecap="round" stroke-linejoin="round"/>
<path d="M10.9482 3.99116L12.0021 6.0668H13.7982C13.8971 6.06438 13.9944 6.09186 14.0774 6.14563C14.1604 6.1994 14.2253 6.27697 14.2635 6.36819C14.3017 6.45941 14.3115 6.56004 14.2917 6.65693C14.2718 6.75382 14.2231 6.84245 14.1521 6.91124L12.5029 8.53088L13.4165 10.6293C13.4574 10.7255 13.4669 10.832 13.4437 10.9339C13.4205 11.0357 13.3658 11.1277 13.2873 11.1966C13.2088 11.2655 13.1106 11.308 13.0066 11.3179C12.9026 11.3278 12.7981 11.3046 12.7081 11.2517L10.4998 10.0095L8.29163 11.2508C8.20155 11.3024 8.0976 11.3246 7.99431 11.3142C7.89102 11.3038 7.79355 11.2615 7.71551 11.193C7.63748 11.1245 7.58277 11.0334 7.55904 10.9324C7.53531 10.8313 7.54374 10.7254 7.58315 10.6293L8.49683 8.53088L6.84764 6.90786C6.77658 6.83907 6.72792 6.75044 6.70803 6.65355C6.68815 6.55667 6.69796 6.45603 6.73618 6.36481C6.7744 6.27359 6.83926 6.19602 6.92227 6.14225C7.00528 6.08848 7.10259 6.061 7.20146 6.06342H8.99759L10.0523 3.99116C10.0953 3.90967 10.1598 3.84147 10.2388 3.7939C10.3177 3.74633 10.4081 3.72119 10.5003 3.72119C10.5924 3.72119 10.6828 3.74633 10.7618 3.7939C10.8407 3.84147 10.9052 3.90967 10.9482 3.99116Z" stroke="currentColor" stroke-width="2" stroke-linecap="round" stroke-linejoin="round"/>
</svg>
