<svg width="24" height="24" viewBox="0 0 24 24" fill="none" xmlns="http://www.w3.org/2000/svg">
<path d="M2 16V19" stroke="#FA0001" stroke-width="2" stroke-linecap="round" stroke-linejoin="round"/>
<path d="M12 13V7C12 5.89543 12.8954 5 14 5H18C19.1046 5 20 5.89543 20 7V9" stroke="#FA0001" stroke-width="2" stroke-linecap="round" stroke-linejoin="round"/>
<path d="M12 13V7C12 5.89543 11.1046 5 10 5H6C4.89543 5 4 5.89543 4 7V9" stroke="#FA0001" stroke-width="2" stroke-linecap="round" stroke-linejoin="round"/>
<path d="M20 9C18.8954 9 18 9.89543 18 11V13H6V11C6 9.89543 5.10457 9 4 9C2.89543 9 2 9.89543 2 11V17H22V11C22 9.89543 21.1046 9 20 9Z" stroke="#FA0001" stroke-width="2" stroke-linecap="round" stroke-linejoin="round"/>
<path d="M22 16V19" stroke="#FA0001" stroke-width="2" stroke-linecap="round" stroke-linejoin="round"/>
</svg>
