<svg width="22" height="22" viewBox="0 0 22 22" fill="none" xmlns="http://www.w3.org/2000/svg">
<path d="M7.06196 10.6079C7.2565 10.4119 7.25533 10.0953 7.05935 9.90078C6.86337 9.70624 6.54679 9.70741 6.35225 9.90339C6.15771 10.0994 6.15887 10.4159 6.35485 10.6105C6.55083 10.805 6.86741 10.8039 7.06196 10.6079Z" fill="black"/>
<path d="M14.1331 10.5818C14.3276 10.3858 14.3264 10.0693 14.1305 9.87472C13.9345 9.68018 13.6179 9.68134 13.4234 9.87732C13.2288 10.0733 13.23 10.3899 13.426 10.5844C13.6219 10.779 13.9385 10.7778 14.1331 10.5818Z" fill="black"/>
<path d="M3.56274 1.93726L2.85564 1.23015V1.23015L3.56274 1.93726ZM4.28343 1.29472L4.80593 2.14736L4.28343 1.29472ZM5.82548 1L5.82548 2L5.82548 1ZM4.86154 1.05526L4.62809 0.08289L4.86154 1.05526ZM1 5.82548H2H1ZM1.05526 4.86154L2.02763 5.09498L1.05526 4.86154ZM1.93726 3.56274L2.64437 4.26985V4.26985L1.93726 3.56274ZM1.29472 4.28343L2.14736 4.80593L1.29472 4.28343ZM13.927 20.6105L14.2361 21.5616V21.5616L13.927 20.6105ZM9.60588 18.6059L8.89878 19.313V19.313L9.60588 18.6059ZM12.0729 20.6105L11.7639 21.5616L12.0729 20.6105ZM18.6059 9.60588L17.8988 10.313V10.313L18.6059 9.60588ZM20.6105 12.0729L21.5616 11.7639V11.7639L20.6105 12.0729ZM20.6105 13.927L21.5616 14.2361V14.2361L20.6105 13.927ZM10.9373 1.93726L11.6444 1.23015V1.23015L10.9373 1.93726ZM10.2166 1.29472L10.7391 0.44208L10.2166 1.29472ZM8.67452 1L8.67452 7.15256e-07L8.67452 1ZM9.63846 1.05526L9.40502 2.02763L9.63846 1.05526ZM1.93726 10.9373L2.64436 10.2301V10.2301L1.93726 10.9373ZM1.29472 10.2166L0.442079 10.7391L1.29472 10.2166ZM1 8.67452H0H1ZM1.05526 9.63846L0.0828902 9.87191L1.05526 9.63846ZM9.25825 14.4889C9.26029 15.0412 9.70965 15.4872 10.2619 15.4852C10.8142 15.4832 11.2603 15.0338 11.2582 14.4815L10.2582 14.4852L9.25825 14.4889ZM11.227 5.99631C11.2249 5.44403 10.7756 4.99796 10.2233 5C9.67101 5.00204 9.22495 5.4514 9.22698 6.00368L10.227 5.99999L11.227 5.99631ZM7.05935 9.90078L7.76385 9.19107V9.19107L7.05935 9.90078ZM7.06196 10.6079L6.35225 9.90339V9.90339L7.06196 10.6079ZM6.35485 10.6105L7.05935 9.90078V9.90078L6.35485 10.6105ZM6.35225 9.90339L5.64254 9.19889V9.19889L6.35225 9.90339ZM14.1305 9.87472L14.835 9.16501V9.16501L14.1305 9.87472ZM14.1331 10.5818L13.4234 9.87732V9.87732L14.1331 10.5818ZM13.426 10.5844L14.1305 9.87472V9.87472L13.426 10.5844ZM13.4234 9.87732L12.7136 9.17283V9.17283L13.4234 9.87732ZM10.9373 1.93726L10.2301 2.64437L17.8988 10.313L18.6059 9.60588L19.313 8.89878L11.6444 1.23015L10.9373 1.93726ZM18.6059 16.3941L17.8988 15.687L15.687 17.8988L16.3941 18.6059L17.1012 19.313L19.313 17.1012L18.6059 16.3941ZM9.60588 18.6059L10.313 17.8988L2.64436 10.2301L1.93726 10.9373L1.23015 11.6444L8.89878 19.313L9.60588 18.6059ZM1 8.67452H2L2 5.82548H1H2.38419e-07L0 8.67452H1ZM1.93726 3.56274L2.64437 4.26985L4.26985 2.64436L3.56274 1.93726L2.85564 1.23015L1.23015 2.85563L1.93726 3.56274ZM5.82548 1L5.82548 2L8.67452 2L8.67452 1L8.67452 7.15256e-07L5.82548 0L5.82548 1ZM3.56274 1.93726L4.26985 2.64436C4.64941 2.2648 4.72848 2.19482 4.80593 2.14736L4.28343 1.29472L3.76093 0.442079C3.43471 0.641989 3.16788 0.917905 2.85564 1.23015L3.56274 1.93726ZM5.82548 1L5.82548 0C5.3839 -1.19209e-07 5.00012 -0.00642693 4.62809 0.08289L4.86154 1.05526L5.09498 2.02763C5.1833 2.00643 5.2887 2 5.82548 2L5.82548 1ZM4.28343 1.29472L4.80593 2.14736C4.8954 2.09253 4.99295 2.05213 5.09498 2.02763L4.86154 1.05526L4.62809 0.08289C4.32198 0.15638 4.02935 0.277593 3.76093 0.442079L4.28343 1.29472ZM1 5.82548H2C2 5.2887 2.00643 5.1833 2.02763 5.09498L1.05526 4.86154L0.0828906 4.62809C-0.00642633 5.00012 2.98023e-07 5.3839 2.38419e-07 5.82548H1ZM1.93726 3.56274L1.23015 2.85563C0.917905 3.16788 0.641989 3.43471 0.44208 3.76093L1.29472 4.28343L2.14736 4.80593C2.19482 4.72848 2.26481 4.64941 2.64437 4.26985L1.93726 3.56274ZM1.05526 4.86154L2.02763 5.09498C2.05213 4.99295 2.09253 4.8954 2.14736 4.80593L1.29472 4.28343L0.44208 3.76093C0.277594 4.02935 0.156381 4.32198 0.0828906 4.62809L1.05526 4.86154ZM16.3941 18.6059L15.687 17.8988C15.0813 18.5045 14.669 18.9157 14.3248 19.2079C13.9894 19.4926 13.785 19.6052 13.618 19.6595L13.927 20.6105L14.2361 21.5616C14.7541 21.3933 15.1892 21.0976 15.6191 20.7326C16.0401 20.3752 16.5189 19.8953 17.1012 19.313L16.3941 18.6059ZM9.60588 18.6059L8.89878 19.313C9.48113 19.8953 9.95988 20.3752 10.3809 20.7326C10.8108 21.0976 11.2459 21.3933 11.7639 21.5616L12.0729 20.6105L12.382 19.6595C12.215 19.6052 12.0106 19.4926 11.6752 19.2079C11.331 18.9157 10.9187 18.5045 10.313 17.8988L9.60588 18.6059ZM13.927 20.6105L13.618 19.6595C13.2163 19.79 12.7836 19.79 12.382 19.6595L12.0729 20.6105L11.7639 21.5616C12.5673 21.8226 13.4327 21.8226 14.2361 21.5616L13.927 20.6105ZM18.6059 9.60588L17.8988 10.313C18.5045 10.9187 18.9157 11.331 19.2079 11.6752C19.4926 12.0106 19.6052 12.215 19.6595 12.382L20.6105 12.0729L21.5616 11.7639C21.3933 11.2459 21.0976 10.8108 20.7326 10.3809C20.3752 9.95988 19.8953 9.48114 19.313 8.89878L18.6059 9.60588ZM18.6059 16.3941L19.313 17.1012C19.8953 16.5189 20.3752 16.0401 20.7326 15.6191C21.0976 15.1892 21.3933 14.7541 21.5616 14.2361L20.6105 13.927L19.6595 13.618C19.6052 13.785 19.4926 13.9894 19.2079 14.3248C18.9157 14.669 18.5045 15.0813 17.8988 15.687L18.6059 16.3941ZM20.6105 12.0729L19.6595 12.382C19.79 12.7836 19.79 13.2163 19.6595 13.618L20.6105 13.927L21.5616 14.2361C21.8226 13.4327 21.8226 12.5673 21.5616 11.7639L20.6105 12.0729ZM10.9373 1.93726L11.6444 1.23015C11.3321 0.917906 11.0653 0.64199 10.7391 0.44208L10.2166 1.29472L9.69407 2.14736C9.77151 2.19482 9.85059 2.26481 10.2301 2.64437L10.9373 1.93726ZM8.67452 1L8.67452 2C9.21129 2 9.3167 2.00643 9.40502 2.02763L9.63846 1.05526L9.87191 0.0828912C9.49988 -0.00642586 9.1161 8.34465e-07 8.67452 7.15256e-07L8.67452 1ZM10.2166 1.29472L10.7391 0.44208C10.4706 0.277595 10.178 0.156381 9.87191 0.0828912L9.63846 1.05526L9.40502 2.02763C9.50705 2.05213 9.6046 2.09253 9.69407 2.14736L10.2166 1.29472ZM1.93726 10.9373L2.64436 10.2301C2.2648 9.85059 2.19482 9.77151 2.14736 9.69407L1.29472 10.2166L0.442079 10.7391C0.641989 11.0653 0.917905 11.3321 1.23015 11.6444L1.93726 10.9373ZM1 8.67452H0C0 9.1161 -0.00642681 9.49988 0.0828902 9.87191L1.05526 9.63846L2.02763 9.40502C2.00643 9.3167 2 9.2113 2 8.67452H1ZM1.29472 10.2166L2.14736 9.69407C2.09253 9.6046 2.05213 9.50705 2.02763 9.40502L1.05526 9.63846L0.0828902 9.87191C0.15638 10.178 0.277594 10.4707 0.442079 10.7391L1.29472 10.2166ZM10.2582 14.4852L11.2582 14.4815L11.227 5.99631L10.227 5.99999L9.22698 6.00368L9.25825 14.4889L10.2582 14.4852ZM7.05935 9.90078L6.35485 10.6105C6.15887 10.4159 6.15771 10.0994 6.35225 9.90339L7.06196 10.6079L7.77166 11.3124C8.35529 10.7244 8.35179 9.7747 7.76385 9.19107L7.05935 9.90078ZM7.06196 10.6079L6.35225 9.90339C6.54679 9.70741 6.86337 9.70624 7.05935 9.90078L6.35485 10.6105L5.65036 11.3202C6.2383 11.9038 7.18804 11.9003 7.77166 11.3124L7.06196 10.6079ZM6.35485 10.6105L7.05935 9.90078C7.25533 10.0953 7.2565 10.4119 7.06196 10.6079L6.35225 9.90339L5.64254 9.19889C5.05892 9.78683 5.06242 10.7366 5.65036 11.3202L6.35485 10.6105ZM6.35225 9.90339L7.06196 10.6079C6.86742 10.8039 6.55084 10.805 6.35485 10.6105L7.05935 9.90078L7.76385 9.19107C7.1759 8.60745 6.22616 8.61095 5.64254 9.19889L6.35225 9.90339ZM14.1305 9.87472L13.426 10.5844C13.23 10.3899 13.2288 10.0733 13.4234 9.87732L14.1331 10.5818L14.8428 11.2863C15.4264 10.6984 15.4229 9.74863 14.835 9.16501L14.1305 9.87472ZM14.1331 10.5818L13.4234 9.87732C13.6179 9.68134 13.9345 9.68018 14.1305 9.87472L13.426 10.5844L12.7215 11.2941C13.3094 11.8778 14.2591 11.8743 14.8428 11.2863L14.1331 10.5818ZM13.426 10.5844L14.1305 9.87472C14.3264 10.0693 14.3276 10.3858 14.1331 10.5818L13.4234 9.87732L12.7136 9.17283C12.13 9.76077 12.1335 10.7105 12.7215 11.2941L13.426 10.5844ZM13.4234 9.87732L14.1331 10.5818C13.9385 10.7778 13.6219 10.779 13.426 10.5844L14.1305 9.87472L14.835 9.16501C14.247 8.58138 13.2973 8.58489 12.7136 9.17283L13.4234 9.87732Z" fill="black"/>
</svg>
