<svg width="28" height="28" viewBox="0 0 28 28" fill="none" xmlns="http://www.w3.org/2000/svg">
<g clip-path="url(#clip0_617_5522)">
<path d="M14 28C21.732 28 28 21.732 28 14C28 6.26801 21.732 0 14 0C6.26801 0 0 6.26801 0 14C0 21.732 6.26801 28 14 28Z" fill="#FA0001"/>
<path d="M6.40598 13.6979L19.9043 8.49339C20.5308 8.26705 21.078 8.64622 20.875 9.59355L20.8762 9.59239L18.5778 20.4202C18.4075 21.1879 17.9513 21.3746 17.3132 21.0129L13.8132 18.4334L12.125 20.0597C11.9383 20.2464 11.7808 20.4039 11.4192 20.4039L11.6677 16.8421L18.1543 10.9819C18.4367 10.7334 18.0913 10.5934 17.7192 10.8407L9.70299 15.8877L6.24732 14.8097C5.49715 14.5717 5.48082 14.0596 6.40598 13.6979Z" fill="white"/>
</g>
<defs>
<clipPath id="clip0_617_5522">
<rect width="28" height="28" fill="white"/>
</clipPath>
</defs>
</svg>
