<svg width="24" height="24" viewBox="0 0 24 24" fill="none" xmlns="http://www.w3.org/2000/svg">
<path d="M19 20C19 18.7595 19 18.1392 18.8493 17.6345C18.51 16.4982 17.6346 15.6089 16.516 15.2642C16.0192 15.1111 15.4086 15.1111 14.1875 15.1111H9.8125C8.59138 15.1111 7.98082 15.1111 7.484 15.2642C6.3654 15.6089 5.49004 16.4982 5.15071 17.6345C5 18.1392 5 18.7595 5 20M15.9375 8C15.9375 10.2091 14.1746 12 12 12C9.82538 12 8.0625 10.2091 8.0625 8C8.0625 5.79086 9.82538 4 12 4C14.1746 4 15.9375 5.79086 15.9375 8Z" stroke="black" stroke-width="2" stroke-linecap="round" stroke-linejoin="round"/>
</svg>
